<svg width="140" height="32" viewBox="0 0 140 32" fill="none" xmlns="http://www.w3.org/2000/svg">
<path d="M107.714 22.5156V18.9687L115.443 9.89697H121.807L112.304 20.7607L107.714 22.5156Z" fill="#202124"/>
<path d="M112.304 20.7534L121.807 31.6172H115.443L107.714 22.5454V18.9985L112.304 20.7534Z" fill="#202124"/>
<path d="M19.3989 20.0284H23.2393V23.0734C23.2393 23.356 23.1465 23.6014 22.9647 23.8059C22.7829 24.0104 22.512 24.1145 22.1632 24.1145H19.3989V31.6284H14.8386V24.1145H1.96289C1.61039 24.1145 1.30241 24.0029 1.03525 23.7836C0.768085 23.5642 0.601112 23.2891 0.530611 22.9657L0 20.3036L14.4601 0.829102H19.3989V20.0284ZM14.8386 9.96032C14.8386 9.50673 14.8534 9.01596 14.8831 8.49178C14.9091 7.96752 14.961 7.42101 15.0315 6.85211L5.55101 20.0284H14.8386V9.96032Z" fill="#202124"/>
<path d="M41.0985 27.4124C42.3786 27.4124 43.4955 27.2971 44.4454 27.0629C45.3953 26.8287 46.3007 26.5053 47.1579 26.0963V20.4933H43.336C42.9686 20.4933 42.6829 20.3892 42.4714 20.1848C42.2599 19.9802 42.156 19.7274 42.156 19.43V16.1954H52.3119V28.6468C51.5364 29.2156 50.7311 29.7064 49.8963 30.1265C49.0577 30.5466 48.1634 30.8886 47.2135 31.1601C46.2636 31.4315 45.2469 31.6323 44.1634 31.7661C43.08 31.9 41.9111 31.9669 40.6606 31.9669C38.438 31.9669 36.3898 31.5765 34.5197 30.7957C32.6458 30.0149 31.028 28.9293 29.6625 27.5388C28.2971 26.1483 27.2321 24.4901 26.464 22.5605C25.696 20.6309 25.3137 18.5228 25.3137 16.2401C25.3137 13.9275 25.6848 11.8045 26.4306 9.87491C27.1765 7.94532 28.2377 6.28713 29.6069 4.89662C30.9798 3.50612 32.6421 2.42792 34.6013 1.66202C36.5568 0.89613 38.7497 0.513184 41.1876 0.513184C43.6773 0.513184 45.8369 0.884975 47.6588 1.63228C49.4807 2.37587 51.028 3.34624 52.2933 4.53598L50.6458 7.13107C50.323 7.65532 49.8926 7.9193 49.3582 7.9193C49.0206 7.9193 48.6755 7.80775 48.323 7.57726C47.8703 7.30959 47.4139 7.03815 46.939 6.76671C46.4677 6.49903 45.9482 6.26482 45.3768 6.06405C44.8054 5.867 44.1671 5.70342 43.4547 5.57328C42.7423 5.44688 41.9223 5.38367 40.9946 5.38367C39.4881 5.38367 38.1264 5.64021 36.9093 6.14957C35.6922 6.65893 34.6533 7.39135 33.7961 8.34317C32.939 9.29492 32.2785 10.4363 31.811 11.7711C31.3471 13.1058 31.1134 14.593 31.1134 16.2401C31.1134 18.0135 31.3583 19.5936 31.8518 20.9767C32.3453 22.3597 33.0318 23.5272 33.9186 24.479C34.8054 25.4307 35.8592 26.1558 37.0836 26.6614C38.3119 27.1595 39.6514 27.4124 41.0985 27.4124Z" fill="#202124"/>
<path d="M66.2594 9.45117C67.625 9.45117 68.879 9.6705 70.0254 10.1092C71.1724 10.548 72.1595 11.1912 72.9905 12.0351C73.8216 12.8791 74.4671 13.9164 74.9351 15.1433C75.3983 16.3702 75.6323 17.7719 75.6323 19.3482C75.6323 19.7461 75.6135 20.077 75.5805 20.3372C75.5469 20.6012 75.4804 20.8057 75.3909 20.9544C75.2982 21.1032 75.1758 21.2109 75.0238 21.2741C74.8678 21.3373 74.6715 21.3708 74.4341 21.3708H61.0498C61.2056 23.6127 61.803 25.2598 62.8457 26.3082C63.8847 27.3604 65.265 27.8846 66.983 27.8846C67.8287 27.8846 68.5562 27.7842 69.1687 27.5872C69.7806 27.3902 70.3152 27.1708 70.7717 26.9291C71.2276 26.6875 71.6283 26.4681 71.9739 26.2711C72.3188 26.074 72.653 25.9736 72.9758 25.9736C73.1869 25.9736 73.3691 26.0145 73.5244 26.1C73.6804 26.1855 73.8142 26.3045 73.9252 26.4607L75.4467 28.3754C74.8678 29.0558 74.2223 29.6284 73.5022 30.0894C72.7861 30.5504 72.0371 30.9185 71.2538 31.1973C70.4745 31.4724 69.6771 31.6695 68.8682 31.7811C68.0593 31.8925 67.276 31.9521 66.5155 31.9521C65.009 31.9521 63.6101 31.6992 62.3151 31.1973C61.0201 30.6954 59.8958 29.9481 58.9385 28.9629C57.9812 27.9776 57.2279 26.7581 56.6788 25.3007C56.1296 23.847 55.855 22.1628 55.855 20.248C55.855 18.7572 56.0925 17.3555 56.5711 16.043C57.0498 14.7306 57.7363 13.5892 58.6305 12.6151C59.5248 11.6447 60.6157 10.8751 61.9032 10.3063C63.1871 9.73371 64.6416 9.45117 66.2594 9.45117ZM66.3633 13.2174C64.842 13.2174 63.6546 13.6487 62.7975 14.515C61.9403 15.3813 61.3874 16.6082 61.15 18.1957H70.9458C70.9458 17.5153 70.8531 16.8721 70.6715 16.2698C70.4893 15.6675 70.2076 15.1396 69.825 14.6823C69.4471 14.2287 68.9684 13.8718 68.3895 13.6078C67.8139 13.3475 67.1388 13.2174 66.3633 13.2174Z" fill="#202124"/>
<path d="M88.8239 9.45117C90.1895 9.45117 91.4435 9.6705 92.5939 10.1092C93.7403 10.548 94.7274 11.1912 95.5584 12.0351C96.3895 12.8791 97.035 13.9164 97.5029 15.1433C97.9669 16.3702 98.2002 17.7719 98.2002 19.3482C98.2002 19.7461 98.182 20.077 98.1484 20.3372C98.1148 20.6012 98.0482 20.8057 97.9595 20.9544C97.8667 21.1032 97.7436 21.2109 97.5917 21.2741C97.4357 21.3373 97.2394 21.3708 97.002 21.3708H83.6176C83.7736 23.6127 84.3714 25.2598 85.4136 26.3082C86.4524 27.3604 87.8328 27.8846 89.5507 27.8846C90.3972 27.8846 91.1241 27.7842 91.7366 27.5872C92.3485 27.3902 92.883 27.1708 93.3396 26.9291C93.7961 26.6875 94.1969 26.4681 94.5418 26.2711C94.8867 26.074 95.2209 25.9736 95.5436 25.9736C95.7548 25.9736 95.937 26.0145 96.093 26.1C96.2483 26.1855 96.3821 26.3045 96.4937 26.4607L98.0146 28.3754C97.4357 29.0558 96.7902 29.6284 96.0708 30.0894C95.354 30.5504 94.605 30.9185 93.8217 31.1973C93.0424 31.4724 92.2449 31.6695 91.4361 31.7811C90.6272 31.8925 89.8439 31.9521 89.0834 31.9521C87.5773 31.9521 86.1781 31.6992 84.8831 31.1973C83.5881 30.6954 82.4638 29.9481 81.5064 28.9629C80.5489 27.9776 79.7958 26.7581 79.2465 25.3007C78.6979 23.847 78.4229 22.1628 78.4229 20.248C78.4229 18.7572 78.6602 17.3555 79.1389 16.043C79.6177 14.7306 80.3042 13.5892 81.1984 12.6151C82.0927 11.6447 83.184 10.8751 84.4716 10.3063C85.7511 9.73371 87.2061 9.45117 88.8239 9.45117ZM88.9315 13.2174C87.4099 13.2174 86.2224 13.6487 85.3652 14.515C84.5085 15.3813 83.9552 16.6082 83.7178 18.1957H93.5137C93.5137 17.5153 93.4209 16.8721 93.2394 16.2698C93.0572 15.6675 92.7754 15.1396 92.3935 14.6823C92.015 14.2287 91.5362 13.8718 90.9573 13.6078C90.3784 13.3475 89.7034 13.2174 88.9315 13.2174Z" fill="#202124"/>
<path d="M107.714 21.6235V31.6247H102.501V0H107.714V18.11" fill="#202124"/>
<path d="M138.574 14.0464C138.434 14.2732 138.285 14.4331 138.133 14.526C137.977 14.619 137.78 14.6636 137.543 14.6636C137.291 14.6636 137.02 14.593 136.731 14.4517C136.441 14.3104 136.107 14.1506 135.729 13.9721C135.35 13.7936 134.916 13.6338 134.43 13.4924C133.944 13.3512 133.372 13.2806 132.709 13.2806C131.681 13.2806 130.872 13.4999 130.281 13.9386C129.692 14.3774 129.394 14.9536 129.394 15.6637C129.394 16.1322 129.547 16.5263 129.851 16.8461C130.152 17.1658 130.552 17.4446 131.053 17.6863C131.551 17.928 132.118 18.1436 132.753 18.3369C133.387 18.5302 134.033 18.7385 134.697 18.9653C135.358 19.1921 136.007 19.4523 136.641 19.7423C137.276 20.0323 137.84 20.4004 138.341 20.8503C138.842 21.2964 139.243 21.8317 139.543 22.4564C139.847 23.081 140 23.832 140 24.7132C140 25.7616 139.81 26.732 139.428 27.6169C139.05 28.5054 138.493 29.2713 137.762 29.9145C137.031 30.5614 136.126 31.0634 135.05 31.424C133.973 31.7847 132.738 31.9668 131.346 31.9668C130.601 31.9668 129.873 31.8999 129.161 31.7661C128.448 31.6323 127.766 31.4426 127.113 31.2009C126.46 30.9593 125.851 30.6768 125.298 30.3496C124.742 30.0224 124.252 29.6692 123.833 29.2862L125.035 27.2859C125.191 27.0443 125.372 26.8584 125.584 26.732C125.795 26.6056 126.063 26.5387 126.386 26.5387C126.708 26.5387 127.016 26.6317 127.306 26.8138C127.595 26.9997 127.929 27.1967 128.308 27.4087C128.686 27.6206 129.135 27.8214 129.647 28.0035C130.159 28.1894 130.812 28.2786 131.599 28.2786C132.218 28.2786 132.749 28.2043 133.194 28.0556C133.636 27.9069 134.004 27.7098 134.293 27.4719C134.582 27.2302 134.794 26.9514 134.927 26.6316C135.061 26.3119 135.128 25.981 135.128 25.6427C135.128 25.1333 134.975 24.7132 134.675 24.386C134.371 24.0588 133.97 23.7763 133.472 23.5346C132.971 23.2929 132.404 23.0773 131.762 22.8839C131.12 22.6943 130.467 22.4824 129.799 22.2556C129.132 22.0288 128.478 21.7611 127.837 21.4563C127.194 21.1514 126.627 20.7647 126.126 20.2963C125.628 19.8278 125.224 19.2553 124.924 18.5712C124.619 17.8908 124.471 17.0691 124.471 16.1025C124.471 15.2102 124.645 14.3587 124.998 13.5482C125.35 12.7378 125.866 12.0351 126.549 11.429C127.231 10.823 128.081 10.3433 129.102 9.98275C130.122 9.62209 131.298 9.43994 132.638 9.43994C134.129 9.43994 135.488 9.68899 136.712 10.1835C137.936 10.6817 138.957 11.3324 139.773 12.1428L138.574 14.0464Z" fill="#202124"/>
</svg>
