<svg width="51" height="30" viewBox="0 0 51 30" fill="none" xmlns="http://www.w3.org/2000/svg">
<g clip-path="url(#clip0_244_777)">
<path d="M14.5381 10.854C14.5381 11.469 14.6046 11.9677 14.7209 12.3334C14.8539 12.6991 15.0201 13.098 15.2528 13.5301C15.3359 13.6631 15.3692 13.7961 15.3692 13.9124C15.3692 14.0787 15.2694 14.2449 15.0533 14.4111L14.0062 15.1092C13.8566 15.209 13.707 15.2588 13.574 15.2588C13.4078 15.2588 13.2416 15.1757 13.0754 15.0261C12.8426 14.7768 12.6432 14.5108 12.477 14.2449C12.3108 13.9623 12.1445 13.6465 11.9617 13.2642C10.6652 14.7934 9.03625 15.558 7.07488 15.558C5.67865 15.558 4.56499 15.1591 3.75052 14.3612C2.93605 13.5634 2.52051 12.4996 2.52051 11.1699C2.52051 9.757 3.01916 8.61009 4.03309 7.74576C5.04702 6.88143 6.39339 6.44926 8.10543 6.44926C8.67057 6.44926 9.25234 6.49913 9.86734 6.58223C10.4824 6.66534 11.114 6.79832 11.7789 6.94791V5.73452C11.7789 4.47126 11.5129 3.59031 10.9976 3.07503C10.4657 2.55976 9.56815 2.31043 8.28827 2.31043C7.70651 2.31043 7.10813 2.37692 6.49312 2.52651C5.87811 2.67611 5.27973 2.85895 4.69796 3.09166C4.43202 3.20801 4.23255 3.2745 4.1162 3.30774C3.99985 3.34098 3.91674 3.3576 3.85025 3.3576C3.61755 3.3576 3.50119 3.19139 3.50119 2.84233V2.02786C3.50119 1.76191 3.53444 1.56245 3.61755 1.4461C3.70066 1.32974 3.85025 1.21339 4.08296 1.09704C4.66472 0.797846 5.36284 0.548519 6.1773 0.349058C6.99177 0.132974 7.85611 0.0332436 8.77031 0.0332436C10.7483 0.0332436 12.1944 0.482032 13.1252 1.37961C14.0394 2.27719 14.5048 3.64018 14.5048 5.46857V10.854H14.5381ZM7.78962 13.3806C8.33814 13.3806 8.90328 13.2808 9.50167 13.0814C10.1 12.8819 10.6319 12.5162 11.0807 12.0176C11.3467 11.7017 11.5461 11.3527 11.6459 10.9538C11.7456 10.5548 11.8121 10.0728 11.8121 9.50767V8.80956C11.3301 8.6932 10.8148 8.59347 10.2829 8.52699C9.75099 8.4605 9.23572 8.42725 8.72044 8.42725C7.60678 8.42725 6.79231 8.64334 6.24379 9.09213C5.69527 9.54091 5.42932 10.1725 5.42932 11.0036C5.42932 11.7849 5.62878 12.3666 6.04433 12.7655C6.44325 13.1811 7.02502 13.3806 7.78962 13.3806ZM21.1369 15.1757C20.8377 15.1757 20.6383 15.1258 20.5053 15.0095C20.3723 14.9098 20.256 14.6771 20.1562 14.3612L16.2501 1.51258C16.1504 1.18015 16.1005 0.964065 16.1005 0.847712C16.1005 0.581763 16.2335 0.432167 16.4994 0.432167H18.1284C18.4442 0.432167 18.6603 0.482032 18.7766 0.598385C18.9096 0.698116 19.0093 0.930821 19.1091 1.24664L21.9015 12.2503L24.4945 1.24664C24.5776 0.914199 24.6774 0.698116 24.8103 0.598385C24.9433 0.498654 25.176 0.432167 25.4752 0.432167H26.805C27.1208 0.432167 27.3369 0.482032 27.4698 0.598385C27.6028 0.698116 27.7192 0.930821 27.7856 1.24664L30.4119 12.3832L33.2875 1.24664C33.3872 0.914199 33.5035 0.698116 33.6199 0.598385C33.7529 0.498654 33.969 0.432167 34.2682 0.432167H35.814C36.0799 0.432167 36.2295 0.565141 36.2295 0.847712C36.2295 0.930821 36.2129 1.01393 36.1963 1.11366C36.1797 1.21339 36.1464 1.34637 36.0799 1.52921L32.0741 14.3779C31.9743 14.7103 31.858 14.9264 31.725 15.0261C31.592 15.1258 31.376 15.1923 31.0934 15.1923H29.6639C29.3481 15.1923 29.132 15.1425 28.999 15.0261C28.8661 14.9098 28.7497 14.6937 28.6832 14.3612L26.1068 3.64017L23.5471 14.3446C23.464 14.6771 23.3642 14.8931 23.2313 15.0095C23.0983 15.1258 22.8656 15.1757 22.5664 15.1757H21.1369ZM42.4959 15.6245C41.6316 15.6245 40.7673 15.5248 39.9362 15.3253C39.1051 15.1258 38.4568 14.9098 38.0247 14.6604C37.7587 14.5108 37.5759 14.3446 37.5094 14.195C37.4429 14.0454 37.4097 13.8792 37.4097 13.7296V12.8819C37.4097 12.5328 37.5426 12.3666 37.792 12.3666C37.8917 12.3666 37.9914 12.3832 38.0912 12.4165C38.1909 12.4497 38.3405 12.5162 38.5067 12.5827C39.0719 12.832 39.6869 13.0315 40.3351 13.1645C41 13.2974 41.6482 13.3639 42.3131 13.3639C43.3603 13.3639 44.1747 13.1811 44.7399 12.8154C45.305 12.4497 45.6042 11.9178 45.6042 11.2363C45.6042 10.7709 45.4546 10.3886 45.1554 10.0728C44.8562 9.757 44.2911 9.47443 43.4766 9.20848L41.0665 8.4605C39.8531 8.0782 38.9555 7.51305 38.407 6.76507C37.8585 6.03371 37.5759 5.21925 37.5759 4.35491C37.5759 3.6568 37.7255 3.04179 38.0247 2.50989C38.3239 1.97799 38.7228 1.51258 39.2214 1.1469C39.7201 0.764603 40.2852 0.482032 40.9501 0.282571C41.615 0.083109 42.3131 0 43.0445 0C43.4101 0 43.7924 0.0166218 44.1581 0.0664872C44.5404 0.116353 44.8895 0.18284 45.2385 0.249327C45.571 0.332436 45.8868 0.415545 46.186 0.515276C46.4852 0.615007 46.7179 0.714738 46.8841 0.814468C47.1168 0.947443 47.283 1.08042 47.3828 1.23001C47.4825 1.36299 47.5323 1.54583 47.5323 1.77853V2.55976C47.5323 2.90882 47.3994 3.09166 47.15 3.09166C47.0171 3.09166 46.801 3.02517 46.5184 2.89219C45.571 2.46003 44.5072 2.24394 43.327 2.24394C42.3796 2.24394 41.6316 2.39354 41.1163 2.70935C40.6011 3.02517 40.3351 3.5072 40.3351 4.18869C40.3351 4.6541 40.5013 5.05303 40.8338 5.36884C41.1662 5.68466 41.7812 6.00047 42.6622 6.28304L45.0225 7.03102C46.2192 7.41332 47.0836 7.94522 47.5988 8.62672C48.1141 9.30821 48.3634 10.0894 48.3634 10.9538C48.3634 11.6685 48.2138 12.3168 47.9313 12.8819C47.6321 13.447 47.2332 13.9457 46.7179 14.3446C46.2026 14.7602 45.5876 15.0594 44.8729 15.2754C44.1249 15.5081 43.3437 15.6245 42.4959 15.6245Z" fill="#EEEEEE"/>
<path fill-rule="evenodd" clip-rule="evenodd" d="M45.6375 23.7027C40.1689 27.7418 32.2237 29.886 25.3921 29.886C15.818 29.886 7.19125 26.3455 0.675507 20.4614C0.160231 19.996 0.625641 19.3644 1.24065 19.7301C8.28829 23.819 16.9815 26.2957 25.9739 26.2957C32.0408 26.2957 38.7062 25.0324 44.8396 22.4394C45.7538 22.0239 46.5351 23.0378 45.6375 23.7027Z" fill="#FF9900"/>
<path fill-rule="evenodd" clip-rule="evenodd" d="M47.9149 21.1097C47.2167 20.2121 43.294 20.6775 41.5155 20.8936C40.9836 20.9601 40.9005 20.4946 41.3825 20.1456C44.5074 17.9515 49.6435 18.5831 50.2419 19.3145C50.8403 20.0625 50.0757 25.1986 47.1503 27.6586C46.7015 28.0409 46.2693 27.8415 46.4688 27.3428C47.1336 25.6973 48.613 21.9906 47.9149 21.1097Z" fill="#FF9900"/>
</g>
<defs>
<clipPath id="clip0_244_777">
<rect width="51" height="29.886" fill="white"/>
</clipPath>
</defs>
</svg>
