<svg width="150" height="43" viewBox="0 0 150 43" fill="none" xmlns="http://www.w3.org/2000/svg">
<path fill-rule="evenodd" clip-rule="evenodd" d="M58.0035 1.65749H51.295V19.726H57.4906L60.9899 19.3112L61.4397 19.12L61.8878 18.9288L62.2735 18.706L62.6909 18.5149L63.011 18.2281L63.3652 17.9737L63.4932 17.8141L63.6536 17.6861L63.7825 17.5265L63.9421 17.4002L64.135 17.0486L64.2315 16.8582L64.3595 16.6986L64.5199 16.3163L64.584 16.1251V16.0602L64.6164 16.0278L64.6804 15.9646V15.7734L64.7128 15.741L64.7777 15.5498V15.3586L64.8101 15.3262L64.8741 15.135L64.9066 14.6895L64.9714 14.244L64.875 13.4468L64.7145 12.7137L64.5541 12.3637L64.4252 12.077L64.0727 11.5358L63.5913 11.057L63.302 10.8343L63.0451 10.6747L62.6926 10.4826L62.3717 10.3563L61.6326 10.1327L62.1139 9.75033L62.5637 9.36796L62.6286 9.23994L62.661 9.17677L62.725 9.14435L62.9179 8.95316L63.2713 8.50678L63.4957 7.99639L63.5606 7.70962L63.6562 7.45442L63.7526 6.88173L63.7859 6.56252V6.40292L63.8184 6.27575L63.7535 5.7022L63.6571 5.12865L63.4326 4.5551L63.1765 4.04556L62.7592 3.47202L62.3094 2.99406L61.7316 2.58012L61.1213 2.22847L58.0035 1.65749ZM57.779 4.49365L59.4485 4.78042L59.7045 4.90759L59.9614 5.09878L60.1859 5.28996L60.3779 5.5443L60.5068 5.79949L60.6024 6.08627L60.6664 6.40548L60.6988 6.7887L60.6664 6.91587V7.07547L60.6024 7.36224L60.5068 7.61659L60.4419 7.74376L60.4095 7.80777V7.90336L60.3455 7.9358L60.3131 7.99895L60.2482 8.12613L60.0562 8.34974L59.8317 8.54092L59.6072 8.73296L57.5529 9.17848H54.441V4.4945L57.779 4.49365ZM54.441 11.9182H58.3568L60.4752 12.2041L60.7646 12.3637L61.0215 12.5558L61.2459 12.7785L61.4388 13.0337L61.5668 13.2881L61.6957 13.6073L61.7597 13.9256L61.7922 14.308L61.7597 14.3729V14.6596L61.6957 15.0096L61.5668 15.2955L61.4388 15.6147L61.2459 15.8699L61.0215 16.1242L60.7646 16.3154H60.6673V16.3478L60.6033 16.4119L60.4744 16.5382L58.1324 16.9205H54.441V11.9182ZM83.1688 19.726H86.3165V1.65749H83.1688V19.726ZM105.735 19.726H108.88V1.65749H105.735V19.726ZM124 2.55024L121.753 1.81624L118.896 1.52946H118.159L117.484 1.59348L116.842 1.68907L116.264 1.84867L115.687 2.00828L115.173 2.23103L114.66 2.48623L114.241 2.83701L113.825 3.15537L113.471 3.53774L113.15 3.9201L112.926 4.39806L112.701 4.84444L112.573 5.38555L112.476 5.92752L112.443 6.56508V7.1062L112.539 7.61659L112.637 8.09369L112.829 8.57165L112.99 8.95487L113.246 9.33723L113.536 9.65559L113.888 9.97394L114.563 10.4519L115.365 10.9307L116.167 11.2806L117.099 11.6314L120.309 12.8741L120.598 13.0337L120.886 13.2573L121.336 13.7336L121.496 13.9888L121.625 14.2764L121.753 14.9455L121.688 15.1999L121.625 15.4867L121.562 15.5823L121.528 15.7111L121.433 15.9646L121.24 16.1558L121.048 16.3478L120.918 16.4119L120.855 16.4426L120.822 16.5066L120.598 16.6978L118.125 17.2722L115.269 16.8258L114.595 16.5706L114.05 16.3478L113.568 16.0926L113.15 15.8374L111.866 18.3553L112.348 18.642L112.958 18.9604L113.6 19.2147L114.338 19.5015L117.966 19.9479L118.736 19.9163L119.474 19.8531L120.147 19.726L120.467 19.6287L120.822 19.5655L121.111 19.4392L121.433 19.3419L122.01 19.12L122.267 18.9604L122.555 18.8332L123.07 18.514L123.262 18.2912L123.487 18.1001L123.872 17.6853L124.192 17.2397L124.322 16.9845L124.385 16.8574L124.416 16.7934L124.481 16.7618V16.6662L124.514 16.6013L124.579 16.475L124.705 16.2198L124.77 15.933L124.865 15.6787L124.964 15.1051L125.027 14.5316L124.964 13.9581L124.899 13.4477L124.77 12.9697L124.61 12.5558L124.385 12.1094L124.16 11.7586L123.872 11.4078L123.583 11.121L122.845 10.5799L122.075 10.1335L121.24 9.71874L120.373 9.40039L117.162 8.1577L116.81 7.96652L116.522 7.77534L116.264 7.55257L116.103 7.32981L115.911 7.04304L115.813 6.75626L115.717 6.43706V6.15028L115.75 5.67233L115.942 5.25838L116.2 4.90759L116.649 4.62167L118.83 4.20688H119.474L120.147 4.30247L120.789 4.39806L121.464 4.55681L122.075 4.71727L122.715 4.93918L123.935 5.48115L124 2.55024ZM130.998 9.05046V1.65749H127.851V19.726H130.998V11.9182H139.793V19.726H142.939V1.65749H139.793V9.05046H130.998ZM62.2727 37.7279L60.6997 38.3023L58.5165 38.5899L57.843 38.5259L57.2337 38.4303L56.6234 38.2707L56.1096 38.0787L55.5966 37.7927L55.1469 37.4744L54.6971 37.1236L54.3437 36.7097L53.9588 36.1993L53.6703 35.7222L53.4126 35.1793L53.253 34.6374L53.0601 34.0322L52.9636 33.4271L52.8996 32.7896V31.4521L52.9961 30.8154L53.2854 29.635L53.4774 29.0606L53.7668 28.5511L54.0552 28.0424L54.441 27.5952L54.7935 27.1497L55.2109 26.7997L55.6598 26.4481L56.1736 26.2262L56.6866 26.0026L57.2652 25.8438L57.843 25.7474L58.5165 25.7149L60.6997 26.0026L62.2727 26.6077L63.2354 23.9943L62.6576 23.7084L62.0798 23.4856L61.4704 23.2936L60.8601 23.1664L60.1859 23.0384L59.5116 22.9752L58.8058 22.9112H58.1324L57.1048 22.9436L56.1736 23.0708L55.3073 23.2936L54.505 23.6128L53.7343 23.9943L53.0601 24.4723L52.4182 25.0151L51.8729 25.6526L51.3266 26.2885L50.8777 27.0208L50.4603 27.7548L50.1718 28.5835L49.9141 29.3799L49.7536 30.2726L49.6572 31.1654L49.6248 32.1529L49.6572 33.1403L49.7536 34.1287L49.9141 35.053L50.0105 35.467L50.1718 35.9125L50.4603 36.7097L50.8777 37.442L51.3266 38.1435L51.8729 38.8118L52.4182 39.3538L53.0601 39.8958L53.7343 40.3106L54.505 40.6921L55.3073 40.9481L56.1736 41.1709L57.1048 41.298L58.1324 41.3936L63.2354 40.3106L62.2727 37.7279ZM131.415 23.9943L129.039 23.1988L126.342 22.9112L125.315 22.9436L124.385 23.0708L123.519 23.2936L122.715 23.6128L121.946 23.9943L121.271 24.4723L120.63 25.0151L120.084 25.6526L119.538 26.2885L119.056 27.0208L118.639 27.7548L118.351 28.5835L118.092 29.3799L117.934 30.2726L117.837 31.1654L117.804 32.1529L117.837 33.1403L117.934 34.1287L118.092 35.053L118.19 35.467L118.351 35.9125L118.639 36.7097L119.056 37.442L119.538 38.1435L120.084 38.8118L120.63 39.3538L121.271 39.8958L121.946 40.3106L122.715 40.6921L123.519 40.9481L124.385 41.1709L125.315 41.298L126.342 41.3936L127.017 41.3296L127.724 41.2656L128.366 41.1709L128.686 41.106L128.751 41.0744H129.039L129.17 41.0104L129.233 40.9788H129.328L129.649 40.9157L129.778 40.8517L129.841 40.8201H129.938L130.26 40.7561L130.836 40.5333L131.415 40.3106L130.485 37.7279L128.879 38.3023L126.697 38.5899L126.022 38.5259L125.412 38.4303L124.802 38.2707L124.288 38.0787L123.775 37.7927L123.325 37.4744L122.91 37.1236L122.555 36.7097L122.171 36.1993L121.882 35.7222L121.625 35.1793L121.433 34.6374L121.24 34.0322L121.142 33.4271L121.078 32.7896V31.4521L121.175 30.8154L121.464 29.635L121.656 29.0606L121.946 28.5511L122.235 28.0424L122.62 27.5952L122.973 27.1497L123.39 26.7997L123.84 26.4481L124.353 26.2262L124.865 26.0026L125.445 25.8438L126.022 25.7474L126.697 25.7149L128.879 26.0026L130.485 26.6077L131.415 23.9943ZM78.6769 38.7171L78.7716 38.5259L78.8996 38.3663L79.1565 38.0471L79.6396 37.3472L80.0228 36.5816L80.086 36.358L80.1824 36.1668L80.3762 35.7845L80.4709 35.3398L80.6006 34.9259L80.7927 34.0331L80.8891 33.0763L80.9207 32.5668L80.9839 32.0888L80.9207 31.0373L80.826 30.0823L80.6322 29.1588L80.4069 28.2976L80.0553 27.4689L79.6686 26.7366L79.189 26.035L78.6751 25.4299L78.0316 24.8247L77.68 24.5371L77.3582 24.3135L76.6532 23.8996L75.9132 23.5496L75.111 23.2637L74.662 23.1357L74.2447 23.0717L73.3459 22.9454L72.4148 22.9129L71.4196 22.9454L70.5209 23.0717L69.6546 23.2953L68.8839 23.5821L68.114 23.9328L67.4397 24.3784L66.7655 24.9203L66.2201 25.5255L65.6431 26.1323L65.1609 26.8629L64.7444 27.596L64.4226 28.4256L64.1342 29.2544L63.9737 30.1779L63.8457 31.1022L63.8141 32.1537L63.8457 33.1412L63.8781 33.6192L63.9737 34.1295L64.1342 35.0539L64.4226 35.9142L64.7111 36.7114L65.1285 37.4437L65.6098 38.1444L66.1561 38.8127L66.7339 39.3546L67.4082 39.865L68.0816 40.279L68.8523 40.6613L69.6546 40.9165L70.5209 41.1402L71.4196 41.2357L72.4148 41.3305L72.8646 41.2665L72.897 41.2357H73.3468L74.2455 41.1077L74.6629 40.9805L75.1118 40.8858L75.4967 40.7586L75.9141 40.6323L76.2674 40.4394L76.6541 40.2482L77.3591 39.8343L77.6808 39.5475L78.0325 39.2923L78.6769 38.7171ZM76.2043 27.3733L76.5243 27.7872L76.8145 28.2976L77.0714 28.8071L77.2951 29.4131L77.4564 29.9875L77.5844 30.6558L77.6475 31.3241L77.7107 32.0888L77.6808 32.7896L77.616 33.4903L77.4879 34.1278L77.3275 34.7645L77.1022 35.3389L76.8453 35.8809L76.5235 36.358L76.2034 36.8368L75.7852 37.2201L75.4011 37.57L74.9513 37.8576L74.5024 38.1435L73.9886 38.3031L73.7317 38.3671L73.6037 38.3979L73.5081 38.4619H73.3476L73.2205 38.4943L72.9636 38.5575H72.6742L72.4173 38.5899L71.8079 38.5575L71.2617 38.4619L70.7479 38.3023L70.2665 38.1427L69.7851 37.8568L69.3678 37.5691L68.9829 37.2192L68.6295 36.836L68.2446 36.3572L67.9553 35.8801L67.6983 35.3381L67.5055 34.7953L67.3126 34.1594L67.1845 33.5219L67.089 32.8527V31.3873L67.1845 30.6857L67.3126 30.0166L67.5055 29.4114L67.6983 28.8054L67.9553 28.2959L68.2446 27.7855L68.6295 27.3716L68.9829 26.9585L69.3678 26.6068L69.7851 26.2876L70.2665 26.0657L70.7479 25.8421L71.2617 25.7465L71.8079 25.6518H72.9636L73.5089 25.7465L73.9903 25.8421L74.5041 26.0657L74.9531 26.2876L75.4028 26.6068L75.7869 26.9585L76.2043 27.3733ZM97.8702 23.0384H94.7558V34.3822L94.6927 34.8934L94.6295 35.403L94.5015 35.8485L94.4042 36.2957L94.213 36.6456L94.0193 36.9956L93.8913 37.1236L93.8264 37.1876H93.794V37.2832L93.6659 37.4095L93.6028 37.4744H93.5695V37.57L93.2494 37.7927L92.9592 37.9831L92.7672 38.0471H92.6708V38.0787L92.6059 38.1435L92.4139 38.2067H92.3174V38.2383L92.2542 38.3023H92.0289V38.3347L91.836 38.3979L91.4187 38.4619L90.9689 38.4943L90.5199 38.5259L90.007 38.4943L89.5572 38.4619L89.1398 38.3979L88.7549 38.3023L88.0166 37.9831L87.6949 37.7927L87.4064 37.57L87.1179 37.2832L86.8926 36.9956L86.7014 36.6456L86.5717 36.2957L86.4428 35.8485L86.3796 35.403L86.3165 34.8934V23.0384H83.1688V35.1793L83.2652 35.9774L83.4274 36.7097L83.651 37.442L83.8755 38.0471L84.2288 38.6522L84.6462 39.195L85.1276 39.673L85.5774 40.0229L86.1227 40.3729L86.7014 40.6605L87.3748 40.9157L88.0482 41.0744L88.8181 41.2033L89.5905 41.298L90.4551 41.3296L91.2906 41.298L92.0938 41.2349L92.8312 41.106L93.5379 40.9481L94.1797 40.6921L94.3078 40.5973L94.4682 40.5333L94.7891 40.4053L95.046 40.215L95.1749 40.1185L95.3345 40.0554L95.85 39.673L96.0412 39.4178L96.1385 39.2898L96.2665 39.195L96.4586 38.9083L96.683 38.6522L96.8435 38.3347L97.0364 38.0471L97.1653 37.7279L97.2284 37.57L97.3249 37.442L97.4213 37.0596L97.5502 36.7097L97.6133 36.3273L97.6449 36.1361L97.7115 35.9774V35.7537L97.7431 35.5626L97.8071 35.1793L97.8702 34.3199V23.0384ZM112.348 23.0384V32.9492L112.443 35.3398H112.348L103.906 23.0384H100.567V41.106H103.713V30.3358L103.616 27.9784L112.733 41.106H115.428V23.0384H112.348ZM136.969 41.106V23.0384H133.822V41.106H136.969ZM139.793 41.106H150V38.3023H142.939V23.0384H139.793V41.106ZM103.425 4.49365V1.65749H88.6269V4.49365H94.4682V19.6611H97.5818V4.49365H103.425ZM78.74 9.84677L78.9338 9.49598L79.1258 9.17763L79.2538 8.82684L79.4151 8.50849V8.28487H79.4467L79.5099 8.09369L79.6063 7.71133V7.48856L79.6396 7.29653V7.07377L79.6695 6.88258L79.6396 6.34147L79.573 5.83108L79.4783 5.35312L79.3486 4.90674L79.1249 4.46121L78.868 4.04728L78.5796 3.63333L78.2262 3.25011L77.808 2.86774L77.3283 2.54939L76.7812 2.26262L76.2043 2.07143L75.5309 1.88025L74.8242 1.75308L74.0219 1.65749H67.089V19.662H70.2349V12.7145H73.0592L73.4449 12.7469L73.8614 13.0337L74.2788 13.5117L74.7277 14.1808L77.4888 19.662H81.053L77.8737 13.5117L77.3915 12.7145L77.0066 12.141L76.6216 11.727L76.3332 11.5043L76.3963 11.4402V11.4078H76.4928L76.6848 11.3447L77.0381 11.2175L77.3599 11.0254L77.6817 10.8658L77.9369 10.6106L78.0666 10.4835L78.1298 10.4195V10.3879H78.2262L78.4831 10.1011L78.74 9.84677ZM75.8194 5.28996L76.1078 5.64075L76.3647 6.08627L76.4928 6.56508L76.5576 7.17021L76.5243 7.42455L76.4928 7.55172V7.71133L76.3963 7.96652L76.3332 8.25244L76.0763 8.69882L75.9149 8.89085L75.8518 8.92243L75.8202 8.98559L75.7553 9.11362L75.4984 9.27322L75.3713 9.33723L75.3073 9.36967L75.2748 9.43282L74.9855 9.56L74.7286 9.68716L74.3752 9.75118L74.0535 9.84677L73.6685 9.8792L73.2836 9.91078H70.2341V4.4945H73.4116L74.1499 4.52608L74.7917 4.68568L75.338 4.9093L75.5616 5.06891L75.8194 5.28996ZM10.3998 0L9.27663 0.064016L8.24903 0.223616L7.25385 0.477955L6.32354 0.828744L5.39238 1.24269L4.55766 1.75308L3.75538 2.32662L3.04954 3.0282L2.3437 3.72892L1.73345 4.52523L1.21964 5.35397L0.802286 6.27746L0.449792 7.20179L0.22447 8.19014L0.0640128 9.20921L0 10.3247V10.8351L0.0640128 11.3762L0.22447 12.397L0.449792 13.3521L0.802286 14.3071L1.21964 15.1683L1.44411 15.5823L1.73345 16.0286L2.3437 16.8258L2.66376 17.2073L3.04954 17.6221L3.75538 18.2588L4.55766 18.8648L5.39238 19.3743L6.32354 19.8207L7.25385 20.1391L8.24903 20.3943L9.27663 20.5539L10.3998 20.681L10.9136 20.617L11.4599 20.5539L12.4866 20.3943L13.4494 20.1391L14.4121 19.8207L14.605 19.6935L14.7014 19.6287L14.8295 19.5979L15.2793 19.3743L15.6966 19.12L16.1456 18.8648L16.5305 18.5464L16.7234 18.3868L16.9478 18.2588L17.3336 17.9405L17.751 17.6221L18.0719 17.2073L18.3928 16.8258L18.5217 16.6013L18.6821 16.4119L19.0031 16.0286L19.2275 15.5823L19.4844 15.1683L19.7089 14.7219L19.7405 14.5948L19.8045 14.4992L19.9334 14.3071L20.2543 13.3521L20.5112 12.397L20.6401 11.3762V11.0895L20.6716 10.8351L20.7357 10.3247L20.6401 9.20921L20.5112 8.19014L20.2543 7.20179L19.9334 6.27746L19.4844 5.35397L19.0031 4.52523L18.3928 3.72892L17.751 3.0282L17.3336 2.64498L16.9478 2.32662L16.5305 2.00828L16.1456 1.75308L15.6966 1.46631L15.2793 1.24269L14.4121 0.828744L13.4494 0.477955L12.4866 0.223616L11.4599 0.064016L10.9136 0H10.3998ZM43.0127 10.3247L42.9171 9.20921L42.7567 8.19014L42.4998 7.20179L42.2104 6.27746L41.7615 5.35397L41.2801 4.52523L40.6699 3.72892L40.0281 3.0282L39.6107 2.64498L39.2249 2.32662L38.8084 2.00828L38.4226 1.75308L37.9737 1.46631L37.5563 1.24269L36.6892 0.828744L35.7264 0.477955L34.7637 0.223616L33.7369 0.064016L33.1907 0H32.6769L31.5528 0.064016L30.5269 0.223616L29.5318 0.477955L28.6006 0.828744L27.6694 1.24269L26.8347 1.75308L26.0324 2.32662L25.3266 3.0282L24.6208 3.72892L24.0097 4.52523L23.4967 5.35397L23.0785 6.27746L22.726 7.20179L22.47 8.19014L22.3095 9.20921L22.2446 10.3247V10.8351L22.3095 11.3762L22.47 12.397L22.726 13.3521L23.0785 14.3071L23.4967 15.1683L23.7212 15.5823L24.0097 16.0286L24.6208 16.8258L24.9408 17.2073L25.3266 17.6221L26.0324 18.2588L26.8347 18.8648L27.6694 19.3743L28.6006 19.8207L29.5318 20.1391L30.5269 20.3943L31.5528 20.5539L32.6769 20.681L33.1907 20.617L33.7369 20.5539L34.7637 20.3943L35.7264 20.1391L36.6892 19.8207L36.8821 19.6935L36.9777 19.6287L37.1065 19.5979L37.5563 19.3743L37.9737 19.12L38.4226 18.8648L38.8084 18.5464L39.0004 18.3868L39.2249 18.2588L39.6107 17.9405L40.0281 17.6221L40.349 17.2073L40.6699 16.8258L40.7988 16.6013L40.9584 16.4119L41.2801 16.0286L41.5046 15.5823L41.7615 15.1683L41.986 14.7219L42.0184 14.5948L42.0824 14.4992L42.2104 14.3071L42.4998 13.3521L42.7567 12.397L42.9171 11.3762V11.0895L42.9487 10.8351L43.0127 10.3247ZM20.7357 32.4396L20.6401 31.3233L20.5112 30.305L20.2543 29.3158L19.9334 28.3924L19.4844 27.4689L19.0031 26.6401L18.3928 25.8438L17.751 25.1414L17.3336 24.7599L16.9478 24.4415L16.1456 23.8355L15.6966 23.5488L15.2793 23.3252L14.4121 22.9112L13.4494 22.5613L12.4866 22.3377L11.4599 22.1798L10.9136 22.114H10.3998L9.27663 22.1798L8.24903 22.3377L7.25385 22.5613L6.32354 22.9112L5.39238 23.3252L4.55766 23.8355L3.75538 24.4415L3.04954 25.1414L2.3437 25.8438L1.73345 26.6401L1.21964 27.4689L0.802286 28.3924L0.449792 29.3158L0.22447 30.305L0.0640128 31.3233L0 32.4396V32.9492L0.0640128 33.4911L0.22447 34.5111L0.449792 35.467L0.802286 36.4229L1.21964 37.2832L1.44411 37.6972L1.73345 38.1435L2.3437 38.9398L2.66376 39.3231L3.04954 39.737L3.75538 40.3729L4.55766 40.9788L5.39238 41.4576L6.32354 41.9032L7.25385 42.2224L8.24903 42.4767L9.27663 42.6047L10.3998 42.7003L10.9136 42.6355L11.1705 42.6047H11.4599L12.4866 42.4767L13.4494 42.2224L14.4121 41.9032L14.605 41.7769L14.7014 41.712L14.8295 41.6796L15.2793 41.4576L15.6966 41.2033L16.1456 40.9788L16.5305 40.6605L16.7234 40.5009L16.9478 40.3729L17.3336 40.0554L17.751 39.737L18.0719 39.3231L18.3928 38.9398L18.5217 38.7171L18.6821 38.5259L19.0031 38.1435L19.2275 37.6972L19.4844 37.2832L19.7089 36.836L19.7405 36.7097L19.8045 36.6149L19.9334 36.4229L20.2543 35.467L20.5112 34.5111L20.6401 33.4911V33.2044L20.6716 32.9492L20.7357 32.4396ZM43.0127 32.4396L42.9171 31.3233L42.7567 30.305L42.4998 29.3158L42.2104 28.3924L41.7615 27.4689L41.2801 26.6401L40.6699 25.8438L40.0281 25.1414L39.6107 24.7599L39.2249 24.4415L38.4226 23.8355L37.9737 23.5488L37.5563 23.3252L36.6892 22.9112L35.7264 22.5613L34.7637 22.3377L33.7369 22.1798L33.1907 22.114H32.6769L31.5528 22.1798L30.5269 22.3377L29.5318 22.5613L28.6006 22.9112L27.6694 23.3252L26.8347 23.8355L26.0324 24.4415L25.3266 25.1414L24.6208 25.8438L24.0097 26.6401L23.4967 27.4689L23.0785 28.3924L22.726 29.3158L22.47 30.305L22.3095 31.3233L22.2446 32.4396V32.9492L22.3095 33.4911L22.47 34.5111L22.726 35.467L23.0785 36.4229L23.4967 37.2832L23.7212 37.6972L24.0097 38.1435L24.6208 38.9398L24.9408 39.3231L25.3266 39.737L26.0324 40.3729L26.8347 40.9788L27.6694 41.4576L28.6006 41.9032L29.5318 42.2224L30.5269 42.4767L31.5528 42.6047L32.6769 42.7003L33.1907 42.6355L33.4468 42.6047H33.7369L34.7637 42.4767L35.7264 42.2224L36.6892 41.9032L36.8821 41.7769L36.9777 41.712L37.1065 41.6796L37.5563 41.4576L37.9737 41.2033L38.4226 40.9788L38.8084 40.6605L39.0004 40.5009L39.2249 40.3729L39.6107 40.0554L40.0281 39.737L40.349 39.3231L40.6699 38.9398L40.7988 38.7171L40.9584 38.5259L41.2801 38.1435L41.5046 37.6972L41.7615 37.2832L41.986 36.836L42.0184 36.7097L42.0824 36.6149L42.2104 36.4229L42.4998 35.467L42.7567 34.5111L42.9171 33.4911V33.2044L42.9487 32.9492L43.0127 32.4396Z" fill="#202124"/>
</svg>
