<svg width="160" height="40" viewBox="0 0 160 40" fill="none" xmlns="http://www.w3.org/2000/svg">
<path d="M9.96111 17.3772C9.81201 17.7251 9.61817 18.068 9.37961 18.406C9.15098 18.734 8.87265 19.0322 8.54462 19.3006C8.21659 19.5591 7.83389 19.7728 7.39651 19.9418C6.95914 20.1008 6.45716 20.1803 5.89056 20.1803C5.15498 20.1803 4.48401 20.061 3.87765 19.8225C3.27129 19.574 2.74942 19.2261 2.31205 18.7787C1.88462 18.3215 1.55162 17.7748 1.31305 17.1386C1.07448 16.5024 0.9552 15.7867 0.9552 14.9915C0.9552 14.2261 1.08442 13.5153 1.34287 12.8593C1.61126 12.1933 1.97905 11.6217 2.44625 11.1446C2.92338 10.6575 3.48004 10.2748 4.11622 9.99648C4.76234 9.71815 5.45816 9.57899 6.20368 9.57899C6.41243 9.57899 6.62614 9.60384 6.84483 9.65354C7.06352 9.6933 7.27226 9.75295 7.47107 9.83247C7.66987 9.90205 7.85377 9.98654 8.02275 10.0859C8.20168 10.1853 8.34581 10.2848 8.45516 10.3842L8.90247 9.62372H9.5138L9.57344 13.3066H9.21559C9.07643 12.8792 8.90744 12.4666 8.70863 12.069C8.51977 11.6714 8.2812 11.3185 7.99293 11.0104C7.7146 10.7022 7.38658 10.4587 7.00884 10.2798C6.64105 10.1009 6.21859 10.0114 5.74146 10.0114C5.36372 10.0114 4.99096 10.1058 4.62317 10.2947C4.26532 10.4836 3.94723 10.7768 3.6689 11.1744C3.39057 11.572 3.16692 12.079 2.99793 12.6953C2.82895 13.3016 2.74445 14.0273 2.74445 14.8722C2.74445 15.5481 2.83889 16.1644 3.02775 16.7211C3.21662 17.2778 3.47507 17.7549 3.8031 18.1525C4.13113 18.5501 4.50886 18.8583 4.93629 19.0769C5.37366 19.2956 5.83589 19.405 6.32296 19.405C6.78022 19.405 7.17783 19.3503 7.5158 19.241C7.85377 19.1316 8.15198 18.9775 8.41043 18.7787C8.66887 18.5799 8.88756 18.3463 9.06649 18.0779C9.25535 17.7996 9.42434 17.4964 9.57344 17.1684L9.96111 17.3772Z" fill="#202124"/>
<path d="M19.3297 14.8424C19.3297 14.236 19.265 13.6446 19.1358 13.068C19.0165 12.4816 18.8227 11.9647 18.5543 11.5173C18.2859 11.0601 17.933 10.6923 17.4957 10.414C17.0682 10.1356 16.5464 9.99648 15.9301 9.99648C15.4032 9.99648 14.9261 10.1108 14.4987 10.3394C14.0812 10.5581 13.7233 10.8762 13.4251 11.2937C13.1368 11.7112 12.9132 12.2231 12.7541 12.8295C12.5951 13.4358 12.5156 14.1267 12.5156 14.902C12.5156 15.568 12.5852 16.1943 12.7243 16.7807C12.8635 17.3672 13.0722 17.8791 13.3506 18.3165C13.6289 18.7539 13.9818 19.1018 14.4092 19.3602C14.8366 19.6088 15.3436 19.733 15.9301 19.733C16.5066 19.733 17.0086 19.6088 17.436 19.3602C17.8635 19.1117 18.2163 18.7688 18.4947 18.3314C18.773 17.8941 18.9817 17.3772 19.1209 16.7807C19.2601 16.1843 19.3297 15.5382 19.3297 14.8424ZM21.1338 14.7976C21.1338 15.573 21.0096 16.2937 20.7611 16.9597C20.5225 17.6257 20.1298 18.2271 19.5831 18.7638C19.0961 19.2111 18.5493 19.564 17.943 19.8225C17.3366 20.071 16.6458 20.1952 15.8704 20.1952C15.1845 20.1952 14.5384 20.0759 13.9321 19.8374C13.3357 19.5988 12.7939 19.2509 12.3068 18.7936C11.8098 18.3265 11.4172 17.7797 11.1289 17.1535C10.8506 16.5173 10.7114 15.7917 10.7114 14.9766C10.7114 13.3464 11.1935 12.0492 12.1577 11.0849C12.6647 10.5681 13.2362 10.1804 13.8724 9.92193C14.5185 9.66348 15.2044 9.53426 15.9301 9.53426C16.6358 9.53426 17.3018 9.65851 17.9281 9.90702C18.5543 10.1456 19.1507 10.5382 19.7173 11.0849C20.1646 11.5323 20.5125 12.079 20.7611 12.7251C21.0096 13.3712 21.1338 14.0621 21.1338 14.7976Z" fill="#202124"/>
<path d="M33.5004 10.1009C33.4308 10.1009 33.3314 10.1158 33.2022 10.1456C33.073 10.1655 32.9388 10.1953 32.7996 10.2351C32.6604 10.2748 32.5263 10.3146 32.397 10.3543C32.2777 10.3941 32.1883 10.4339 32.1286 10.4736C31.9298 10.6028 31.7956 10.8464 31.7261 11.2042C31.6664 11.5521 31.6366 11.9746 31.6366 12.4716V20.061H31.0849L24.405 11.6515V17.1088C24.405 17.6754 24.4448 18.1227 24.5243 18.4507C24.6138 18.7787 24.743 19.0123 24.912 19.1515C24.9716 19.2012 25.071 19.2559 25.2102 19.3155C25.3593 19.3652 25.5134 19.4149 25.6724 19.4646C25.8315 19.5044 25.9806 19.5441 26.1197 19.5839C26.2688 19.6137 26.3782 19.6286 26.4478 19.6286V19.9567H21.9746V19.6286C22.0442 19.6286 22.1436 19.6137 22.2728 19.5839C22.412 19.5441 22.5561 19.5044 22.7052 19.4646C22.8543 19.4249 22.9885 19.3851 23.1078 19.3453C23.237 19.2956 23.3215 19.2559 23.3613 19.2261C23.5402 19.0968 23.6645 18.8732 23.7341 18.5551C23.8136 18.2271 23.8533 17.7698 23.8533 17.1833V11.9348C23.8533 11.7162 23.8086 11.4975 23.7191 11.2788C23.6396 11.0502 23.5253 10.8762 23.3762 10.7569C23.2867 10.6873 23.1724 10.6178 23.0333 10.5482C22.8941 10.4686 22.745 10.3991 22.586 10.3394C22.4368 10.2698 22.2877 10.2152 22.1386 10.1754C21.9995 10.1257 21.8802 10.1009 21.7808 10.1009V9.77283H24.8523L31.0849 17.6157V12.5611C31.0849 12.0243 31.0402 11.582 30.9507 11.2341C30.8712 10.8861 30.7469 10.6575 30.578 10.5482C30.5084 10.5084 30.404 10.4637 30.2648 10.414C30.1356 10.3543 29.9915 10.3046 29.8324 10.2649C29.6833 10.2152 29.5392 10.1754 29.4 10.1456C29.2609 10.1158 29.1466 10.1009 29.0571 10.1009V9.77283H33.5004V10.1009Z" fill="#202124"/>
<path d="M42.6574 14.9169C42.6574 14.241 42.558 13.6148 42.3592 13.0382C42.1604 12.4617 41.8821 11.9647 41.5242 11.5472C41.1664 11.1197 40.729 10.7867 40.2121 10.5482C39.7051 10.3096 39.1385 10.1903 38.5123 10.1903C38.4228 10.1903 38.3185 10.1903 38.1992 10.1903C38.0898 10.1903 37.9755 10.1953 37.8562 10.2052C37.737 10.2052 37.6177 10.2102 37.4984 10.2201C37.389 10.2201 37.2946 10.2201 37.2151 10.2201V18.3762C37.2648 18.7439 37.4039 19.0272 37.6326 19.2261C37.8612 19.4249 38.2638 19.5243 38.8403 19.5243C39.4964 19.5243 40.063 19.4099 40.5401 19.1813C41.0173 18.9527 41.4099 18.6346 41.718 18.2271C42.0361 17.8195 42.2697 17.3374 42.4188 16.7807C42.5779 16.2141 42.6574 15.5929 42.6574 14.9169ZM44.4914 14.9318C44.4914 15.7966 44.3174 16.5471 43.9695 17.1833C43.6315 17.8195 43.1842 18.3414 42.6276 18.7489C42.0809 19.1565 41.4546 19.4596 40.7489 19.6585C40.053 19.8573 39.3473 19.9567 38.6316 19.9567H34.069V19.6286C34.1386 19.6286 34.228 19.6237 34.3374 19.6137C34.4467 19.6038 34.5511 19.5938 34.6505 19.5839C34.7598 19.564 34.8592 19.5491 34.9487 19.5392C35.0481 19.5193 35.1227 19.4994 35.1724 19.4795C35.3513 19.4099 35.4706 19.3155 35.5302 19.1962C35.5998 19.067 35.6346 18.9179 35.6346 18.7489V11.0999C35.6346 10.9309 35.5998 10.7818 35.5302 10.6525C35.4706 10.5233 35.3513 10.4189 35.1724 10.3394C34.9934 10.2599 34.8095 10.2052 34.6207 10.1754C34.4318 10.1356 34.2678 10.1108 34.1286 10.1009V9.77283H38.9298C39.2678 9.77283 39.6405 9.80762 40.0481 9.8772C40.4556 9.93684 40.8632 10.0462 41.2707 10.2052C41.6882 10.3543 42.0908 10.5581 42.4785 10.8166C42.8661 11.075 43.2091 11.3981 43.5073 11.7857C43.8055 12.1635 44.0441 12.6158 44.223 13.1426C44.4019 13.6595 44.4914 14.2559 44.4914 14.9318Z" fill="#202124"/>
<path d="M54.4411 19.9567H45.6141V19.6286C45.6837 19.6286 45.7731 19.6237 45.8825 19.6137C45.9918 19.5938 46.1012 19.5789 46.2105 19.569C46.3298 19.5491 46.4391 19.5292 46.5385 19.5093C46.6479 19.4895 46.7324 19.4696 46.792 19.4497C46.9709 19.3801 47.0902 19.2857 47.1499 19.1664C47.2195 19.0372 47.2542 18.8881 47.2542 18.7191V11.0999C47.2542 10.9309 47.2244 10.7867 47.1648 10.6675C47.1051 10.5482 46.9809 10.4488 46.792 10.3692C46.7224 10.3394 46.633 10.3096 46.5236 10.2798C46.4143 10.25 46.3049 10.2251 46.1956 10.2052C46.0863 10.1754 45.9769 10.1506 45.8676 10.1307C45.7682 10.1108 45.6837 10.1009 45.6141 10.1009V9.77283H53.8298V12.0839H53.4272C53.3874 11.9249 53.3079 11.741 53.1886 11.5323C53.0793 11.3235 52.95 11.1297 52.8009 10.9508C52.6518 10.7619 52.4928 10.6028 52.3238 10.4736C52.1548 10.3345 51.9908 10.2549 51.8318 10.2351C51.6528 10.2152 51.459 10.2003 51.2502 10.1903C51.0514 10.1804 50.8328 10.1754 50.5942 10.1754H48.8348V14.4696H50.132C50.5494 14.4696 50.8377 14.4149 50.9968 14.3056C51.1658 14.1963 51.295 14.0969 51.3844 14.0074C51.4441 13.9478 51.4988 13.8633 51.5485 13.7539C51.5982 13.6446 51.6429 13.5253 51.6826 13.3961C51.7224 13.2569 51.7572 13.1227 51.787 12.9935C51.8168 12.8543 51.8367 12.735 51.8467 12.6356H52.2492V16.7956H51.8467C51.8367 16.6863 51.8168 16.5621 51.787 16.4229C51.7572 16.2738 51.7174 16.1296 51.6677 15.9905C51.628 15.8414 51.5783 15.7122 51.5186 15.6028C51.4689 15.4835 51.4242 15.399 51.3844 15.3493C51.3347 15.2996 51.2801 15.2499 51.2204 15.2002C51.1608 15.1406 51.0813 15.0909 50.9819 15.0511C50.8924 15.0014 50.7781 14.9617 50.6389 14.9318C50.4998 14.902 50.3308 14.8871 50.132 14.8871H48.8348V18.1674C48.8348 18.4756 48.8546 18.7191 48.8944 18.898C48.9441 19.0769 49.0286 19.2161 49.1479 19.3155C49.2771 19.405 49.456 19.4646 49.6846 19.4944C49.9232 19.5143 50.2314 19.5243 50.6091 19.5243C50.8675 19.5243 51.121 19.5243 51.3695 19.5243C51.628 19.5243 51.8665 19.5143 52.0852 19.4944C52.3039 19.4746 52.4978 19.4398 52.6667 19.3901C52.8357 19.3404 52.965 19.2708 53.0544 19.1813C53.1638 19.062 53.283 18.908 53.4123 18.7191C53.5415 18.5302 53.6608 18.3364 53.7701 18.1376C53.8795 17.9288 53.9789 17.73 54.0683 17.5412C54.1578 17.3523 54.2224 17.2032 54.2622 17.0939H54.6349L54.4411 19.9567ZM52.13 6.77583C52.13 6.96469 52.0852 7.1138 51.9958 7.22314C51.9063 7.33248 51.7721 7.45674 51.5932 7.5959C51.4838 7.68536 51.3596 7.7798 51.2204 7.8792C51.0912 7.9786 50.9371 8.09292 50.7582 8.22214C50.5892 8.35136 50.3904 8.50544 50.1618 8.68436C49.9431 8.85335 49.6847 9.05712 49.3864 9.29569L49.1777 9.11677C49.3666 8.83844 49.5306 8.58993 49.6697 8.37124C49.8188 8.15256 49.9481 7.95375 50.0574 7.77483C50.1767 7.5959 50.2811 7.43189 50.3705 7.28278C50.46 7.13368 50.5445 6.98954 50.624 6.85038C50.7632 6.60187 50.9023 6.43289 51.0415 6.34342C51.1807 6.25396 51.3447 6.20923 51.5335 6.20923C51.7025 6.20923 51.8417 6.26887 51.951 6.38815C52.0703 6.50744 52.13 6.63666 52.13 6.77583Z" fill="#202124"/>
<path d="M70.296 10.1009C70.2264 10.1009 70.127 10.1158 69.9978 10.1456C69.8686 10.1655 69.7344 10.1953 69.5952 10.2351C69.4561 10.2748 69.3219 10.3146 69.1926 10.3543C69.0734 10.3941 68.9839 10.4339 68.9243 10.4736C68.7254 10.6028 68.5913 10.8464 68.5217 11.2042C68.462 11.5521 68.4322 11.9746 68.4322 12.4716V20.061H67.8805L61.2006 11.6515V17.1088C61.2006 17.6754 61.2404 18.1227 61.3199 18.4507C61.4094 18.7787 61.5386 19.0123 61.7076 19.1515C61.7672 19.2012 61.8666 19.2559 62.0058 19.3155C62.1549 19.3652 62.309 19.4149 62.468 19.4646C62.6271 19.5044 62.7762 19.5441 62.9153 19.5839C63.0644 19.6137 63.1738 19.6286 63.2434 19.6286V19.9567H58.7702V19.6286C58.8398 19.6286 58.9392 19.6137 59.0684 19.5839C59.2076 19.5441 59.3517 19.5044 59.5008 19.4646C59.65 19.4249 59.7841 19.3851 59.9034 19.3453C60.0327 19.2956 60.1171 19.2559 60.1569 19.2261C60.3358 19.0968 60.4601 18.8732 60.5297 18.5551C60.6092 18.2271 60.649 17.7698 60.649 17.1833V11.9348C60.649 11.7162 60.6042 11.4975 60.5148 11.2788C60.4352 11.0502 60.3209 10.8762 60.1718 10.7569C60.0824 10.6873 59.968 10.6178 59.8289 10.5482C59.6897 10.4686 59.5406 10.3991 59.3816 10.3394C59.2325 10.2698 59.0834 10.2152 58.9342 10.1754C58.7951 10.1257 58.6758 10.1009 58.5764 10.1009V9.77283H61.648L67.8805 17.6157V12.5611C67.8805 12.0243 67.8358 11.582 67.7463 11.2341C67.6668 10.8861 67.5426 10.6575 67.3736 10.5482C67.304 10.5084 67.1996 10.4637 67.0604 10.414C66.9312 10.3543 66.7871 10.3046 66.628 10.2649C66.4789 10.2152 66.3348 10.1754 66.1956 10.1456C66.0565 10.1158 65.9422 10.1009 65.8527 10.1009V9.77283H70.296V10.1009Z" fill="#202124"/>
<path d="M74.5694 11.6963L72.9441 15.8563H76.2244L74.5694 11.6963ZM75.8964 19.9567V19.6286C76.0256 19.6187 76.1747 19.6038 76.3437 19.5839C76.5226 19.5541 76.6867 19.5143 76.8358 19.4646C76.9948 19.4149 77.129 19.3553 77.2383 19.2857C77.3477 19.2161 77.4024 19.1366 77.4024 19.0471C77.4024 18.9278 77.3825 18.8135 77.3427 18.7042L76.4183 16.3483H72.7503C72.6111 16.6962 72.4919 16.9994 72.3924 17.2579C72.303 17.5163 72.2235 17.7599 72.1539 17.9885C72.0445 18.3364 71.9899 18.6147 71.9899 18.8235C71.9899 18.9626 72.0495 19.0819 72.1688 19.1813C72.298 19.2708 72.4521 19.3503 72.631 19.4199C72.8099 19.4795 72.9938 19.5292 73.1827 19.569C73.3815 19.5988 73.5455 19.6187 73.6747 19.6286V19.9567H69.5744V19.6286C69.7135 19.6187 69.8875 19.5889 70.0962 19.5392C70.305 19.4895 70.4789 19.4249 70.6181 19.3453C70.797 19.236 70.9561 19.0819 71.0952 18.8831C71.2344 18.6744 71.3587 18.4408 71.468 18.1823C71.7364 17.5461 72.0098 16.8752 72.2881 16.1694C72.5763 15.4537 72.8646 14.733 73.1529 14.0074C73.4411 13.2718 73.7294 12.5362 74.0177 11.8006C74.3159 11.0551 74.6091 10.3245 74.8974 9.60881H75.464C75.8417 10.573 76.2095 11.5223 76.5674 12.4567C76.9352 13.3812 77.2731 14.246 77.5813 15.0511C77.8994 15.8463 78.1777 16.5571 78.4163 17.1833C78.6648 17.7996 78.8586 18.2817 78.9978 18.6296C79.0574 18.7787 79.127 18.9129 79.2065 19.0322C79.296 19.1416 79.4302 19.2509 79.6091 19.3602C79.7483 19.4398 79.9123 19.5044 80.1012 19.5541C80.29 19.5938 80.454 19.6187 80.5932 19.6286V19.9567H75.8964Z" fill="#202124"/>
<path d="M87.8312 17.0491C87.8312 17.5064 87.7467 17.9239 87.5777 18.3016C87.4087 18.6793 87.1701 19.0074 86.862 19.2857C86.5638 19.5541 86.2059 19.7678 85.7884 19.9268C85.3809 20.0759 84.9385 20.1505 84.4614 20.1505C83.8551 20.1505 83.3531 20.071 82.9555 19.9119C82.5578 19.7529 82.2447 19.5839 82.0161 19.405L81.4942 20.1058H80.9873L80.8829 16.6167H81.2258C81.3749 17.0143 81.5489 17.397 81.7477 17.7648C81.9565 18.1326 82.195 18.4606 82.4634 18.7489C82.7417 19.0372 83.0549 19.2708 83.4028 19.4497C83.7606 19.6187 84.1731 19.7032 84.6403 19.7032C85.3063 19.7032 85.7884 19.5342 86.0867 19.1962C86.3849 18.8483 86.534 18.3911 86.534 17.8245C86.534 17.3672 86.3998 16.9746 86.1314 16.6465C85.8729 16.3086 85.5201 16.0501 85.0727 15.8712C84.864 15.7817 84.6702 15.7072 84.4912 15.6475C84.3223 15.578 84.1582 15.5133 83.9992 15.4537C83.8401 15.3841 83.6761 15.3145 83.5071 15.245C83.3382 15.1654 83.1493 15.0809 82.9405 14.9915C82.364 14.733 81.9266 14.3951 81.6284 13.9776C81.3302 13.5501 81.1811 13.0034 81.1811 12.3374C81.1811 11.9398 81.2557 11.577 81.4048 11.249C81.5539 10.911 81.7626 10.6178 82.031 10.3692C82.2994 10.1207 82.6125 9.9269 82.9704 9.78774C83.3382 9.64857 83.7358 9.57899 84.1632 9.57899C84.5509 9.57899 84.9385 9.65354 85.3262 9.80265C85.7238 9.95175 86.0519 10.1257 86.3103 10.3245L86.8173 9.62372H87.3242L87.3988 13.0084H87.0707C86.9216 12.5909 86.7576 12.2032 86.5787 11.8454C86.4097 11.4776 86.201 11.1595 85.9525 10.8911C85.7139 10.6227 85.4207 10.414 85.0727 10.2649C84.7248 10.1058 84.3024 10.0263 83.8054 10.0263C83.696 10.0263 83.5618 10.0512 83.4028 10.1009C83.2437 10.1506 83.0897 10.2351 82.9405 10.3543C82.7914 10.4736 82.6622 10.6327 82.5529 10.8315C82.4435 11.0203 82.3889 11.2589 82.3889 11.5472C82.3889 12.0044 82.5032 12.3772 82.7318 12.6655C82.9604 12.9438 83.2835 13.1973 83.701 13.4259C84.0688 13.6247 84.4117 13.7788 84.7298 13.8881C85.0578 13.9975 85.3908 14.1316 85.7288 14.2907C86.0469 14.4398 86.3352 14.5939 86.5936 14.7529C86.8521 14.902 87.0707 15.0809 87.2497 15.2897C87.4385 15.4984 87.5827 15.7469 87.6821 16.0352C87.7815 16.3135 87.8312 16.6515 87.8312 17.0491Z" fill="#202124"/>
<path d="M97.4764 12.3672C97.4366 12.2082 97.3571 12.0094 97.2378 11.7708C97.1285 11.5323 96.9992 11.3036 96.8501 11.0849C96.701 10.8663 96.537 10.6774 96.3581 10.5183C96.1891 10.3494 96.0251 10.2549 95.866 10.2351C95.6871 10.2152 95.4883 10.2003 95.2696 10.1903C95.0609 10.1804 94.8571 10.1754 94.6583 10.1754H93.9575V18.6296C93.9575 18.7986 93.9923 18.9477 94.0619 19.0769C94.1315 19.1962 94.2507 19.2956 94.4197 19.3752C94.4595 19.395 94.534 19.4199 94.6434 19.4497C94.7527 19.4696 94.867 19.4944 94.9863 19.5243C95.1155 19.5541 95.2398 19.5789 95.3591 19.5988C95.4784 19.6187 95.5728 19.6286 95.6424 19.6286V19.9567H90.6921V19.6286C90.7617 19.6286 90.8512 19.6237 90.9605 19.6137C91.0798 19.5938 91.1991 19.5789 91.3184 19.569C91.4476 19.5491 91.5669 19.5292 91.6762 19.5093C91.7856 19.4895 91.8651 19.4696 91.9148 19.4497C92.0937 19.3801 92.213 19.2807 92.2726 19.1515C92.3422 19.0223 92.377 18.8732 92.377 18.7042V10.1754H91.6762C91.5072 10.1754 91.3084 10.1804 91.0798 10.1903C90.8512 10.2003 90.6474 10.2152 90.4685 10.2351C90.3094 10.2549 90.1404 10.3494 89.9615 10.5183C89.7925 10.6774 89.6335 10.8663 89.4844 11.0849C89.3353 11.3036 89.2011 11.5323 89.0818 11.7708C88.9724 12.0094 88.8979 12.2082 88.8581 12.3672H88.5003V9.77283H97.8342V12.3672H97.4764Z" fill="#202124"/>
<path d="M9.96111 30.0293C9.81201 30.3772 9.61817 30.7202 9.37961 31.0582C9.15098 31.3862 8.87265 31.6844 8.54462 31.9528C8.21659 32.2112 7.83389 32.4249 7.39651 32.5939C6.95914 32.753 6.45716 32.8325 5.89056 32.8325C5.15498 32.8325 4.48401 32.7132 3.87765 32.4746C3.27129 32.2261 2.74942 31.8782 2.31205 31.4309C1.88462 30.9737 1.55162 30.4269 1.31305 29.7908C1.07448 29.1546 0.9552 28.4389 0.9552 27.6437C0.9552 26.8783 1.08442 26.1675 1.34287 25.5115C1.61126 24.8455 1.97905 24.2739 2.44625 23.7968C2.92338 23.3097 3.48004 22.927 4.11622 22.6487C4.76234 22.3703 5.45816 22.2312 6.20368 22.2312C6.41243 22.2312 6.62614 22.256 6.84483 22.3057C7.06352 22.3455 7.27226 22.4051 7.47107 22.4846C7.66987 22.5542 7.85377 22.6387 8.02275 22.7381C8.20168 22.8375 8.34581 22.9369 8.45516 23.0363L8.90247 22.2759H9.5138L9.57344 25.9588H9.21559C9.07643 25.5313 8.90744 25.1188 8.70863 24.7212C8.51977 24.3236 8.2812 23.9707 7.99293 23.6626C7.7146 23.3544 7.38658 23.1109 7.00884 22.932C6.64105 22.753 6.21859 22.6636 5.74146 22.6636C5.36372 22.6636 4.99096 22.758 4.62317 22.9469C4.26532 23.1357 3.94723 23.429 3.6689 23.8266C3.39057 24.2242 3.16692 24.7311 2.99793 25.3474C2.82895 25.9538 2.74445 26.6794 2.74445 27.5244C2.74445 28.2003 2.83889 28.8166 3.02775 29.3733C3.21662 29.9299 3.47507 30.4071 3.8031 30.8047C4.13113 31.2023 4.50886 31.5104 4.93629 31.7291C5.37366 31.9478 5.83589 32.0572 6.32296 32.0572C6.78022 32.0572 7.17783 32.0025 7.5158 31.8931C7.85377 31.7838 8.15198 31.6297 8.41043 31.4309C8.66887 31.2321 8.88756 30.9985 9.06649 30.7301C9.25535 30.4518 9.42434 30.1486 9.57344 29.8206L9.96111 30.0293Z" fill="#202124"/>
<path d="M19.3297 27.4946C19.3297 26.8882 19.265 26.2967 19.1358 25.7202C19.0165 25.1337 18.8227 24.6168 18.5543 24.1695C18.2859 23.7123 17.933 23.3445 17.4957 23.0661C17.0682 22.7878 16.5464 22.6487 15.9301 22.6487C15.4032 22.6487 14.9261 22.763 14.4987 22.9916C14.0812 23.2103 13.7233 23.5284 13.4251 23.9459C13.1368 24.3634 12.9132 24.8753 12.7541 25.4816C12.5951 26.088 12.5156 26.7789 12.5156 27.5542C12.5156 28.2202 12.5852 28.8464 12.7243 29.4329C12.8635 30.0194 13.0722 30.5313 13.3506 30.9687C13.6289 31.4061 13.9818 31.754 14.4092 32.0124C14.8366 32.2609 15.3436 32.3852 15.9301 32.3852C16.5066 32.3852 17.0086 32.2609 17.436 32.0124C17.8635 31.7639 18.2163 31.421 18.4947 30.9836C18.773 30.5462 18.9817 30.0293 19.1209 29.4329C19.2601 28.8365 19.3297 28.1904 19.3297 27.4946ZM21.1338 27.4498C21.1338 28.2252 21.0096 28.9458 20.7611 29.6118C20.5225 30.2778 20.1298 30.8792 19.5831 31.416C19.0961 31.8633 18.5493 32.2162 17.943 32.4746C17.3366 32.7232 16.6458 32.8474 15.8704 32.8474C15.1845 32.8474 14.5384 32.7281 13.9321 32.4896C13.3357 32.251 12.7939 31.9031 12.3068 31.4458C11.8098 30.9786 11.4172 30.4319 11.1289 29.8057C10.8506 29.1695 10.7114 28.4439 10.7114 27.6287C10.7114 25.9985 11.1935 24.7013 12.1577 23.7371C12.6647 23.2202 13.2362 22.8326 13.8724 22.5741C14.5185 22.3157 15.2044 22.1864 15.9301 22.1864C16.6358 22.1864 17.3018 22.3107 17.9281 22.5592C18.5543 22.7978 19.1507 23.1904 19.7173 23.7371C20.1646 24.1844 20.5125 24.7311 20.7611 25.3773C21.0096 26.0234 21.1338 26.7142 21.1338 27.4498Z" fill="#202124"/>
<path d="M30.8911 32.6088H22.3772V32.2808C22.4468 32.2808 22.5313 32.2758 22.6307 32.2659C22.7301 32.256 22.8295 32.246 22.9289 32.2361C23.0382 32.2162 23.1376 32.1963 23.2271 32.1764C23.3265 32.1566 23.4011 32.1367 23.4508 32.1168C23.6297 32.0472 23.749 31.9478 23.8086 31.8186C23.8782 31.6894 23.913 31.5403 23.913 31.3713V23.7819C23.913 23.6129 23.8832 23.4687 23.8235 23.3494C23.7639 23.2202 23.6396 23.1159 23.4508 23.0363C23.3116 22.9767 23.1327 22.917 22.914 22.8574C22.6953 22.7978 22.5164 22.763 22.3772 22.753V22.425H27.0442V22.753C26.905 22.763 26.7211 22.7878 26.4925 22.8276C26.2738 22.8673 26.0949 22.9121 25.9557 22.9618C25.7668 23.0214 25.6426 23.1208 25.583 23.26C25.5233 23.3892 25.4935 23.5383 25.4935 23.7073V30.8345C25.4935 31.1526 25.5084 31.4061 25.5382 31.5949C25.578 31.7739 25.6575 31.908 25.7768 31.9975C25.8961 32.087 26.07 32.1466 26.2987 32.1764C26.5372 32.1963 26.8603 32.2063 27.2678 32.2063C27.4865 32.2063 27.7052 32.2013 27.9239 32.1913C28.1525 32.1814 28.3662 32.1615 28.565 32.1317C28.7738 32.1019 28.9527 32.0621 29.1018 32.0124C29.2609 31.9627 29.3801 31.8981 29.4597 31.8186C29.5591 31.7192 29.6734 31.575 29.8026 31.3862C29.9418 31.1973 30.071 31.0035 30.1903 30.8047C30.3195 30.5959 30.4338 30.3971 30.5332 30.2083C30.6426 30.0094 30.7171 29.8454 30.7569 29.7162H31.1147L30.8911 32.6088Z" fill="#202124"/>
<path d="M40.2684 32.6088H31.7545V32.2808C31.8241 32.2808 31.9086 32.2758 32.008 32.2659C32.1074 32.256 32.2068 32.246 32.3062 32.2361C32.4155 32.2162 32.5149 32.1963 32.6044 32.1764C32.7038 32.1566 32.7783 32.1367 32.828 32.1168C33.007 32.0472 33.1262 31.9478 33.1859 31.8186C33.2555 31.6894 33.2903 31.5403 33.2903 31.3713V23.7819C33.2903 23.6129 33.2604 23.4687 33.2008 23.3494C33.1412 23.2202 33.0169 23.1159 32.828 23.0363C32.6889 22.9767 32.5099 22.917 32.2913 22.8574C32.0726 22.7978 31.8936 22.763 31.7545 22.753V22.425H36.4215V22.753C36.2823 22.763 36.0984 22.7878 35.8698 22.8276C35.6511 22.8673 35.4722 22.9121 35.333 22.9618C35.1441 23.0214 35.0199 23.1208 34.9602 23.26C34.9006 23.3892 34.8708 23.5383 34.8708 23.7073V30.8345C34.8708 31.1526 34.8857 31.4061 34.9155 31.5949C34.9553 31.7739 35.0348 31.908 35.1541 31.9975C35.2733 32.087 35.4473 32.1466 35.6759 32.1764C35.9145 32.1963 36.2376 32.2063 36.6451 32.2063C36.8638 32.2063 37.0825 32.2013 37.3012 32.1913C37.5298 32.1814 37.7435 32.1615 37.9423 32.1317C38.1511 32.1019 38.33 32.0621 38.4791 32.0124C38.6381 31.9627 38.7574 31.8981 38.8369 31.8186C38.9364 31.7192 39.0507 31.575 39.1799 31.3862C39.3191 31.1973 39.4483 31.0035 39.5676 30.8047C39.6968 30.5959 39.8111 30.3971 39.9105 30.2083C40.0198 30.0094 40.0944 29.8454 40.1342 29.7162H40.492L40.2684 32.6088Z" fill="#202124"/>
<path d="M49.8544 32.6088H41.0274V32.2808C41.097 32.2808 41.1864 32.2758 41.2958 32.2659C41.4051 32.246 41.5145 32.2311 41.6238 32.2212C41.7431 32.2013 41.8524 32.1814 41.9518 32.1615C42.0612 32.1416 42.1457 32.1218 42.2053 32.1019C42.3842 32.0323 42.5035 31.9379 42.5632 31.8186C42.6327 31.6894 42.6675 31.5403 42.6675 31.3713V23.752C42.6675 23.583 42.6377 23.4389 42.5781 23.3196C42.5184 23.2003 42.3942 23.1009 42.2053 23.0214C42.1357 22.9916 42.0463 22.9618 41.9369 22.932C41.8276 22.9021 41.7182 22.8773 41.6089 22.8574C41.4995 22.8276 41.3902 22.8027 41.2809 22.7829C41.1815 22.763 41.097 22.753 41.0274 22.753V22.425H49.243V24.7361H48.8405C48.8007 24.5771 48.7212 24.3932 48.6019 24.1844C48.4925 23.9757 48.3633 23.7819 48.2142 23.6029C48.0651 23.4141 47.9061 23.255 47.7371 23.1258C47.5681 22.9866 47.4041 22.9071 47.245 22.8872C47.0661 22.8673 46.8723 22.8524 46.6635 22.8425C46.4647 22.8326 46.246 22.8276 46.0075 22.8276H44.248V27.1218H45.5452C45.9627 27.1218 46.251 27.0671 46.4101 26.9578C46.579 26.8484 46.7083 26.749 46.7977 26.6596C46.8574 26.5999 46.912 26.5154 46.9617 26.4061C47.0114 26.2967 47.0562 26.1775 47.0959 26.0482C47.1357 25.9091 47.1705 25.7749 47.2003 25.6457C47.2301 25.5065 47.25 25.3872 47.26 25.2878H47.6625V29.4478H47.26C47.25 29.3385 47.2301 29.2142 47.2003 29.0751C47.1705 28.926 47.1307 28.7818 47.081 28.6427C47.0413 28.4936 46.9916 28.3643 46.9319 28.255C46.8822 28.1357 46.8375 28.0512 46.7977 28.0015C46.748 27.9518 46.6934 27.9021 46.6337 27.8524C46.5741 27.7928 46.4946 27.7431 46.3951 27.7033C46.3057 27.6536 46.1914 27.6138 46.0522 27.584C45.913 27.5542 45.7441 27.5393 45.5452 27.5393H44.248V30.8196C44.248 31.1277 44.2679 31.3713 44.3077 31.5502C44.3574 31.7291 44.4419 31.8683 44.5612 31.9677C44.6904 32.0571 44.8693 32.1168 45.0979 32.1466C45.3365 32.1665 45.6447 32.1764 46.0224 32.1764C46.2808 32.1764 46.5343 32.1764 46.7828 32.1764C47.0413 32.1764 47.2798 32.1665 47.4985 32.1466C47.7172 32.1267 47.911 32.0919 48.08 32.0422C48.249 31.9925 48.3782 31.923 48.4677 31.8335C48.577 31.7142 48.6963 31.5601 48.8256 31.3713C48.9548 31.1824 49.0741 30.9886 49.1834 30.7898C49.2927 30.581 49.3921 30.3822 49.4816 30.1933C49.5711 30.0045 49.6357 29.8554 49.6754 29.746H50.0482L49.8544 32.6088Z" fill="#202124"/>
<path d="M61.6189 28.4488C61.4798 28.4687 61.3009 28.4936 61.0822 28.5234C60.8734 28.5532 60.6995 28.5979 60.5603 28.6576C60.3814 28.7371 60.2621 28.8464 60.2025 28.9856C60.1428 29.1148 60.113 29.2639 60.113 29.4329V32.8921L59.9192 32.9518L59.114 32.0422C58.8953 32.1218 58.6418 32.2112 58.3536 32.3106C58.0752 32.4001 57.777 32.4846 57.4589 32.5641C57.1408 32.6436 56.8128 32.7082 56.4748 32.7579C56.1468 32.8076 55.8287 32.8325 55.5206 32.8325C54.9739 32.8325 54.4271 32.7232 53.8804 32.5045C53.3437 32.2858 52.8566 31.9627 52.4192 31.5353C51.9818 31.1079 51.624 30.576 51.3456 29.9399C51.0773 29.3037 50.9431 28.5731 50.9431 27.748C50.9431 26.9727 51.0822 26.252 51.3606 25.586C51.6488 24.9101 52.0415 24.3236 52.5385 23.8266C53.0454 23.3296 53.6419 22.9419 54.3277 22.6636C55.0136 22.3753 55.7591 22.2312 56.5643 22.2312C56.7731 22.2312 56.9917 22.256 57.2204 22.3057C57.4589 22.3455 57.6826 22.4051 57.8913 22.4846C58.11 22.5542 58.3088 22.6387 58.4878 22.7381C58.6766 22.8375 58.8307 22.9369 58.95 23.0363L59.4271 22.2759H60.0086L60.0832 25.8544H59.7402C59.611 25.4469 59.4371 25.0542 59.2184 24.6765C59.0096 24.2888 58.7512 23.9459 58.443 23.6477C58.1349 23.3494 57.777 23.1109 57.3695 22.932C56.9619 22.753 56.4997 22.6636 55.9828 22.6636C55.5554 22.6636 55.1478 22.7729 54.7601 22.9916C54.3725 23.2003 54.0295 23.5135 53.7313 23.931C53.4331 24.3484 53.1945 24.8703 53.0156 25.4966C52.8466 26.1129 52.7621 26.8286 52.7621 27.6437C52.7621 28.3295 52.8466 28.9607 53.0156 29.5373C53.1945 30.1138 53.4331 30.6108 53.7313 31.0283C54.0395 31.4458 54.3924 31.7739 54.79 32.0124C55.1975 32.241 55.6349 32.3554 56.1021 32.3554C56.5096 32.3554 56.8675 32.3057 57.1756 32.2063C57.4838 32.0969 57.7422 31.9528 57.951 31.7739C58.1597 31.5949 58.3188 31.3961 58.4281 31.1774C58.5474 30.9488 58.6219 30.7152 58.6518 30.4766V29.5671C58.6518 29.3683 58.617 29.1943 58.5474 29.0452C58.4878 28.8862 58.3585 28.7669 58.1597 28.6874C58.0703 28.6576 57.9559 28.6277 57.8168 28.5979C57.6776 28.5681 57.5335 28.5433 57.3844 28.5234C57.2452 28.5035 57.111 28.4886 56.9818 28.4786C56.8526 28.4588 56.7532 28.4488 56.6836 28.4488V28.1059H61.6189V28.4488Z" fill="#202124"/>
<path d="M70.9096 32.6088H62.0826V32.2808C62.1522 32.2808 62.2416 32.2758 62.351 32.2659C62.4603 32.246 62.5696 32.2311 62.679 32.2212C62.7983 32.2013 62.9076 32.1814 63.007 32.1615C63.1164 32.1416 63.2009 32.1218 63.2605 32.1019C63.4394 32.0323 63.5587 31.9379 63.6183 31.8186C63.6879 31.6894 63.7227 31.5403 63.7227 31.3713V23.752C63.7227 23.583 63.6929 23.4389 63.6333 23.3196C63.5736 23.2003 63.4494 23.1009 63.2605 23.0214C63.1909 22.9916 63.1015 22.9618 62.9921 22.932C62.8828 22.9021 62.7734 22.8773 62.6641 22.8574C62.5547 22.8276 62.4454 22.8027 62.3361 22.7829C62.2366 22.763 62.1522 22.753 62.0826 22.753V22.425H70.2982V24.7361H69.8956C69.8559 24.5771 69.7764 24.3932 69.6571 24.1844C69.5477 23.9757 69.4185 23.7819 69.2694 23.6029C69.1203 23.4141 68.9613 23.255 68.7923 23.1258C68.6233 22.9866 68.4593 22.9071 68.3002 22.8872C68.1213 22.8673 67.9275 22.8524 67.7187 22.8425C67.5199 22.8326 67.3012 22.8276 67.0627 22.8276H65.3032V27.1218H66.6004C67.0179 27.1218 67.3062 27.0671 67.4652 26.9578C67.6342 26.8484 67.7635 26.749 67.8529 26.6596C67.9126 26.5999 67.9672 26.5154 68.0169 26.4061C68.0666 26.2967 68.1114 26.1775 68.1511 26.0482C68.1909 25.9091 68.2257 25.7749 68.2555 25.6457C68.2853 25.5065 68.3052 25.3872 68.3151 25.2878H68.7177V29.4478H68.3151C68.3052 29.3385 68.2853 29.2142 68.2555 29.0751C68.2257 28.926 68.1859 28.7818 68.1362 28.6427C68.0965 28.4936 68.0468 28.3643 67.9871 28.255C67.9374 28.1357 67.8927 28.0512 67.8529 28.0015C67.8032 27.9518 67.7486 27.9021 67.6889 27.8524C67.6293 27.7928 67.5497 27.7431 67.4503 27.7033C67.3609 27.6536 67.2466 27.6138 67.1074 27.584C66.9682 27.5542 66.7992 27.5393 66.6004 27.5393H65.3032V30.8196C65.3032 31.1277 65.3231 31.3713 65.3629 31.5502C65.4126 31.7291 65.4971 31.8683 65.6163 31.9677C65.7456 32.0571 65.9245 32.1168 66.1531 32.1466C66.3917 32.1665 66.6998 32.1764 67.0776 32.1764C67.336 32.1764 67.5895 32.1764 67.838 32.1764C68.0965 32.1764 68.335 32.1665 68.5537 32.1466C68.7724 32.1267 68.9662 32.0919 69.1352 32.0422C69.3042 31.9925 69.4334 31.923 69.5229 31.8335C69.6322 31.7142 69.7515 31.5601 69.8807 31.3713C70.01 31.1824 70.1292 30.9886 70.2386 30.7898C70.3479 30.581 70.4473 30.3822 70.5368 30.1933C70.6263 30.0045 70.6909 29.8554 70.7306 29.746H71.1034L70.9096 32.6088Z" fill="#202124"/>
<path d="M85.0149 24.3484L83.3897 28.5085H86.67L85.0149 24.3484ZM86.3419 32.6088V32.2808C86.4712 32.2709 86.6203 32.256 86.7893 32.2361C86.9682 32.2063 87.1322 32.1665 87.2813 32.1168C87.4403 32.0671 87.5745 32.0074 87.6839 31.9379C87.7932 31.8683 87.8479 31.7888 87.8479 31.6993C87.8479 31.58 87.828 31.4657 87.7883 31.3564L86.8638 29.0005H83.1958C83.0567 29.3484 82.9374 29.6516 82.838 29.91C82.7485 30.1685 82.669 30.412 82.5994 30.6407C82.4901 30.9886 82.4354 31.2669 82.4354 31.4756C82.4354 31.6148 82.495 31.7341 82.6143 31.8335C82.7436 31.923 82.8976 32.0025 83.0766 32.0721C83.2555 32.1317 83.4394 32.1814 83.6282 32.2212C83.827 32.251 83.9911 32.2709 84.1203 32.2808V32.6088H80.0199V32.2808C80.1591 32.2709 80.333 32.241 80.5418 32.1913C80.7505 32.1416 80.9245 32.077 81.0636 31.9975C81.2426 31.8882 81.4016 31.7341 81.5408 31.5353C81.6799 31.3265 81.8042 31.0929 81.9135 30.8345C82.1819 30.1983 82.4553 29.5273 82.7336 28.8216C83.0219 28.1059 83.3102 27.3852 83.5984 26.6596C83.8867 25.924 84.175 25.1884 84.4632 24.4528C84.7614 23.7073 85.0547 22.9767 85.3429 22.261H85.9095C86.2873 23.2252 86.6551 24.1745 87.0129 25.1089C87.3807 26.0333 87.7187 26.8981 88.0268 27.7033C88.3449 28.4985 88.6232 29.2093 88.8618 29.8355C89.1103 30.4518 89.3042 30.9339 89.4433 31.2818C89.503 31.4309 89.5725 31.5651 89.6521 31.6844C89.7415 31.7937 89.8757 31.9031 90.0546 32.0124C90.1938 32.0919 90.3578 32.1566 90.5467 32.2063C90.7356 32.246 90.8996 32.2709 91.0387 32.2808V32.6088H86.3419Z" fill="#202124"/>
<path d="M99.4248 32.6088V32.2808C99.4944 32.2808 99.5888 32.2758 99.7081 32.2659C99.8373 32.246 99.9666 32.2311 100.096 32.2212C100.225 32.2013 100.349 32.1814 100.469 32.1615C100.588 32.1416 100.672 32.1168 100.722 32.087C101.04 31.918 101.199 31.6645 101.199 31.3265V23.6924L97.3373 32.4448H97.0541C96.9646 32.1566 96.8453 31.8186 96.6962 31.4309C96.5471 31.0432 96.403 30.6904 96.2638 30.3723L93.3712 23.9011V29.7759C93.3712 30.3424 93.4109 30.7898 93.4905 31.1178C93.5799 31.4458 93.7091 31.6794 93.8781 31.8186C93.9378 31.8683 94.0372 31.923 94.1763 31.9826C94.3254 32.0323 94.4795 32.082 94.6386 32.1317C94.7976 32.1715 94.9467 32.2063 95.0859 32.2361C95.235 32.2659 95.3443 32.2808 95.4139 32.2808V32.6088H90.9408V32.2808C91.0004 32.2709 91.0899 32.2609 91.2092 32.251C91.3284 32.2311 91.4527 32.2063 91.5819 32.1764C91.7211 32.1466 91.8553 32.1118 91.9845 32.0721C92.1237 32.0224 92.238 31.9677 92.3274 31.908C92.5064 31.7788 92.6306 31.5502 92.7002 31.2222C92.7797 30.8842 92.8195 30.4269 92.8195 29.8504V24.3932C92.8195 24.085 92.7797 23.8365 92.7002 23.6477C92.6207 23.4489 92.5064 23.2898 92.3573 23.1705C92.1783 23.0314 91.9596 22.932 91.7012 22.8723C91.4427 22.8027 91.2141 22.763 91.0153 22.753V22.425H94.3702L97.8294 30.0144L100.618 23.6924C100.737 23.4141 100.821 23.1556 100.871 22.917C100.921 22.6685 100.951 22.5045 100.961 22.425H104.33V22.753C104.191 22.763 104.007 22.7878 103.779 22.8276C103.55 22.8574 103.366 22.8972 103.227 22.9469C103.038 23.0065 102.914 23.1009 102.854 23.2302C102.795 23.3594 102.765 23.5085 102.765 23.6775V31.3265C102.765 31.4955 102.8 31.6397 102.869 31.7589C102.939 31.8782 103.058 31.9776 103.227 32.0572C103.267 32.077 103.336 32.1019 103.436 32.1317C103.535 32.1516 103.64 32.1764 103.749 32.2063C103.858 32.2261 103.968 32.246 104.077 32.2659C104.186 32.2758 104.276 32.2808 104.345 32.2808V32.6088H99.4248Z" fill="#202124"/>
<path d="M114.365 32.6088H105.538V32.2808C105.607 32.2808 105.697 32.2758 105.806 32.2659C105.916 32.246 106.025 32.2311 106.134 32.2212C106.254 32.2013 106.363 32.1814 106.462 32.1615C106.572 32.1416 106.656 32.1218 106.716 32.1019C106.895 32.0323 107.014 31.9379 107.074 31.8186C107.143 31.6894 107.178 31.5403 107.178 31.3713V23.752C107.178 23.583 107.148 23.4389 107.089 23.3196C107.029 23.2003 106.905 23.1009 106.716 23.0214C106.646 22.9916 106.557 22.9618 106.447 22.932C106.338 22.9021 106.229 22.8773 106.119 22.8574C106.01 22.8276 105.901 22.8027 105.791 22.7829C105.692 22.763 105.607 22.753 105.538 22.753V22.425H113.754V24.7361H113.351C113.311 24.5771 113.232 24.3932 113.112 24.1844C113.003 23.9757 112.874 23.7819 112.725 23.6029C112.576 23.4141 112.417 23.255 112.248 23.1258C112.079 22.9866 111.915 22.9071 111.756 22.8872C111.577 22.8673 111.383 22.8524 111.174 22.8425C110.975 22.8326 110.757 22.8276 110.518 22.8276H108.759V27.1218H110.056C110.473 27.1218 110.761 27.0671 110.921 26.9578C111.09 26.8484 111.219 26.749 111.308 26.6596C111.368 26.5999 111.423 26.5154 111.472 26.4061C111.522 26.2967 111.567 26.1775 111.606 26.0482C111.646 25.9091 111.681 25.7749 111.711 25.6457C111.741 25.5065 111.76 25.3872 111.77 25.2878H112.173V29.4478H111.77C111.76 29.3385 111.741 29.2142 111.711 29.0751C111.681 28.926 111.641 28.7818 111.592 28.6427C111.552 28.4936 111.502 28.3643 111.442 28.255C111.393 28.1357 111.348 28.0512 111.308 28.0015C111.259 27.9518 111.204 27.9021 111.144 27.8524C111.085 27.7928 111.005 27.7431 110.906 27.7033C110.816 27.6536 110.702 27.6138 110.563 27.584C110.424 27.5542 110.255 27.5393 110.056 27.5393H108.759V30.8196C108.759 31.1277 108.778 31.3713 108.818 31.5502C108.868 31.7291 108.952 31.8683 109.072 31.9677C109.201 32.0571 109.38 32.1168 109.608 32.1466C109.847 32.1665 110.155 32.1764 110.533 32.1764C110.791 32.1764 111.045 32.1764 111.293 32.1764C111.552 32.1764 111.79 32.1665 112.009 32.1466C112.228 32.1267 112.422 32.0919 112.591 32.0422C112.759 31.9925 112.889 31.923 112.978 31.8335C113.088 31.7142 113.207 31.5601 113.336 31.3713C113.465 31.1824 113.585 30.9886 113.694 30.7898C113.803 30.581 113.903 30.3822 113.992 30.1933C114.082 30.0045 114.146 29.8554 114.186 29.746H114.559L114.365 32.6088ZM112.054 19.428C112.054 19.6169 112.009 19.766 111.92 19.8753C111.83 19.9847 111.696 20.1089 111.517 20.2481C111.408 20.3375 111.283 20.432 111.144 20.5314C111.015 20.6308 110.861 20.7451 110.682 20.8743C110.513 21.0035 110.314 21.1576 110.086 21.3365C109.867 21.5055 109.608 21.7093 109.31 21.9479L109.101 21.7689C109.29 21.4906 109.454 21.2421 109.594 21.0234C109.743 20.8047 109.872 20.6059 109.981 20.427C110.1 20.2481 110.205 20.0841 110.294 19.935C110.384 19.7858 110.468 19.6417 110.548 19.5026C110.687 19.254 110.826 19.0851 110.965 18.9956C111.104 18.9061 111.268 18.8614 111.457 18.8614C111.626 18.8614 111.765 18.921 111.875 19.0403C111.994 19.1596 112.054 19.2888 112.054 19.428Z" fill="#202124"/>
<path d="M122.133 25.0194C122.133 24.592 122.074 24.2391 121.955 23.9608C121.845 23.6824 121.691 23.4638 121.492 23.3047C121.293 23.1357 121.065 23.0164 120.806 22.9469C120.548 22.8773 120.28 22.8425 120.001 22.8425H118.689V27.2113H119.614C119.942 27.2113 120.255 27.1765 120.553 27.1069C120.861 27.0373 121.129 26.918 121.358 26.749C121.597 26.58 121.786 26.3564 121.925 26.0781C122.064 25.7997 122.133 25.4469 122.133 25.0194ZM125.801 30.6854C125.801 31.3911 125.662 31.918 125.384 32.2659C125.116 32.6039 124.653 32.7729 123.997 32.7729C123.401 32.7729 122.949 32.5641 122.64 32.1466C122.332 31.7291 122.123 31.0979 122.014 30.253C121.974 29.9548 121.92 29.6516 121.85 29.3435C121.79 29.0353 121.686 28.757 121.537 28.5085C121.388 28.25 121.179 28.0413 120.911 27.8822C120.642 27.7232 120.294 27.6437 119.867 27.6437H118.689V31.3713C118.689 31.5403 118.719 31.6894 118.779 31.8186C118.848 31.9478 118.972 32.0472 119.151 32.1168C119.201 32.1367 119.271 32.1566 119.36 32.1764C119.459 32.1963 119.559 32.2162 119.658 32.2361C119.768 32.246 119.872 32.256 119.971 32.2659C120.081 32.2758 120.17 32.2808 120.24 32.2808V32.6088H115.573V32.2808C115.642 32.2808 115.727 32.2758 115.826 32.2659C115.926 32.256 116.025 32.246 116.125 32.2361C116.234 32.2162 116.333 32.1963 116.423 32.1764C116.522 32.1566 116.597 32.1367 116.646 32.1168C116.825 32.0472 116.945 31.9478 117.004 31.8186C117.074 31.6894 117.109 31.5403 117.109 31.3713V23.7073C117.109 23.5383 117.079 23.3892 117.019 23.26C116.96 23.1208 116.835 23.0214 116.646 22.9618C116.507 22.9121 116.328 22.8673 116.11 22.8276C115.891 22.7878 115.712 22.763 115.573 22.753V22.425H120.777C121.154 22.425 121.532 22.4697 121.91 22.5592C122.288 22.6387 122.63 22.7729 122.939 22.9618C123.247 23.1506 123.495 23.3892 123.684 23.6775C123.873 23.9657 123.967 24.3137 123.967 24.7212C123.967 25.1288 123.873 25.4816 123.684 25.7799C123.495 26.0681 123.262 26.3166 122.983 26.5254C122.705 26.7242 122.407 26.8882 122.089 27.0174C121.771 27.1466 121.477 27.246 121.209 27.3156V27.4647C121.388 27.4846 121.592 27.5244 121.82 27.584C122.049 27.6437 122.273 27.7381 122.491 27.8673C122.71 27.9866 122.904 28.1407 123.073 28.3295C123.252 28.5184 123.381 28.747 123.46 29.0154C123.57 29.4329 123.654 29.8256 123.714 30.1933C123.784 30.5611 123.868 30.9289 123.967 31.2967C124.007 31.4657 124.062 31.5999 124.131 31.6993C124.201 31.7888 124.271 31.8583 124.34 31.908C124.42 31.9577 124.494 31.9876 124.564 31.9975C124.643 32.0074 124.713 32.0124 124.773 32.0124C124.981 32.0124 125.14 31.9279 125.25 31.7589C125.359 31.58 125.414 31.2222 125.414 30.6854V30.3723H125.801V30.6854Z" fill="#202124"/>
<path d="M126.581 32.6088V32.2808C126.651 32.2808 126.735 32.2758 126.835 32.2659C126.944 32.256 127.048 32.246 127.148 32.2361C127.257 32.2162 127.357 32.2013 127.446 32.1913C127.545 32.1715 127.62 32.1516 127.67 32.1317C127.849 32.0621 127.968 31.9677 128.028 31.8484C128.097 31.7291 128.132 31.585 128.132 31.416V23.7371C128.132 23.5681 128.102 23.429 128.043 23.3196C127.983 23.2003 127.859 23.1009 127.67 23.0214C127.531 22.9717 127.347 22.917 127.118 22.8574C126.899 22.7978 126.72 22.763 126.581 22.753V22.425H131.263V22.753C131.124 22.763 130.94 22.7878 130.711 22.8276C130.493 22.8574 130.314 22.8972 130.175 22.9469C129.986 23.0065 129.862 23.1009 129.802 23.2302C129.742 23.3494 129.712 23.4936 129.712 23.6626V31.3414C129.712 31.5104 129.747 31.6546 129.817 31.7739C129.886 31.8832 130.006 31.9776 130.175 32.0572C130.214 32.077 130.279 32.1019 130.369 32.1317C130.468 32.1516 130.572 32.1715 130.682 32.1913C130.791 32.2112 130.895 32.2311 130.995 32.251C131.104 32.2709 131.194 32.2808 131.263 32.2808V32.6088H126.581Z" fill="#202124"/>
<path d="M141.51 30.0293C141.361 30.3772 141.167 30.7202 140.929 31.0582C140.7 31.3862 140.422 31.6844 140.094 31.9528C139.766 32.2112 139.383 32.4249 138.946 32.5939C138.508 32.753 138.006 32.8325 137.44 32.8325C136.704 32.8325 136.033 32.7132 135.427 32.4746C134.821 32.2261 134.299 31.8782 133.861 31.4309C133.434 30.9737 133.101 30.4269 132.862 29.7908C132.624 29.1546 132.504 28.4389 132.504 27.6437C132.504 26.8783 132.634 26.1675 132.892 25.5115C133.161 24.8455 133.528 24.2739 133.996 23.7968C134.473 23.3097 135.029 22.927 135.665 22.6487C136.312 22.3703 137.007 22.2312 137.753 22.2312C137.962 22.2312 138.175 22.256 138.394 22.3057C138.613 22.3455 138.822 22.4051 139.02 22.4846C139.219 22.5542 139.403 22.6387 139.572 22.7381C139.751 22.8375 139.895 22.9369 140.004 23.0363L140.452 22.2759H141.063L141.123 25.9588H140.765C140.626 25.5313 140.457 25.1188 140.258 24.7212C140.069 24.3236 139.83 23.9707 139.542 23.6626C139.264 23.3544 138.936 23.1109 138.558 22.932C138.19 22.753 137.768 22.6636 137.291 22.6636C136.913 22.6636 136.54 22.758 136.172 22.9469C135.815 23.1357 135.497 23.429 135.218 23.8266C134.94 24.2242 134.716 24.7311 134.547 25.3474C134.378 25.9538 134.294 26.6794 134.294 27.5244C134.294 28.2003 134.388 28.8166 134.577 29.3733C134.766 29.9299 135.024 30.4071 135.352 30.8047C135.68 31.2023 136.058 31.5104 136.486 31.7291C136.923 31.9478 137.385 32.0572 137.872 32.0572C138.329 32.0572 138.727 32.0025 139.065 31.8931C139.403 31.7838 139.701 31.6297 139.96 31.4309C140.218 31.2321 140.437 30.9985 140.616 30.7301C140.805 30.4518 140.974 30.1486 141.123 29.8206L141.51 30.0293Z" fill="#202124"/>
<path d="M146.331 24.3484L144.706 28.5085H147.986L146.331 24.3484ZM147.658 32.6088V32.2808C147.787 32.2709 147.937 32.256 148.106 32.2361C148.285 32.2063 148.449 32.1665 148.598 32.1168C148.757 32.0671 148.891 32.0074 149 31.9379C149.11 31.8683 149.164 31.7888 149.164 31.6993C149.164 31.58 149.144 31.4657 149.105 31.3564L148.18 29.0005H144.512C144.373 29.3484 144.254 29.6516 144.154 29.91C144.065 30.1685 143.985 30.412 143.916 30.6407C143.806 30.9886 143.752 31.2669 143.752 31.4756C143.752 31.6148 143.811 31.7341 143.931 31.8335C144.06 31.923 144.214 32.0025 144.393 32.0721C144.572 32.1317 144.756 32.1814 144.945 32.2212C145.143 32.251 145.307 32.2709 145.437 32.2808V32.6088H141.336V32.2808C141.475 32.2709 141.649 32.241 141.858 32.1913C142.067 32.1416 142.241 32.077 142.38 31.9975C142.559 31.8882 142.718 31.7341 142.857 31.5353C142.996 31.3265 143.121 31.0929 143.23 30.8345C143.498 30.1983 143.772 29.5273 144.05 28.8216C144.338 28.1059 144.626 27.3852 144.915 26.6596C145.203 25.924 145.491 25.1884 145.78 24.4528C146.078 23.7073 146.371 22.9767 146.659 22.261H147.226C147.604 23.2252 147.971 24.1745 148.329 25.1089C148.697 26.0333 149.035 26.8981 149.343 27.7033C149.661 28.4985 149.94 29.2093 150.178 29.8355C150.427 30.4518 150.62 30.9339 150.76 31.2818C150.819 31.4309 150.889 31.5651 150.968 31.6844C151.058 31.7937 151.192 31.9031 151.371 32.0124C151.51 32.0919 151.674 32.1566 151.863 32.2063C152.052 32.246 152.216 32.2709 152.355 32.2808V32.6088H147.658Z" fill="#202124"/>
<path d="M159.593 29.7013C159.593 30.1586 159.509 30.576 159.34 30.9538C159.171 31.3315 158.932 31.6595 158.624 31.9379C158.326 32.2063 157.968 32.42 157.55 32.579C157.143 32.7281 156.7 32.8027 156.223 32.8027C155.617 32.8027 155.115 32.7232 154.717 32.5641C154.32 32.4051 154.007 32.2361 153.778 32.0572L153.256 32.7579H152.749L152.645 29.2689H152.988C153.137 29.6665 153.311 30.0492 153.51 30.417C153.718 30.7848 153.957 31.1128 154.225 31.4011C154.504 31.6894 154.817 31.923 155.165 32.1019C155.522 32.2709 155.935 32.3554 156.402 32.3554C157.068 32.3554 157.55 32.1864 157.848 31.8484C158.147 31.5005 158.296 31.0432 158.296 30.4766C158.296 30.0194 158.162 29.6267 157.893 29.2987C157.635 28.9607 157.282 28.7023 156.835 28.5234C156.626 28.4339 156.432 28.3594 156.253 28.2997C156.084 28.2301 155.92 28.1655 155.761 28.1059C155.602 28.0363 155.438 27.9667 155.269 27.8971C155.1 27.8176 154.911 27.7331 154.702 27.6437C154.126 27.3852 153.688 27.0472 153.39 26.6297C153.092 26.2023 152.943 25.6556 152.943 24.9896C152.943 24.592 153.018 24.2292 153.167 23.9011C153.316 23.5632 153.524 23.2699 153.793 23.0214C154.061 22.7729 154.374 22.5791 154.732 22.4399C155.1 22.3007 155.498 22.2312 155.925 22.2312C156.313 22.2312 156.7 22.3057 157.088 22.4548C157.486 22.6039 157.814 22.7779 158.072 22.9767L158.579 22.2759H159.086L159.161 25.6606H158.833C158.683 25.2431 158.519 24.8554 158.341 24.4976C158.172 24.1298 157.963 23.8117 157.714 23.5433C157.476 23.2749 157.183 23.0661 156.835 22.917C156.487 22.758 156.064 22.6785 155.567 22.6785C155.458 22.6785 155.324 22.7033 155.165 22.753C155.006 22.8027 154.852 22.8872 154.702 23.0065C154.553 23.1258 154.424 23.2848 154.315 23.4836C154.205 23.6725 154.151 23.9111 154.151 24.1993C154.151 24.6566 154.265 25.0294 154.494 25.3176C154.722 25.596 155.045 25.8494 155.463 26.0781C155.831 26.2769 156.174 26.4309 156.492 26.5403C156.82 26.6496 157.153 26.7838 157.491 26.9429C157.809 27.092 158.097 27.246 158.355 27.4051C158.614 27.5542 158.833 27.7331 159.012 27.9419C159.2 28.1506 159.345 28.3991 159.444 28.6874C159.543 28.9657 159.593 29.3037 159.593 29.7013Z" fill="#202124"/>
<path d="M75.4073 22.3561H76.7628V32.7483H75.4073V22.3561Z" fill="#202124"/>
</svg>
