<svg width="51" height="37" viewBox="0 0 51 37" fill="none" xmlns="http://www.w3.org/2000/svg">
<path d="M50.5033 13.6617C50.3614 13.5449 49.0841 12.5874 46.3403 12.5874C45.6307 12.5874 44.8974 12.6575 44.1879 12.7743C43.6675 9.20117 40.6635 7.47305 40.5452 7.37966L39.8119 6.95923L39.3389 7.63653C38.7475 8.54733 38.2981 9.57487 38.0379 10.6258C37.5413 12.6575 37.8487 14.5725 38.8895 16.2072C37.6358 16.9078 35.6016 17.0713 35.1759 17.0946H1.58785C0.7127 17.0946 0.00307977 17.7953 0.00307977 18.6593C-0.0441657 21.5551 0.452509 24.4509 1.46965 27.1832C2.62862 30.1725 4.35538 32.391 6.57882 33.7456C9.08607 35.2635 13.1781 36.1275 17.7905 36.1275C19.872 36.1275 21.9535 35.9408 24.0114 35.5671C26.8734 35.0533 29.6172 34.0724 32.1482 32.6479C34.2223 31.4608 36.0913 29.9467 37.6831 28.1641C40.3559 25.1982 41.9407 21.8821 43.0997 18.9395H43.5727C46.4822 18.9395 48.2798 17.7953 49.2732 16.8144C49.9355 16.2072 50.4322 15.4599 50.7871 14.6192L51 14.012L50.5033 13.6617Z" fill="#0091E2"/>
<path d="M4.7102 16.1371H9.20433C9.41727 16.1371 9.60651 15.9737 9.60651 15.7402V11.7701C9.60651 11.5599 9.4409 11.3731 9.20433 11.3731H4.7102C4.49734 11.3731 4.30811 11.5365 4.30811 11.7701V15.7402C4.33173 15.9737 4.49734 16.1372 4.7102 16.1372V16.1371ZM10.9074 16.1371H15.4016C15.6145 16.1371 15.8037 15.9737 15.8037 15.7402V11.7701C15.8037 11.5599 15.6381 11.3731 15.4016 11.3731H10.9073C10.6944 11.3731 10.5052 11.5365 10.5052 11.7701V15.7402C10.5289 15.9737 10.6945 16.1372 10.9073 16.1372M17.2228 16.1372H21.717C21.9298 16.1372 22.1191 15.9737 22.1191 15.7402V11.7701C22.1191 11.5599 21.9535 11.3731 21.717 11.3731H17.2228C17.0099 11.3731 16.8207 11.5365 16.8207 11.7701V15.7402C16.8207 15.9737 16.9863 16.1372 17.2228 16.1372ZM23.4436 16.1372H27.9379C28.1507 16.1372 28.34 15.9737 28.34 15.7402V11.7701C28.34 11.5599 28.1743 11.3731 27.9379 11.3731H23.4436C23.2308 11.3731 23.0415 11.5365 23.0415 11.7701V15.7402C23.0415 15.9737 23.2308 16.1372 23.4436 16.1372ZM10.9074 10.4623H15.4015C15.6144 10.4623 15.8036 10.2756 15.8036 10.0653V6.09527C15.8036 5.88505 15.638 5.6982 15.4015 5.6982H10.9073C10.6944 5.6982 10.5052 5.86168 10.5052 6.09527V10.0653C10.5289 10.2755 10.6946 10.4623 10.9074 10.4623ZM17.2228 10.4623H21.717C21.9298 10.4623 22.1191 10.2756 22.1191 10.0653V6.09527C22.1191 5.88505 21.9535 5.6982 21.717 5.6982H17.2228C17.0099 5.6982 16.8207 5.86168 16.8207 6.09527V10.0653C16.8207 10.2755 16.9863 10.4623 17.2228 10.4623ZM23.4436 10.4623H27.9379C28.1507 10.4623 28.34 10.2756 28.34 10.0653V6.09527C28.34 5.88505 28.1506 5.6982 27.9379 5.6982H23.4436C23.2308 5.6982 23.0415 5.86168 23.0415 6.09527V10.0653C23.0415 10.2755 23.2308 10.4623 23.4436 10.4623ZM23.4436 4.76412H27.9379C28.1507 4.76412 28.34 4.60064 28.34 4.36714V0.397067C28.34 0.18685 28.1506 0 27.9379 0H23.4436C23.2308 0 23.0415 0.163483 23.0415 0.397067V4.36714C23.0415 4.57727 23.2308 4.76412 23.4436 4.76412ZM29.7118 16.1372H34.206C34.4188 16.1372 34.6081 15.9737 34.6081 15.7402V11.7701C34.6081 11.5599 34.4426 11.3731 34.206 11.3731H29.7119C29.4989 11.3731 29.3097 11.5365 29.3097 11.7701V15.7402C29.3334 15.9737 29.499 16.1372 29.7119 16.1372" fill="#0091E2"/>
</svg>
