<svg width="160" height="36" viewBox="0 0 160 36" fill="none" xmlns="http://www.w3.org/2000/svg">
<path d="M25.8377 22.0675C29.0045 22.0675 31.57 24.1463 31.57 26.712C31.57 29.2778 29.0045 31.3565 25.8377 31.3565C23.4142 31.3565 21.3468 30.1365 20.508 28.4165C20.1424 30.0017 19.3316 31.4513 18.1697 32.5972C20.1854 34.3244 22.7677 35.2597 25.4299 35.227C30.9815 35.227 35.4955 31.4155 35.4955 26.712C35.4955 22.0086 30.9815 18.1996 25.4299 18.1996C22.768 18.1661 20.1858 19.1006 18.1697 20.8269C19.3316 21.9727 20.1424 23.4223 20.508 25.0075C21.3468 23.2876 23.4142 22.0675 25.8377 22.0675Z" fill="#202124"/>
<path d="M9.64503 31.3565C6.47818 31.3565 3.91014 29.2777 3.91014 26.712C3.91014 24.1462 6.49109 22.0675 9.64503 22.0675C12.0659 22.0675 14.1333 23.285 14.9747 25.0049C15.341 23.42 16.1517 21.9706 17.313 20.8243C15.2959 19.1 12.7141 18.1666 10.0528 18.1996C4.50634 18.1996 0 22.0085 0 26.712C0 31.4155 4.50117 35.2269 10.0657 35.2269C12.7278 35.2597 15.3101 34.3243 17.3259 32.5971C16.1636 31.4516 15.3527 30.0018 14.9876 28.4165C14.1333 30.1364 12.0659 31.3565 9.64503 31.3565Z" fill="#202124"/>
<path d="M25.8377 3.86117C29.0045 3.86117 31.57 5.93993 31.57 8.5057C31.57 11.0715 29.0045 13.1502 25.8377 13.1502C23.4142 13.1502 21.3468 11.9301 20.508 10.2103C20.1424 11.7953 19.3316 13.245 18.1697 14.3908C20.1854 16.118 22.7677 17.0534 25.4299 17.0207C30.9815 17.0207 35.4955 13.2092 35.4955 8.5057C35.4955 3.80222 30.9815 0.000983888 25.4299 0.000983888C22.7691 -0.0346182 20.1869 0.897055 18.1697 2.62058C19.3316 3.76642 20.1424 5.21604 20.508 6.80115C21.3468 5.08125 23.4142 3.86117 25.8377 3.86117Z" fill="#202124"/>
<path d="M9.64502 13.1502C6.47818 13.1502 3.91014 11.0715 3.91014 8.5057C3.91014 5.93993 6.49109 3.86117 9.64502 3.86117C12.0659 3.86117 14.1333 5.07869 14.9747 6.80115C15.3397 5.21584 16.1507 3.76608 17.313 2.62058C15.2957 0.897055 12.7136 -0.0346182 10.0528 0.000983888C4.50634 0.000983888 0 3.80222 0 8.5057C0 13.2092 4.50634 17.0207 10.0528 17.0207C12.715 17.0534 15.2972 16.118 17.313 14.3908C16.1507 13.2453 15.3397 11.7956 14.9747 10.2103C14.1333 11.9327 12.0659 13.1502 9.64502 13.1502Z" fill="#202124"/>
<path d="M44.1653 14.2833H50.5453V16.3339H41.9714V3.67163H50.4472V5.7222H44.1653V8.94159H49.8433V10.9921H44.1653V14.2833Z" fill="#202124"/>
<path d="M59.3591 3.11548H61.4241V16.3365H59.3591V14.9908C58.9741 15.4947 58.4734 15.9 57.8988 16.1728C57.3241 16.4457 56.6922 16.5783 56.0555 16.5595C55.2244 16.5696 54.4068 16.3504 53.6937 15.9264C52.9805 15.5024 52.3998 14.8901 52.0163 14.1578C51.6107 13.3871 51.4049 12.5282 51.4175 11.6586C51.4049 10.7883 51.6107 9.92856 52.0163 9.15698C52.3998 8.42463 52.9805 7.81237 53.6937 7.38834C54.4068 6.96431 55.2244 6.7451 56.0555 6.75525C56.6914 6.73502 57.3228 6.86591 57.8974 7.137C58.472 7.40802 58.9732 7.81146 59.3591 8.31366V3.11548ZM56.4608 14.5705C56.8445 14.58 57.2262 14.5106 57.5815 14.3663C57.9369 14.222 58.2584 14.0061 58.5255 13.7323C58.7963 13.4594 59.009 13.1352 59.1509 12.7789C59.2928 12.4227 59.361 12.0417 59.3514 11.6586C59.3617 11.274 59.2938 10.8913 59.1519 10.5332C59.01 10.1752 58.797 9.84923 58.5255 9.57475C58.2584 9.30087 57.9369 9.085 57.5815 8.94074C57.2262 8.79648 56.8445 8.72693 56.4608 8.73659C56.0734 8.7259 55.6879 8.7949 55.3286 8.9391C54.9693 9.08336 54.6439 9.29978 54.3728 9.57475C54.0997 9.84826 53.8855 10.174 53.7431 10.5322C53.6006 10.8904 53.533 11.2737 53.5443 11.6586C53.5341 12.0426 53.603 12.4246 53.7468 12.7812C53.8906 13.1378 54.1062 13.4615 54.3805 13.7323C54.6507 14.0063 54.9749 14.2222 55.3328 14.3664C55.6907 14.5106 56.0746 14.58 56.4608 14.5705Z" fill="#202124"/>
<path d="M67.6547 16.5593C66.3432 16.5593 65.2886 16.1979 64.4904 15.475C64.0941 15.1113 63.7819 14.6665 63.5759 14.1713C63.3692 13.6761 63.2735 13.1423 63.2953 12.6068V6.96777H65.3601V12.3377C65.3468 12.6361 65.3959 12.934 65.505 13.2125C65.6135 13.491 65.7795 13.7439 65.9922 13.9551C66.4522 14.3504 67.0401 14.568 67.648 14.568C68.2565 14.568 68.8438 14.3504 69.3038 13.9551C69.5147 13.7418 69.6783 13.4876 69.7856 13.2083C69.8922 12.9291 69.9401 12.631 69.9256 12.3326V6.97804H71.9904V12.6171C72.0122 13.1524 71.9171 13.686 71.7116 14.1812C71.5056 14.6764 71.1941 15.1213 70.7983 15.4853C70.0098 16.2013 68.9619 16.5593 67.6547 16.5593Z" fill="#202124"/>
<path d="M78.3006 16.5594C77.634 16.5794 76.9703 16.465 76.3491 16.2232C75.7279 15.9814 75.1631 15.617 74.6873 15.1522C74.2164 14.7007 73.8455 14.1572 73.597 13.5558C73.3485 12.9544 73.2285 12.3083 73.2449 11.6586C73.2309 11.0069 73.354 10.3594 73.6061 9.7575C73.8576 9.15557 74.2334 8.61231 74.7079 8.16234C75.1837 7.69756 75.7485 7.33324 76.3697 7.09137C76.9909 6.8495 77.6546 6.73513 78.3212 6.75517C79.2067 6.74406 80.08 6.96042 80.8558 7.38317C81.5946 7.78077 82.2115 8.36868 82.6418 9.08511L80.8352 10.1693C80.5867 9.73303 80.2249 9.37095 79.7873 9.12101C79.3382 8.86383 78.8273 8.73105 78.3085 8.73652C77.9212 8.72668 77.5364 8.79629 77.1776 8.94097C76.8188 9.0856 76.494 9.30226 76.2231 9.57723C75.6849 10.1367 75.3843 10.8808 75.3843 11.6547C75.3843 12.4286 75.6849 13.1727 76.2231 13.7322C76.4946 14.0064 76.8194 14.2223 77.1782 14.3665C77.537 14.5107 77.9219 14.58 78.3085 14.5704C78.8291 14.5771 79.3419 14.4443 79.7928 14.1859C80.2225 13.9343 80.5782 13.5756 80.8249 13.1452L82.6315 14.2218C82.1976 14.9387 81.5794 15.5279 80.8406 15.9289C80.0637 16.3544 79.1879 16.5716 78.3006 16.5594Z" fill="#202124"/>
<path d="M91.0635 6.97798H93.1283V16.3362H91.0635V14.9906C90.6786 15.4945 90.178 15.8997 89.6029 16.1726C89.0283 16.4455 88.3962 16.578 87.7598 16.5593C86.9289 16.5685 86.1113 16.3489 85.3986 15.925C84.6859 15.501 84.1047 14.8893 83.7204 14.1575C83.315 13.3869 83.1089 12.5279 83.1216 11.6584C83.1089 10.788 83.315 9.92831 83.7204 9.15673C84.1047 8.42493 84.6859 7.81315 85.3986 7.38925C86.1113 6.96528 86.9289 6.74577 87.7598 6.755C88.3956 6.73459 89.0271 6.86536 89.6016 7.13645C90.1768 7.40753 90.6774 7.81103 91.0635 8.31341V6.97798ZM88.1677 14.5702C88.5513 14.5798 88.9332 14.5103 89.2883 14.3661C89.6441 14.2218 89.9653 14.0059 90.2326 13.732C90.5035 13.4591 90.7156 13.1349 90.858 12.7787C90.9998 12.4224 91.0677 12.0414 91.058 11.6584C91.0683 11.2738 91.0004 10.891 90.8586 10.533C90.7168 10.175 90.5041 9.84899 90.2326 9.5745C89.9653 9.30062 89.6441 9.08475 89.2883 8.94049C88.9332 8.79624 88.5513 8.72675 88.1677 8.73635C87.7798 8.72596 87.3944 8.79502 87.0344 8.93922C86.675 9.08342 86.3489 9.29971 86.0768 9.5745C85.8029 9.84747 85.5877 10.173 85.4441 10.5313C85.301 10.8895 85.2326 11.273 85.2435 11.6584C85.2344 12.0425 85.3041 12.4244 85.4477 12.7812C85.5919 13.1378 85.8065 13.462 86.0798 13.7341C86.3532 14.006 86.6786 14.2204 87.0374 14.3641C87.3962 14.5078 87.781 14.5779 88.1677 14.5702Z" fill="#202124"/>
<path d="M99.5961 16.5594C98.9313 16.5778 98.2701 16.4626 97.6513 16.2208C97.0325 15.979 96.4695 15.6154 95.9955 15.1521C95.5246 14.7006 95.1531 14.1571 94.9052 13.5557C94.6567 12.9543 94.5367 12.3083 94.5531 11.6585C94.5361 11.0082 94.6561 10.3617 94.9046 9.75991C95.1531 9.15809 95.5246 8.61404 95.9955 8.16226C96.4695 7.69893 97.0325 7.3354 97.6513 7.0936C98.2701 6.85179 98.9313 6.73662 99.5961 6.75509C100.482 6.74367 101.356 6.95997 102.133 7.38308C102.871 7.78142 103.488 8.3692 103.919 9.08502L102.112 10.1692C101.865 9.73306 101.504 9.37093 101.067 9.12092C100.617 8.86344 100.105 8.73067 99.5858 8.73644C99.1992 8.72666 98.8143 8.79627 98.4561 8.94095C98.0973 9.08563 97.7731 9.30223 97.5028 9.57714C96.9634 10.136 96.6622 10.8803 96.6622 11.6546C96.6622 12.429 96.9634 13.1733 97.5028 13.7321C97.7737 14.0062 98.0979 14.2221 98.4567 14.3663C98.8149 14.5105 99.1992 14.5799 99.5858 14.5703C100.106 14.5773 100.619 14.4444 101.069 14.1858C101.5 13.935 101.856 13.5761 102.102 13.1451L103.909 14.2217C103.474 14.9381 102.856 15.5271 102.117 15.9288C101.346 16.3508 100.477 16.568 99.5961 16.5594Z" fill="#202124"/>
<path d="M106.079 5.38353C105.908 5.38729 105.737 5.35691 105.577 5.29419C105.417 5.23147 105.272 5.13766 105.149 5.01828C105.026 4.89889 104.928 4.75634 104.862 4.59898C104.795 4.44162 104.761 4.27263 104.761 4.10193C104.755 3.92917 104.786 3.75719 104.852 3.59698C104.917 3.43678 105.015 3.29186 105.14 3.17149C105.264 3.05037 105.41 2.95526 105.572 2.89184C105.733 2.82841 105.906 2.79799 106.079 2.80239C106.255 2.79694 106.429 2.82686 106.592 2.89031C106.754 2.95376 106.902 3.04942 107.027 3.17149C107.152 3.29186 107.25 3.43678 107.315 3.59698C107.381 3.75719 107.412 3.92917 107.406 4.10193C107.411 4.27424 107.38 4.44568 107.315 4.6054C107.249 4.76512 107.151 4.90964 107.027 5.02981C106.901 5.14911 106.752 5.24194 106.59 5.30273C106.427 5.36351 106.253 5.391 106.079 5.38353ZM105.047 16.3284V6.97784H107.125V16.3361L105.047 16.3284Z" fill="#202124"/>
<path d="M113.523 16.5594C112.858 16.5778 112.197 16.4626 111.578 16.2208C110.959 15.979 110.396 15.6155 109.922 15.1522C109.451 14.7009 109.079 14.1573 108.831 13.5559C108.582 12.9546 108.462 12.3085 108.477 11.6585C108.461 11.0082 108.582 10.3616 108.83 9.75972C109.079 9.15791 109.451 8.61398 109.922 8.16231C110.396 7.69899 110.959 7.33546 111.578 7.09365C112.197 6.85184 112.858 6.73668 113.523 6.75514C114.421 6.74464 115.305 6.96543 116.091 7.39595C116.844 7.8099 117.469 8.42064 117.898 9.16198C118.329 9.92384 118.556 10.7832 118.556 11.6572C118.556 12.5313 118.329 13.3907 117.898 14.1525C117.47 14.8945 116.845 15.5053 116.091 15.9186C115.305 16.3491 114.421 16.5699 113.523 16.5594ZM111.438 13.7398C111.709 14.014 112.034 14.23 112.393 14.3741C112.751 14.5183 113.136 14.5877 113.523 14.578C113.907 14.5877 114.288 14.5181 114.644 14.3739C114.999 14.2296 115.321 14.0137 115.588 13.7398C115.859 13.467 116.071 13.1428 116.213 12.7865C116.355 12.4302 116.423 12.0493 116.414 11.6662C116.424 11.2816 116.356 10.8988 116.214 10.5408C116.072 10.1828 115.859 9.85684 115.588 9.58236C115.321 9.30848 114.999 9.09261 114.644 8.94835C114.288 8.80409 113.907 8.73455 113.523 8.7442C113.136 8.73436 112.751 8.80397 112.392 8.9486C112.033 9.09328 111.708 9.30988 111.438 9.58491C110.899 10.1444 110.599 10.8885 110.599 11.6624C110.599 12.4363 110.899 13.1804 111.438 13.7398ZM112.305 5.88364L114.196 3.33325H116.816L114.493 5.86826L112.305 5.88364Z" fill="#202124"/>
<path d="M125.228 6.75519C125.724 6.7241 126.222 6.79832 126.688 6.97283C127.154 7.14733 127.577 7.41823 127.93 7.76749C128.282 8.11675 128.556 8.5364 128.732 8.9987C128.909 9.46093 128.985 9.95523 128.954 10.4487V16.3441H126.89V11.1203C126.904 10.8041 126.855 10.4882 126.745 10.1911C126.635 9.89407 126.467 9.62177 126.25 9.39017C126.026 9.16986 125.759 8.99803 125.465 8.88554C125.172 8.77305 124.858 8.72227 124.544 8.73654C124.213 8.72148 123.883 8.7722 123.573 8.88578C123.262 8.99936 122.978 9.17345 122.737 9.39782C122.506 9.62778 122.326 9.90281 122.208 10.2055C122.09 10.5082 122.036 10.8319 122.05 11.1562V16.3364H119.985V6.97817H122.05V8.188C122.828 7.23279 123.887 6.75519 125.228 6.75519Z" fill="#202124"/>
<path d="M47.99 35.2271C47.082 35.2299 46.1824 35.0558 45.3419 34.7145C44.5498 34.3986 43.828 33.9309 43.2178 33.3381C42.6167 32.7427 42.1411 32.0342 41.8189 31.2542C41.4287 30.3022 41.2593 29.2752 41.3232 28.2494C41.3871 27.2235 41.6827 26.225 42.188 25.3281C42.7568 24.3384 43.5891 23.5234 44.5934 22.9725C45.6093 22.4292 46.742 22.1369 47.8957 22.1204C49.0494 22.1038 50.1901 22.3636 51.2213 22.8776C52.177 23.3635 52.9937 24.0812 53.5958 24.9641L51.7091 26.1227C51.3073 25.5368 50.7643 25.0601 50.1296 24.736C49.4691 24.3944 48.7346 24.2185 47.99 24.2233C47.4025 24.2095 46.8186 24.3162 46.2745 24.5367C45.7305 24.7572 45.2382 25.0868 44.8283 25.5049C44.013 26.3615 43.5587 27.4956 43.5587 28.6743C43.5587 29.8531 44.013 30.9871 44.8283 31.8437C45.2375 32.2614 45.7289 32.5908 46.272 32.8114C46.8151 33.0319 47.3982 33.1388 47.9848 33.1253C48.7296 33.1314 49.4644 32.9554 50.1244 32.6127C50.7596 32.2903 51.3028 31.8143 51.7039 31.2286L53.5906 32.3846C52.9894 33.2688 52.1725 33.9875 51.2162 34.4736C50.2186 34.9819 49.1111 35.2406 47.99 35.2271Z" fill="#202124"/>
<path d="M59.2765 35.2272C58.6097 35.2472 57.9458 35.1328 57.3248 34.891C56.7037 34.6491 56.1385 34.2848 55.6632 33.82C54.7384 32.8885 54.22 31.6331 54.22 30.325C54.22 29.017 54.7384 27.7615 55.6632 26.8301C56.1385 26.3653 56.7037 26.001 57.3248 25.7591C57.9458 25.5173 58.6097 25.4029 59.2765 25.4229C60.1732 25.4116 61.0574 25.6324 61.8417 26.0637C62.5956 26.4773 63.2204 27.0881 63.6483 27.8298C64.0798 28.5916 64.3065 29.4509 64.3065 30.325C64.3065 31.1991 64.0798 32.0585 63.6483 32.8203C63.2204 33.562 62.5956 34.1728 61.8417 34.5863C61.0574 35.0177 60.1732 35.2385 59.2765 35.2272ZM57.1911 32.4076C57.4623 32.6818 57.7874 32.8977 58.1461 33.0419C58.5048 33.1861 58.8896 33.2555 59.2765 33.2458C59.6603 33.2554 60.042 33.1859 60.3973 33.0417C60.7526 32.8974 61.0744 32.6815 61.3411 32.4076C61.872 31.8437 62.1671 31.1006 62.1671 30.3289C62.1671 29.5571 61.872 28.8141 61.3411 28.2501C61.0744 27.9763 60.7526 27.7604 60.3973 27.6161C60.042 27.4718 59.6603 27.4024 59.2765 27.4119C58.8894 27.4022 58.5043 27.4717 58.1455 27.6164C57.7867 27.7611 57.4618 27.9777 57.1911 28.2527C56.6526 28.8121 56.3521 29.5563 56.3521 30.3302C56.3521 31.104 56.6526 31.8482 57.1911 32.4076Z" fill="#202124"/>
<path d="M70.9811 25.4226C71.4756 25.4021 71.9696 25.4813 72.4326 25.6553C72.8956 25.8293 73.3186 26.0946 73.6756 26.4351C74.0229 26.7877 74.2938 27.2073 74.4714 27.668C74.6489 28.1288 74.7296 28.6207 74.7077 29.1137V35.009H72.6435V29.7877C72.658 29.4716 72.609 29.1557 72.4986 28.8586C72.389 28.5615 72.2205 28.2892 72.0029 28.0576C71.7799 27.8373 71.5132 27.6655 71.2193 27.5529C70.9253 27.4404 70.6114 27.3897 70.2974 27.4039C69.9665 27.3889 69.6368 27.4397 69.3265 27.5532C69.0162 27.6668 68.732 27.8409 68.4908 28.0653C68.2599 28.2952 68.0799 28.5702 67.9617 28.8729C67.8435 29.1755 67.7896 29.4993 67.8041 29.8236V35.0039H65.7393V25.6456H67.8041V26.8555C68.5817 25.9002 69.6405 25.4226 70.9811 25.4226Z" fill="#202124"/>
<path d="M81.9066 27.5119H79.243V31.9385C79.2297 32.1163 79.2539 32.2948 79.3157 32.4623C79.3769 32.6298 79.4739 32.7824 79.5987 32.91C79.883 33.1446 80.2472 33.2621 80.6157 33.238C81.0654 33.2296 81.5066 33.1191 81.9066 32.9151V34.8426C81.3703 35.1045 80.7793 35.2363 80.1824 35.2271C79.1897 35.2271 78.44 34.9708 77.9345 34.4581C77.4284 33.9455 77.1757 33.2193 77.1757 32.2794V27.5119H75.5806V25.6459H77.1757V23.2185H79.24V25.6459H81.9036L81.9066 27.5119Z" fill="#202124"/>
<path d="M84.3042 24.0593C84.1302 24.0635 83.9575 24.0321 83.7963 23.9673C83.6351 23.9025 83.489 23.8056 83.3672 23.6826C83.1242 23.4346 82.9878 23.1021 82.9878 22.756C82.9878 22.4098 83.1242 22.0773 83.3672 21.8294C83.4902 21.7086 83.6369 21.6136 83.7975 21.5502C83.9587 21.4868 84.1308 21.4562 84.3042 21.4603C84.4793 21.4552 84.6539 21.4853 84.8169 21.5487C84.9799 21.6121 85.1284 21.7076 85.2539 21.8294C85.4957 22.0791 85.6308 22.4121 85.6308 22.7585C85.6308 23.105 85.4957 23.438 85.2539 23.6877C85.129 23.8105 84.9805 23.9069 84.8175 23.9708C84.6545 24.0347 84.4793 24.0648 84.3042 24.0593ZM83.2714 35.0042V25.646H85.3363V35.0042H83.2714Z" fill="#202124"/>
<path d="M92.5655 25.4227C93.0625 25.3916 93.5601 25.4658 94.0255 25.6402C94.4916 25.8145 94.9146 26.0852 95.2668 26.4342C95.6189 26.7831 95.8928 27.2025 96.0698 27.6644C96.2468 28.1264 96.3225 28.6204 96.2928 29.1137V35.009H94.228V29.7878C94.2431 29.4716 94.194 29.1555 94.0843 28.8584C93.9746 28.5612 93.8055 28.2889 93.588 28.0576C93.3643 27.8373 93.0977 27.6653 92.8037 27.5528C92.5104 27.4403 92.1965 27.3896 91.8819 27.404C91.5516 27.3889 91.2213 27.4397 90.911 27.5532C90.6007 27.6668 90.3165 27.841 90.0752 28.0653C89.8443 28.2953 89.6643 28.5703 89.5462 28.8729C89.428 29.1756 89.374 29.4994 89.3886 29.8237V35.0039H87.3237V25.6457H89.3886V26.8555C90.1662 25.9003 91.2255 25.4227 92.5655 25.4227Z" fill="#202124"/>
<path d="M102.345 35.2271C101.034 35.2271 99.9798 34.8657 99.1828 34.1429C98.7858 33.7793 98.4725 33.3342 98.2658 32.8384C98.0592 32.3427 97.9634 31.8082 97.9852 31.2721V25.6331H100.05V31.0157C100.037 31.3141 100.087 31.6119 100.196 31.8903C100.305 32.1686 100.47 32.4216 100.683 32.6331C101.142 33.0285 101.73 33.2461 102.338 33.2461C102.946 33.2461 103.534 33.0285 103.994 32.6331C104.205 32.4199 104.368 32.1656 104.476 31.8864C104.583 31.6072 104.631 31.3091 104.616 31.0106V25.6459H106.681V31.2849C106.703 31.8202 106.608 32.3538 106.402 32.849C106.196 33.3442 105.884 33.7891 105.488 34.1531C104.699 34.8691 103.651 35.2271 102.345 35.2271Z" fill="#202124"/>
<path d="M115.941 25.646H118.006V35.0042H115.941V33.6585C115.556 34.1623 115.056 34.5674 114.481 34.8403C113.906 35.1131 113.275 35.2458 112.638 35.2272C111.807 35.2373 110.989 35.0181 110.276 34.5941C109.563 34.1701 108.982 33.5578 108.599 32.8255C108.205 32.0499 108 31.1935 108 30.3251C108 29.4566 108.205 28.6002 108.599 27.8247C108.983 27.0907 109.565 26.4774 110.28 26.0533C110.995 25.6292 111.815 25.4109 112.648 25.4229C113.284 25.4028 113.915 25.5337 114.49 25.8047C115.065 26.0758 115.565 26.4792 115.952 26.9814L115.941 25.646ZM113.043 33.2381C113.427 33.2475 113.808 33.1778 114.164 33.0336C114.519 32.8893 114.841 32.6736 115.108 32.4C115.638 31.836 115.933 31.093 115.933 30.3212C115.933 29.5494 115.638 28.8065 115.108 28.2425C114.841 27.9688 114.519 27.7532 114.164 27.6089C113.808 27.4646 113.427 27.395 113.043 27.4043C112.656 27.3936 112.27 27.4626 111.911 27.6068C111.552 27.751 111.226 27.9675 110.955 28.2425C110.418 28.8032 110.119 29.5474 110.119 30.3212C110.119 31.095 110.418 31.8392 110.955 32.4C111.226 32.675 111.552 32.8914 111.911 33.0356C112.27 33.1799 112.656 33.2488 113.043 33.2381Z" fill="#202124"/>
<path d="M130.524 35.2273C129.609 35.2301 128.701 35.056 127.853 34.7147C127.053 34.3997 126.324 33.932 125.705 33.3382C125.099 32.7441 124.619 32.0356 124.293 31.2544C123.946 30.4333 123.77 29.5508 123.777 28.6604C123.764 27.4913 124.068 26.3402 124.657 25.3282C125.233 24.337 126.073 23.5221 127.083 22.9727C128.137 22.3962 129.324 22.1012 130.526 22.1165C131.664 22.106 132.787 22.3699 133.799 22.8855C134.759 23.3696 135.581 24.0874 136.186 24.9719L133.44 26.6585C133.126 26.1962 132.698 25.8199 132.199 25.564C131.681 25.2994 131.106 25.1639 130.524 25.1693C130.061 25.1582 129.602 25.2416 129.173 25.4144C128.745 25.5873 128.356 25.8459 128.033 26.1741C127.389 26.8501 127.029 27.7459 127.029 28.677C127.029 29.6082 127.389 30.504 128.033 31.18C128.355 31.5088 128.742 31.768 129.17 31.9413C129.598 32.1146 130.057 32.1984 130.519 32.1874C131.101 32.194 131.676 32.0584 132.193 31.7926C132.693 31.5384 133.121 31.1628 133.435 30.7007L136.179 32.3847C135.574 33.2706 134.752 33.9895 133.791 34.4738C132.779 34.9832 131.658 35.2417 130.524 35.2273Z" fill="#202124"/>
<path d="M142.969 35.227C142.053 35.2298 141.146 35.0556 140.298 34.7144C139.498 34.4 138.768 33.9323 138.15 33.3379C137.544 32.7439 137.063 32.0354 136.736 31.254C136.341 30.3022 136.167 29.2737 136.23 28.2459C136.293 27.218 136.589 26.2177 137.098 25.3202C137.675 24.3293 138.515 23.5146 139.526 22.9646C140.579 22.3878 141.766 22.0928 142.969 22.1085C144.105 22.0981 145.228 22.3619 146.239 22.8775C147.201 23.3602 148.022 24.0783 148.627 24.964L145.883 26.6582C145.572 26.1944 145.148 25.8154 144.652 25.5561C144.135 25.2917 143.561 25.1562 142.979 25.1613C142.517 25.1492 142.057 25.2323 141.628 25.4051C141.199 25.578 140.812 25.8371 140.488 26.1661C139.844 26.8421 139.485 27.7379 139.485 28.6691C139.485 29.6002 139.844 30.496 140.488 31.172C140.811 31.5008 141.198 31.7599 141.625 31.9333C142.053 32.1066 142.512 32.1904 142.974 32.1794C143.558 32.1865 144.134 32.051 144.652 31.7846C145.152 31.5311 145.579 31.1553 145.893 30.6927L148.637 32.3767C148.033 33.2638 147.212 33.9829 146.25 34.4657C145.235 34.9803 144.108 35.2415 142.969 35.227Z" fill="#202124"/>
<path d="M158.039 28.2811C158.639 28.5421 159.136 28.9926 159.451 29.5627C159.815 30.1684 160.004 30.8618 159.998 31.5671C160.014 32.0298 159.93 32.4905 159.751 32.9184C159.574 33.3463 159.306 33.7315 158.966 34.0483C158.26 34.699 157.324 35.0471 156.362 35.0172H149.61V22.3396H155.946C156.857 22.3158 157.741 22.6492 158.405 23.2675C158.729 23.564 158.985 23.9256 159.157 24.3283C159.329 24.731 159.413 25.1654 159.402 25.6025C159.406 26.1477 159.277 26.6859 159.028 27.1712C158.805 27.6234 158.464 28.007 158.039 28.2811ZM155.133 25.1796H152.679V27.1712H155.133C155.269 27.1781 155.405 27.1574 155.533 27.1105C155.66 27.0635 155.777 26.9912 155.876 26.8981C155.974 26.805 156.053 26.6929 156.107 26.5687C156.16 26.4444 156.188 26.3106 156.188 26.1754C156.188 26.0402 156.16 25.9065 156.107 25.7822C156.053 25.658 155.974 25.5459 155.876 25.4527C155.777 25.3596 155.66 25.2873 155.533 25.2404C155.405 25.1934 155.269 25.1728 155.133 25.1796ZM155.559 32.1618C155.713 32.166 155.866 32.1383 156.008 32.0805C156.151 32.0227 156.281 31.936 156.387 31.826C156.551 31.6642 156.664 31.4575 156.708 31.2322C156.754 31.007 156.731 30.7735 156.642 30.5614C156.553 30.3494 156.402 30.1684 156.21 30.0417C156.017 29.915 155.79 29.8482 155.559 29.8498H152.679V32.1566L155.559 32.1618Z" fill="#202124"/>
</svg>
