<svg width="27" height="40" viewBox="0 0 27 40" fill="none" xmlns="http://www.w3.org/2000/svg">
<g clip-path="url(#clip0_244_822)">
<path d="M13.3359 20C13.3359 16.3182 16.3207 13.3334 20.0026 13.3334C23.6844 13.3334 26.6693 16.3182 26.6693 20C26.6693 23.682 23.6844 26.6667 20.0026 26.6667C16.3207 26.6667 13.3359 23.682 13.3359 20Z" fill="#1ABCFE"/>
<path d="M0.00244141 33.3333C0.00244141 29.6515 2.98718 26.6666 6.66911 26.6666H13.3358V33.3333C13.3358 37.0152 10.351 40 6.66911 40C2.98718 40 0.00244141 37.0152 0.00244141 33.3333Z" fill="#0ACF83"/>
<path d="M13.3359 0.00012207V13.3334H20.0026C23.6845 13.3334 26.6693 10.3486 26.6693 6.6667C26.6693 2.98477 23.6845 0.00012207 20.0026 0.00012207H13.3359Z" fill="#FF7262"/>
<path d="M0.00292969 6.66667C0.00292969 10.3486 2.98767 13.3333 6.6696 13.3333H13.3363V0H6.6696C2.98767 0 0.00292969 2.98483 0.00292969 6.66667Z" fill="#F24E1E"/>
<path d="M0.00244141 20C0.00244141 23.682 2.98718 26.6667 6.66911 26.6667H13.3358V13.3334H6.66911C2.98718 13.3334 0.00244141 16.3182 0.00244141 20Z" fill="#A259FF"/>
</g>
<defs>
<clipPath id="clip0_244_822">
<rect width="26.672" height="40" fill="white"/>
</clipPath>
</defs>
</svg>
