<svg width="32" height="40" viewBox="0 0 32 40" fill="none" xmlns="http://www.w3.org/2000/svg">
<path d="M9.30601 24.7366C8.11997 23.8036 6.8545 22.9095 5.98997 21.6496C4.17004 19.4279 2.76917 16.8562 1.81146 14.1532C1.23243 12.3955 1.03415 10.5111 0.287249 8.82152C-0.492983 7.594 0.421667 6.25311 1.76609 5.86312C2.36422 5.7478 3.41657 5.18312 2.14623 5.58722C1.00714 6.42244 0.89742 4.82816 2.06521 4.72719C2.86223 4.62148 3.15564 3.96935 2.88279 3.38229C2.02689 2.82394 4.95745 2.21133 3.48274 1.37843C1.94758 -0.278378 5.63099 -0.597332 4.72206 1.28464C4.5048 2.73161 7.2968 1.01884 6.64843 2.69013C7.30714 3.49286 9.11442 2.8732 9.06905 3.99866C10.0283 4.06459 10.3576 4.87122 11.2572 4.93326C12.1911 5.35488 13.8823 5.68649 14.1996 6.73811C13.2738 7.47078 11.1308 5.22448 11.0273 7.25291C11.3073 10.25 11.2359 13.3372 12.3321 16.1911C12.8505 17.919 14.1081 19.2791 15.2431 20.6251C16.3298 21.943 17.8013 22.8714 19.3016 23.6525C20.6172 24.2729 22.0356 24.684 23.4698 24.9427C24.0512 24.4979 25.078 22.8443 25.9848 23.5411C26.0286 24.3256 24.1849 25.1797 25.8983 25.093C26.9053 24.7891 27.6029 25.8708 28.4317 24.8948C29.1953 25.7994 31.6054 24.3174 31.0622 26.166C30.3273 26.6402 29.2558 26.3537 28.5201 27.0061C27.3071 26.4 26.3412 27.5478 24.9977 27.403C23.5064 27.6702 21.9885 27.7777 20.4766 27.7799C17.9955 27.5842 15.4621 27.5016 13.1019 26.6377C11.772 26.2513 10.4747 25.494 9.30601 24.7366ZM11.4012 25.645C12.6994 26.2058 13.969 26.7976 15.392 26.9766C17.6495 27.29 19.9809 27.7736 22.2463 27.333C21.221 26.8701 20.1606 27.5128 19.1393 27.0021C17.9143 27.2653 16.5996 26.9345 15.3537 26.7713C13.9378 26.1407 12.4092 25.7072 11.0831 24.8877C9.42535 24.2825 11.9399 25.6641 12.3876 25.7764C13.4233 26.364 11.2484 25.4747 10.9413 25.2306C10.0737 24.7438 9.96326 24.8456 10.8556 25.3396C11.0353 25.4447 11.2128 25.5553 11.4012 25.645ZM8.93062 23.8991C10.189 24.3652 8.92502 23.0145 8.34915 23.0926C8.0937 22.6494 7.3732 22.3694 7.88143 22.1316C6.96751 22.4491 6.92372 20.9248 6.49431 21.143C5.52699 20.8375 6.11794 19.7556 4.96535 19.0908C4.86025 18.3906 3.82067 17.7837 3.4898 16.7281C3.34346 16.1873 2.31495 14.6354 2.94653 16.0797C3.4842 17.4701 4.42999 18.6619 5.21752 19.8511C5.82842 20.9836 6.55075 22.1682 7.66356 22.8746C8.03908 23.2349 8.40097 23.7861 8.93062 23.8991ZM5.30669 19.9194C5.35024 19.7293 5.5366 20.3306 5.30669 19.9194V19.9194ZM10.438 24.4574C10.0371 24.3 10.7164 24.3326 10.438 24.4574V24.4574ZM11.1205 24.7065C10.8087 24.899 11.0498 24.3628 11.1205 24.7065V24.7065ZM11.9756 25.063C11.3479 24.8185 12.3821 24.6753 11.9756 25.063V25.063ZM13.4409 25.8796C12.6493 25.7421 13.6882 25.5145 13.4409 25.8796V25.8796ZM10.6274 23.9183C9.81048 23.9126 11.2588 23.5093 10.6274 23.9183V23.9183ZM11.2685 24.238C11.0402 24.3349 11.2501 24.0223 11.2685 24.238V24.238ZM14.4733 26.2384C14.9887 26.5638 17.4825 26.9511 15.9211 26.372C15.6592 26.427 13.0256 25.6267 14.4733 26.2384ZM9.38569 22.2756C8.58527 22.0362 9.33557 22.0594 9.38569 22.2756V22.2756ZM10.8771 23.146C10.0713 22.9367 11.266 22.8747 10.8771 23.146V23.146ZM12.1322 23.9151C11.2287 23.7043 12.6898 23.7052 12.1322 23.9151V23.9151ZM8.77795 21.6146C9.38253 22.0782 11.2169 21.6742 9.70379 21.3378C9.01577 20.9711 7.46467 20.7199 8.52201 21.559L8.77795 21.6146ZM12.9827 24.1807C11.9262 23.9356 13.2348 23.7519 12.9827 24.1807V24.1807ZM11.7051 23.1655C13.1831 23.5833 10.4619 22.2301 11.3402 23.0113L11.5352 23.0996L11.7051 23.1655ZM14.2667 24.646C13.0018 24.4528 15.6666 24.6593 14.2667 24.646V24.646ZM8.23955 20.8047C7.89432 20.8263 8.18457 20.5438 8.23955 20.8047V20.8047ZM16.6346 25.9743C16.178 26.3252 16.672 25.5036 16.6346 25.9743V25.9743ZM10.629 22.2676C10.1916 22.2572 10.5439 22.0194 10.629 22.2676V22.2676ZM8.37227 20.6409C7.27138 20.2869 9.17585 20.5925 8.37227 20.6409V20.6409ZM5.69875 18.9131C4.82461 18.2204 5.59864 18.5275 5.69875 18.9131V18.9131ZM12.7171 23.367C12.5699 23.199 12.6477 23.4035 12.7171 23.367V23.367ZM17.0847 26.0477C16.8469 26.1445 17.0713 25.7906 17.0847 26.0477V26.0477ZM12.3305 22.9676C11.6449 22.8673 12.4093 22.6368 12.3305 22.9676V22.9676ZM9.07623 20.905C8.11766 20.5009 9.67448 20.8413 9.07623 20.905V20.905ZM14.5809 24.3256C13.6725 24.1456 15.5131 23.9564 14.5809 24.3256V24.3256ZM11.718 22.3823C12.7918 22.5205 10.4397 21.6512 11.4818 22.3042L11.718 22.3823ZM15.4501 24.677C16.4533 24.0781 16.1224 26.081 17.1518 24.8464C18.1666 24.1051 16.2751 25.7628 17.5256 24.9785C18.4307 24.3731 19.767 25.2656 20.6111 25.556C21.2179 25.5266 21.8082 26.081 22.4309 25.7436C23.6289 25.4206 20.0877 25.2649 21.0158 24.6928C19.9198 25.012 19.1101 24.3127 18.5707 23.6103C17.3409 23.3262 15.9195 22.6979 15.3054 21.609C15.0548 21.201 15.6667 21.6671 15.0891 20.9989C14.3486 20.3402 13.9788 19.5916 13.4815 18.7907C12.8872 18.4741 12.8173 17.541 12.7576 18.7598C12.7624 17.9905 12.0401 17.4727 11.8635 17.6875C11.8603 16.9468 12.6368 17.3183 12.0934 16.7703C11.9766 16.0026 11.5915 15.2025 11.476 14.3355C11.2965 13.9178 11.4505 13.023 10.8621 13.9687C10.648 14.9686 10.7913 12.7406 11.1246 13.4748C11.562 12.7255 10.967 12.8137 10.9431 12.9172C11.228 12.2849 11.1238 11.3875 10.8684 11.7296C11.0204 11.0589 11.1087 9.26212 10.6418 9.58107C10.9249 8.87955 11.1787 6.37208 9.94879 7.32845C9.45089 7.33551 8.58794 7.50909 8.18068 7.71188C9.45892 8.41669 8.05173 7.96636 7.53073 7.8542C7.46309 8.50646 6.94768 8.22485 6.30333 8.23118C7.33269 8.35842 5.80215 9.28341 5.2129 8.92407C4.44605 9.28998 5.87392 10.2047 5.22798 10.4878C5.30766 10.9135 4.05387 10.3337 4.15179 11.3184C3.40793 11.0048 4.04997 12.4861 4.42221 11.985C5.6878 12.3278 5.31314 13.1082 5.34489 13.8502C5.13882 14.282 4.32672 12.8345 5.16424 12.9014C4.50322 11.8281 4.4334 12.5131 3.88441 13.0118C3.75717 13.0477 5.28443 13.7213 4.32599 14.0538C5.16911 14.1844 5.1938 14.9225 5.36569 15.3895C5.87234 15.9174 5.76797 14.8062 6.3751 15.4412C5.9907 14.8756 4.3418 13.8477 5.66956 14.1773C5.66226 13.6085 5.42919 13.1494 5.83645 13.1605C6.23983 12.4311 5.4141 14.9599 6.32255 14.0324C6.57374 13.9227 6.63676 13.3022 7.08855 14.0913C7.7447 14.7372 7.32563 15.2047 6.39967 14.613C6.56511 15.1754 7.63814 15.3758 7.43609 16.2549C7.64994 17.0281 7.94918 16.7432 8.20999 16.6987C8.41436 17.4496 8.53077 16.8975 8.54026 16.5395C9.47644 16.7403 9.25687 17.2937 9.55028 17.6803C10.1954 17.9713 8.62687 15.7068 9.7342 16.9994C10.8993 18.0517 10.1716 18.4907 9.12574 18.3222C9.78748 18.2687 10.0005 19.2172 10.8288 19.1837C11.5836 19.5432 12.0951 20.9225 10.7937 20.3481C10.3427 19.9409 8.7445 19.4389 10.05 20.213C11.2543 20.7713 12.212 21.1046 13.3741 21.8056C14.2054 22.3989 14.5647 23.0788 14.8798 23.2135C14.1807 23.5474 12.7736 22.9469 13.8187 22.7633C13.1664 22.6447 12.4331 22.3146 13.0574 23.1267C13.5888 23.5706 14.9387 23.5235 15.1813 23.5737C14.9761 24.0256 14.6238 24.0615 15.1893 24.0964C14.5584 24.4328 15.392 24.4854 15.4501 24.677ZM14.1599 21.0331C13.7757 20.6314 13.6764 19.8798 14.0915 20.5334C14.3048 20.6194 14.7734 21.7626 14.1599 21.0331ZM18.3624 23.7026C18.3694 23.8846 18.6018 23.6868 18.3624 23.7026V23.7026ZM13.554 20.0484C13.5387 19.4414 13.6922 20.5167 13.554 20.0484V20.0484ZM13.1363 19.4868C12.6527 18.5537 13.7447 19.7508 13.1363 19.4868V19.4868ZM8.07399 15.9932C8.21401 16.4782 8.35803 15.9174 8.07399 15.9932V15.9932ZM12.103 18.1766C12.2772 17.5219 12.3075 18.7256 12.103 18.1766V18.1766ZM9.25687 16.1975C9.05652 15.8364 9.67618 16.5365 9.25687 16.1975V16.1975ZM11.6989 16.9803C11.2415 15.9558 12.0234 16.4202 11.8007 17.1481L11.6989 16.9803ZM7.48705 14.1715C7.28269 13.8351 6.94452 12.8487 7.05351 12.5474C7.15131 13.0381 8.09638 14.6584 7.51637 13.2187C6.87615 12.012 8.28249 13.61 8.42725 13.9115C8.49488 14.2106 8.0319 13.8296 8.34526 14.5319C7.77341 13.7325 8.00794 14.9735 7.48705 14.1715ZM6.1857 13.2743C6.23898 12.4924 6.48324 13.8104 6.1857 13.2743V13.2743ZM6.77117 13.4763C7.05035 12.8863 7.24437 14.2988 6.77117 13.4763V13.4763ZM5.3624 12.3867C4.87789 11.9045 4.52707 11.4607 5.38539 12.0874C5.71554 12.1002 4.65054 11.0782 5.46507 11.7629C6.32084 11.919 5.8873 13.167 5.3624 12.3867ZM6.10213 12.3676C6.25175 12.642 6.38386 12.0884 6.10213 12.3676V12.3676ZM6.55793 12.5131C6.13071 11.7136 7.07577 12.8488 6.55793 12.5131V12.5131ZM5.65277 11.6486C4.24412 10.3939 7.42258 12.3039 5.88268 11.8807L5.65277 11.6486ZM9.68956 13.9934C9.07951 13.6282 9.52729 11.4202 9.73579 12.93C10.3284 12.7381 9.70294 13.7103 10.1445 13.7007C10.0754 14.3138 9.87738 14.5345 9.68956 13.9934ZM11.1826 14.8763C11.2422 14.2106 11.3083 15.3315 11.1826 14.8763V14.8763ZM10.9234 14.6194C10.9297 14.9543 10.9902 14.3355 10.9234 14.6194V14.6194ZM5.92866 11.2364C5.02362 9.98749 8.55923 12.4995 6.50866 11.5531C6.29457 11.4966 6.03619 11.4767 5.92866 11.2364ZM8.80423 12.7606C8.71847 11.709 8.99521 12.9346 8.80423 12.7606V12.7606ZM10.9869 14.1611C10.9998 14.5575 11.1555 13.5623 10.9869 14.1611V14.1611ZM6.06794 10.7599C6.60574 10.6446 8.29672 11.7041 6.74405 11.0622C6.57155 10.8712 6.20321 10.9581 6.06794 10.7599ZM10.6869 13.0619C10.7445 11.9866 11.0086 12.42 10.6894 13.2163L10.6869 13.0619ZM6.46803 10.3854C6.68748 10.0639 5.8856 8.9321 6.58323 9.97958C6.88491 10.219 7.45579 10.3805 6.95157 10.4815C7.74458 11.1808 6.7584 10.6709 6.46803 10.3854ZM10.4586 12.7263C10.5924 13.4438 10.6099 11.5014 10.4586 12.7263V12.7263ZM6.0098 9.25421C6.09884 9.47755 6.17767 9.18244 6.0098 9.25421V9.25421ZM7.05108 9.87387C7.31894 9.31139 7.54496 10.5006 7.05108 9.87387V9.87387ZM9.98698 11.5068C9.98455 11.2913 10.0426 11.821 9.98698 11.5068V11.5068ZM9.81668 11.1307C9.40941 10.1252 10.1962 11.6628 9.81668 11.1307V11.1307ZM9.56682 10.4712C9.4987 10.0559 9.79916 10.993 9.56682 10.4712V10.4712ZM9.97409 9.8094C9.69418 9.31686 10.3275 7.63779 10.3983 8.67908C10.103 9.49045 10.3131 9.94394 10.5182 8.85571C10.8986 7.99981 10.4363 10.5461 9.97409 9.8094ZM10.3925 7.31252C10.4197 7.49292 10.5144 7.16289 10.3925 7.31252V7.31252ZM9.69357 21.084C9.52802 20.9392 9.71486 21.1756 9.69357 21.084V21.084ZM11.1332 21.8119C11.9342 22.0179 11.9303 21.6877 11.2062 21.589C10.8173 21.2273 9.58835 20.843 10.6885 21.5445C10.761 21.7292 10.9909 21.7243 11.1332 21.8119ZM8.2904 19.9233C8.731 20.2529 9.95195 20.8556 8.9187 20.0492C9.26709 19.6442 8.25208 19.4287 8.58867 19.1576C7.73193 18.6332 7.91233 18.6801 8.51313 18.6969C7.48377 18.2362 8.66178 18.2713 8.60619 18.0352C8.20926 17.9571 6.6342 17.335 7.56089 18.086C6.61912 17.6062 7.33646 18.2649 7.05181 18.1957C6.08838 17.9332 7.90941 18.9293 6.89902 18.6818C7.45117 19.1193 8.38577 19.8034 7.13209 19.1447C6.96751 19.3825 8.02959 19.7429 8.2904 19.9233ZM9.796 20.7888C8.89789 20.0674 11.6264 21.3783 9.796 20.7888V20.7888ZM17.5039 25.4581C17.2541 25.7683 17.5278 25.0946 17.5039 25.4581V25.4581ZM18.2962 25.7914C18.7185 25.3826 18.3137 26.4436 18.9961 25.6913C19.0032 25.1526 18.9755 24.8346 18.2119 25.4891C18.001 25.6061 17.9073 26.1014 18.2962 25.7914ZM5.72028 17.8937C4.81099 17.3859 5.59049 17.3838 5.72028 17.8937V17.8937ZM6.56571 18.4479C5.44488 17.9763 6.25151 17.927 6.56571 18.4479V18.4479ZM11.379 21.3505C11.8492 21.7682 13.5371 21.6568 11.9495 21.4023C11.7147 21.0546 10.4571 21.1382 11.379 21.3505ZM17.9946 25.4369C17.294 25.7073 18.7177 24.8299 17.9946 25.4369V25.4369ZM19.4989 26.47C19.1871 26.5552 19.5035 26.2752 19.4989 26.47V26.47ZM19.5013 26.1972C18.7257 26.2473 20.3022 25.3493 19.5013 26.1972V26.1972ZM3.6393 16.1515C2.95687 15.1778 3.21537 14.7403 2.55678 13.9448C2.43173 13.3364 1.42731 11.957 2.03736 13.4182C2.59571 14.2734 2.76102 15.5969 3.6393 16.1515ZM19.2499 25.9275C18.6454 25.5131 20.724 24.9753 19.2499 25.9275V25.9275ZM20.3747 26.3681C19.9077 26.236 21.1129 25.7348 20.3747 26.3681V26.3681ZM5.46957 16.8171C4.92399 16.7766 5.6805 16.5029 5.46957 16.8171V16.8171ZM20.14 26.0674C20.8543 25.607 19.9754 25.6776 20.0104 26.1095L20.14 26.0674ZM10.4451 19.9568C10.0674 19.9831 10.4205 19.645 10.4451 19.9568V19.9568ZM11.0441 20.3013C10.7514 20.3617 10.8532 19.9163 11.0441 20.3013V20.3013ZM21.2862 26.3786C22.2017 25.7181 20.7319 26.2519 21.0945 26.5042L21.2862 26.3786ZM20.9355 26.2091C20.1487 26.4858 21.6816 25.5846 20.9355 26.2091V26.2091ZM22.7266 27.4013C22.1183 27.2932 23.2272 27.0665 22.7266 27.4013V27.4013ZM5.92866 16.5905C6.59917 16.7407 8.60996 18.2426 7.42404 16.6948C6.81643 16.515 7.18075 15.0298 6.56109 15.2923C6.97712 15.9875 6.90292 16.2825 6.0295 15.8452C4.93275 15.309 5.41313 16.1101 5.62808 16.3313C5.33515 16.3981 6.01454 16.585 5.92854 16.5904L5.92866 16.5905ZM2.87172 14.1765C2.99178 13.6792 1.76524 11.4432 2.29269 13.0556C2.4827 13.3937 2.46299 14.0339 2.87172 14.1765ZM8.48272 17.6357C8.13676 17.347 8.46605 17.5943 8.48272 17.6357V17.6357ZM9.33302 17.834C8.39295 17.6199 9.33302 17.3072 9.33302 17.834V17.834ZM16.7069 22.4817C16.151 22.4736 16.5662 22.122 16.7069 22.4817V22.4817ZM17.0609 22.74C16.8563 22.7791 17.0082 22.5388 17.0609 22.74V22.74ZM19.9833 24.5815C19.6325 24.5546 20.2642 24.374 19.9833 24.5815V24.5815ZM4.39824 14.5662C3.53663 14.3442 5.20232 14.255 4.39824 14.5662V14.5662ZM16.0577 21.9111C15.5447 22.0409 16.0483 21.391 16.0577 21.9111V21.9111ZM4.08075 13.8255C3.60268 13.7112 4.59701 13.6516 4.08075 13.8255V13.8255ZM5.57942 14.5517C5.42116 14.6171 5.57054 14.3808 5.57942 14.5517V14.5517ZM23.8627 25.7635C24.5269 25.6291 26.0406 26.1017 26.2847 25.5879C25.4782 25.5679 23.4952 25.0182 23.4013 25.7181L23.5779 25.7461L23.8628 25.7635H23.8627ZM6.05578 14.6719C5.64462 14.6521 6.06794 14.1445 6.05578 14.6719V14.6719ZM2.11545 11.9379C1.43448 11.7859 1.93651 10.9332 2.11545 11.9379V11.9379ZM3.0548 12.1742C2.19476 11.8838 3.06684 11.8512 3.0548 12.1742V12.1742ZM3.59174 12.4383C3.43664 12.3125 3.47082 12.5964 3.59174 12.4383V12.4383ZM6.97152 14.6059C6.59455 14.4977 7.13076 14.4594 6.97152 14.6059V14.6059ZM3.23459 11.8433C2.14562 11.7296 3.14323 11.0845 3.23459 11.8433V11.8433ZM1.30712 10.5928C1.1193 10.7248 1.27999 10.2428 1.30712 10.5928V10.5928ZM1.5942 10.3766C1.34763 10.4289 1.54737 9.96122 1.5942 10.3766V10.3766ZM3.17741 11.3215C3.84719 11.0589 1.9578 10.7773 3.04056 11.2722L3.17741 11.3215ZM24.3711 24.4129C23.827 24.2912 24.7998 24.02 24.3711 24.4129V24.4129ZM26.9317 25.7397C26.4988 25.8066 27.1035 25.2323 26.9317 25.7397V25.7397ZM3.3392 10.4918C2.80798 10.5896 3.41012 10.0004 3.3392 10.4918V10.4918ZM1.08597 8.98222C0.965055 8.2886 0.98172 7.07069 2.13917 7.48197C0.594281 7.789 3.20904 9.40274 2.8789 8.12851C3.52872 8.1605 4.15009 7.74448 3.80875 8.37509C5.08943 8.23434 5.97647 7.12397 7.21323 7.27992C8.17642 7.15194 9.22962 7.0556 10.2677 6.66743C11.1212 6.60612 11.9428 5.68734 11.4753 5.14249C10.3115 5.04396 9.09277 5.18944 7.80662 5.44563C6.3813 5.74147 5.08639 6.30457 3.64806 6.54652C2.24561 6.73507 3.92967 7.06509 3.52787 7.13905C2.79679 7.3928 4.40056 7.56384 3.43323 7.83182C2.83596 7.7182 2.21386 7.51299 2.4692 6.88299C1.12648 7.05791 -0.0539657 7.61468 1.00727 8.98124L1.08609 8.98197L1.08597 8.98222ZM4.3227 7.33393C4.63691 6.17428 6.00895 8.2886 4.83811 7.48829C4.69883 7.38319 4.46807 7.29804 4.3227 7.33393ZM4.38377 6.77144C4.62487 6.96169 4.83811 6.43351 4.38377 6.77144V6.77144ZM4.96049 6.78117C5.00209 6.24739 6.28192 7.06351 5.17142 6.97288L4.96049 6.78117ZM5.7496 6.4638C5.83329 6.7628 6.03838 6.12636 5.7496 6.4638V6.4638ZM5.95177 6.32865C6.43215 5.75193 8.66969 5.96019 7.03186 6.27196C6.59272 5.94109 6.25637 6.46684 5.95177 6.32865ZM8.87247 5.87832C8.80021 4.30241 10.3242 6.43752 8.87247 5.87832V5.87832ZM9.70148 5.87346C10.0044 5.07972 10.8778 5.55462 9.84222 5.71361C9.86436 5.79877 9.8112 6.12417 9.70148 5.87346ZM3.01258 10.0846C2.05159 9.60346 3.91762 9.53011 3.01258 10.0846V10.0846ZM3.68224 10.27C2.99178 10.1331 3.99973 9.93275 3.68224 10.27V10.27ZM1.70964 8.87079C1.09716 8.71971 2.22664 8.47301 1.70964 8.87079V8.87079ZM28.4428 25.5949C28.0475 25.8024 28.4579 25.1335 28.4428 25.5949V25.5949ZM25.7264 23.7407C25.3773 23.7869 25.8035 23.2103 25.7264 23.7407V23.7407ZM29.1897 25.774C29.9129 25.7764 31.3811 25.5487 29.8077 25.5495C29.5604 25.5879 28.3689 25.58 29.1897 25.774ZM4.271 9.94443C4.85648 9.90465 5.1865 9.29922 4.15714 9.33353C2.56238 9.16894 5.56421 9.88008 3.95278 9.67644C3.73649 9.81962 4.25811 9.98421 4.271 9.94443ZM4.78641 10.2055C4.60492 10.405 4.7251 9.82996 4.78641 10.2055V10.2055ZM5.39804 8.57471C5.04649 8.49041 5.6518 8.25964 5.39804 8.57471V8.57471ZM3.45075 5.3207C4.49605 4.96598 5.92465 4.56662 6.41792 5.49587C5.91589 4.89214 6.21513 4.29706 6.68918 5.18081C7.35969 6.07417 7.69519 4.77439 7.25934 4.47442C7.75662 5.09164 8.3213 5.38371 7.59179 4.51359C8.38492 3.55977 6.00493 4.63839 5.4641 4.6272C5.20402 4.74398 2.77696 5.24601 3.45075 5.3207ZM4.06323 4.14841C4.65917 3.69905 6.12427 4.41639 5.18407 3.70124C5.09186 3.62022 3.12559 4.24378 4.06323 4.14841ZM6.23569 4.23818C6.93248 4.2557 5.93511 3.30115 6.76546 3.73384C6.62946 3.2885 5.79826 3.20493 5.39184 3.02684C5.16193 3.43411 5.85932 4.24378 6.23569 4.23818ZM4.44423 2.26619C4.02114 2.43248 4.68533 1.93933 4.44423 2.26619V2.26619ZM5.33223 2.47846C6.45599 2.32981 5.04564 1.99492 5.10524 2.46666L5.33223 2.47846ZM3.67421 1.18197C2.88267 0.148717 5.16254 1.35544 4.35822 0.273525C3.68139 -0.264876 3.03156 0.880534 3.67421 1.18197ZM13.8279 6.65077C14.1909 6.00787 12.3302 5.78368 13.5838 6.42305C13.6991 6.46137 13.6731 6.69517 13.8279 6.65077ZM6.46037 30.5931C6.38008 30.9101 6.33033 31.442 6.31172 32.1887C6.31172 32.3354 6.24567 32.4089 6.1132 32.4089C5.98072 32.4089 5.88852 32.3448 5.83633 32.2172C5.69449 31.8719 5.5602 31.6312 5.43198 31.4937C5.2809 31.3332 5.07994 31.2361 4.82923 31.203C4.55979 31.1604 3.88855 31.1391 2.8154 31.1391C2.56967 31.1391 2.40874 31.1653 2.33332 31.2175C2.286 31.2503 2.2624 31.3214 2.2624 31.4302V34.6428C2.2624 34.7515 2.33089 34.8033 2.46774 34.7988C2.88875 34.794 3.49856 34.7652 4.29728 34.7137C4.45347 34.6945 4.55882 34.6437 4.61307 34.5609C4.66781 34.4782 4.72097 34.2646 4.77267 33.9192C4.80551 33.7301 4.91694 33.6567 5.10597 33.6995C5.26655 33.7326 5.33564 33.806 5.31192 33.9192C5.17933 34.5625 5.13651 35.3993 5.18383 36.43C5.18881 36.5526 5.11084 36.619 4.9499 36.6285C4.81731 36.6427 4.73459 36.5717 4.70175 36.4156C4.57913 35.8248 4.35056 35.509 4.01762 35.4686C3.68431 35.4287 3.14141 35.4085 2.39001 35.4085C2.30485 35.4085 2.2624 35.439 2.2624 35.5006V38.692C2.2624 38.9284 2.34962 39.0894 2.52442 39.1742C2.66188 39.2451 2.95724 39.3091 3.41085 39.3657C3.64283 39.3893 3.74416 39.4913 3.71618 39.6706C3.68759 39.8267 3.47982 39.8882 3.09178 39.8551C1.97142 39.7651 1.04692 39.77 0.31912 39.8696C0.115608 39.8976 0.0142772 39.8149 0.0142772 39.6213C0.0142772 39.4981 0.115608 39.4273 0.31912 39.4084C0.782466 39.3563 1.01396 38.9496 1.01396 38.1887V32.1176C1.01396 31.806 0.958243 31.5661 0.847424 31.3981C0.736119 31.2302 0.529201 31.0776 0.227034 30.9406C0.0377547 30.8555 -0.0330427 30.7398 0.0141556 30.5931C0.0377547 30.5034 0.075708 30.4535 0.127407 30.4443C0.174727 30.4299 0.300265 30.4394 0.503169 30.4728C0.801199 30.52 1.50346 30.5437 2.60957 30.5437C3.9147 30.5437 5.04199 30.5151 5.99252 30.4585C6.30917 30.4393 6.46779 30.4655 6.46779 30.5364C6.46779 30.5556 6.46536 30.5742 6.46037 30.5931ZM11.0594 39.5957C11.0594 39.7848 10.953 39.8675 10.7403 39.8438C10.0883 39.7823 9.27962 39.7915 8.31522 39.8719C8.12119 39.8911 8.0021 39.8861 7.95685 39.8582C7.91184 39.8296 7.8897 39.7517 7.8897 39.6236C7.8897 39.5105 8.01828 39.4149 8.27592 39.3366C8.53393 39.2588 8.66239 39.0259 8.66239 38.6383V32.2201C8.66239 31.8369 8.6068 31.5556 8.49598 31.3759C8.38467 31.1962 8.18968 31.0568 7.91087 30.9578C7.76416 30.9055 7.69069 30.8322 7.69069 30.7376C7.69069 30.5957 7.79713 30.4894 8.00989 30.4185C8.33152 30.3145 8.66494 30.1541 9.01017 29.9363C9.29385 29.766 9.47364 29.6812 9.54894 29.6812C9.72374 29.6812 9.81157 29.8014 9.81157 30.0426C9.81157 30.024 9.80208 30.2604 9.78286 30.7518C9.76912 31.2198 9.76425 31.6807 9.76912 32.1349L9.7971 38.4678C9.7971 38.7563 9.86814 38.9657 10.01 39.0957C10.1518 39.2256 10.3956 39.3119 10.7403 39.3543C10.953 39.3778 11.0594 39.4582 11.0594 39.5955V39.5957ZM17.4736 39.1774C17.4736 39.2769 17.2929 39.4268 16.9313 39.6275C16.5694 39.8286 16.2798 39.9291 16.0625 39.9291C15.8779 39.9291 15.715 39.8394 15.5732 39.6596C15.4313 39.48 15.3317 39.3903 15.2751 39.3903C15.2327 39.3903 15.0081 39.4873 14.6012 39.6808C14.1951 39.8748 13.7858 39.9719 13.3746 39.9719C12.987 39.9719 12.6629 39.8582 12.403 39.6317C12.1193 39.3808 11.9775 39.0405 11.9775 38.6101C11.9775 37.7921 12.9136 37.2061 14.786 36.8515C15.1071 36.7899 15.2706 36.6599 15.275 36.4613L15.2895 36.0074C15.318 35.2321 14.9752 34.8446 14.2611 34.8446C14.0577 34.8446 13.8651 35.0263 13.6828 35.3903C13.5012 35.7547 13.2396 35.9507 12.8993 35.9793C12.5117 36.0167 12.3177 35.8537 12.3177 35.4898C12.3177 35.2627 12.6062 34.9983 13.183 34.6954C13.7883 34.3788 14.37 34.2202 14.9278 34.2202C15.8874 34.2202 16.3625 34.6767 16.3532 35.5892L16.3246 38.5107C16.3202 38.8181 16.4502 38.9716 16.7147 38.9716C16.7669 38.9716 16.8663 38.9599 17.0126 38.9362C17.1594 38.9126 17.2446 38.9007 17.2683 38.9007C17.4051 38.9007 17.4736 38.9933 17.4736 39.1774ZM15.2895 37.5608C15.2944 37.4424 15.2667 37.3641 15.2076 37.3267C15.1485 37.2889 15.0556 37.2814 14.9278 37.3051C13.7883 37.5085 13.2185 37.8797 13.2185 38.4186C13.2185 38.9624 13.514 39.2341 14.1049 39.2341C14.3414 39.2341 14.5852 39.1894 14.8353 39.0997C15.1288 38.9953 15.2751 38.8703 15.2751 38.7235L15.2895 37.5608ZM22.7462 38.3616C22.7462 38.8627 22.553 39.2614 22.168 39.5567C21.7828 39.8523 21.2569 40 20.5901 40C20.1458 40 19.7011 39.9528 19.2568 39.8582C18.8736 39.773 18.6515 39.6952 18.5901 39.6242C18.5521 39.5577 18.5334 39.2342 18.5334 38.6525C18.5334 38.402 18.5901 38.2718 18.7037 38.2625C18.8171 38.2482 18.9141 38.3099 18.9944 38.4467C19.3489 39.0663 19.9211 39.3761 20.7107 39.3761C21.377 39.3761 21.7104 39.1441 21.7104 38.6806C21.7104 38.4777 21.635 38.3073 21.4834 38.1703C21.3179 38.0143 20.9968 37.8322 20.5191 37.6242C19.8287 37.317 19.3676 37.0476 19.1362 36.8156C18.8854 36.5699 18.7603 36.239 18.7603 35.8227C18.7603 35.3119 18.9565 34.9151 19.3489 34.6314C19.7129 34.357 20.1999 34.2202 20.8096 34.2202C21.1928 34.2202 21.5425 34.2506 21.8597 34.3122C22.2 34.3738 22.3773 34.4492 22.3915 34.5392C22.429 34.8037 22.5073 35.1869 22.6255 35.6883C22.6398 35.7494 22.5732 35.7991 22.427 35.8369C22.2708 35.87 22.1669 35.8439 22.1148 35.7591C21.7414 35.1489 21.2687 34.8441 20.6964 34.8441C20.0487 34.8441 19.7248 35.0521 19.7248 35.4681C19.7248 35.7 19.8124 35.8841 19.9872 36.0211C20.1434 36.1394 20.5096 36.324 21.0865 36.5747C21.6917 36.8347 22.103 37.0687 22.3207 37.2766C22.6044 37.5459 22.7462 37.9079 22.7462 38.3616ZM31.0895 39.6027C31.0895 39.7681 30.9782 39.8557 30.7561 39.8651C30.4251 39.87 29.9921 39.8936 29.4583 39.936C29.1934 39.9882 29.0042 39.9552 28.891 39.837C28.1438 39.0333 27.5101 38.1916 26.9899 37.312C26.9476 37.2366 26.8933 37.1988 26.8269 37.1988C26.7466 37.1988 26.6073 37.2697 26.4088 37.4116C26.1862 37.5343 26.0754 37.7094 26.0754 37.9359C26.0754 38.097 26.0798 38.3285 26.0896 38.6315C26.0991 38.9338 26.1744 39.1322 26.3162 39.2268C26.4156 39.2934 26.6453 39.3451 27.0042 39.383C27.2264 39.4115 27.3377 39.4942 27.3377 39.6312C27.3377 39.74 27.3199 39.8076 27.2844 39.8331C27.2491 39.8591 27.1555 39.8651 27.0042 39.8509C26.5314 39.8085 25.7326 39.8321 24.6074 39.9218C24.3237 39.9454 24.1699 39.9099 24.1463 39.8153C24.137 39.7825 24.132 39.7351 24.132 39.6735C24.132 39.5273 24.2764 39.4159 24.565 39.3407C24.825 39.274 24.9549 38.9692 24.9549 38.4255V32.2271C24.9549 31.8396 24.9172 31.5701 24.8412 31.4189C24.7373 31.2249 24.5196 31.0736 24.1887 30.9648C24.033 30.9131 23.9548 30.8398 23.9548 30.7451C23.9548 30.6077 24.0661 30.5013 24.2881 30.4261C24.6454 30.3065 24.9862 30.142 25.3021 29.9366C25.5623 29.7666 25.7232 29.6813 25.7843 29.6813C25.9784 29.6813 26.0754 29.804 26.0754 30.0503C26.0754 30.0168 26.073 30.2512 26.068 30.7522C26.0629 31.2155 26.0606 31.6789 26.0612 32.1423L26.0754 36.5817C26.0754 36.7048 26.1084 36.7658 26.1744 36.7658C26.2453 36.7658 26.3542 36.7048 26.5009 36.5817C26.8933 36.2743 27.3755 35.8725 27.9474 35.376C28.0611 35.2579 28.1177 35.1633 28.1177 35.0924C28.1177 34.9649 27.9262 34.8746 27.5435 34.823C27.3781 34.8037 27.2998 34.7117 27.309 34.5462C27.3233 34.3807 27.4062 34.3098 27.5573 34.3334C27.8981 34.3809 28.3946 34.4069 29.0466 34.4117C29.5007 34.4161 29.9522 34.4187 30.4015 34.4187C30.5477 34.4235 30.6211 34.5108 30.6211 34.6812C30.6211 34.8418 30.5053 34.9294 30.2739 34.9437C29.9094 34.9575 29.5666 35.0402 29.2456 35.1919C28.7964 35.3948 28.3162 35.7518 27.8056 36.2626C27.7681 36.291 27.7489 36.3264 27.7489 36.3689C27.7489 36.435 27.8292 36.5936 27.9902 36.8442C28.5812 37.7425 29.1391 38.4207 29.6637 38.8795C29.9995 39.1678 30.3138 39.312 30.6068 39.312C30.8245 39.312 30.9593 39.3273 31.011 39.3582C31.0633 39.389 31.0895 39.4706 31.0895 39.6027Z" fill="#EEEEEE"/>
</svg>
