<svg width="40" height="40" viewBox="0 0 40 40" fill="none" xmlns="http://www.w3.org/2000/svg">
<path d="M39.2463 18.2181L21.7817 0.75435C20.7765 -0.25145 19.1452 -0.25145 18.1388 0.75435L14.5121 4.38098L19.1127 8.98153C20.1818 8.62028 21.4077 8.86262 22.2599 9.71483C23.1162 10.5725 23.3568 11.8089 22.9868 12.8814L27.4205 17.3153C28.4932 16.9457 29.7309 17.1848 30.5876 18.043C31.785 19.2398 31.785 21.1797 30.5876 22.3774C29.3899 23.5752 27.45 23.5752 26.2517 22.3774C25.3511 21.4758 25.1286 20.1531 25.5845 19.0436L21.4498 14.9088L21.4493 25.7898C21.749 25.938 22.0228 26.1338 22.2599 26.3695C23.4573 27.5664 23.4573 29.5064 22.2599 30.7051C21.0623 31.9023 19.1214 31.9023 17.9255 30.7051C16.7281 29.5064 16.7281 27.5666 17.9255 26.3697C18.2124 26.0826 18.5534 25.8552 18.9288 25.7007V14.7184C18.5529 14.5649 18.2117 14.3374 17.9255 14.0494C17.0183 13.1435 16.8002 11.8124 17.265 10.6984L12.7299 6.16289L0.754701 18.1373C-0.251567 19.1441 -0.251567 20.7755 0.754701 21.7815L18.2197 39.2455C19.2252 40.2515 20.8562 40.2515 21.8629 39.2455L39.2462 21.8626C40.2522 20.8563 40.2523 19.2239 39.2463 18.2181Z" fill="#DE4C36"/>
</svg>
