<svg width="40" height="40" viewBox="0 0 40 40" fill="none" xmlns="http://www.w3.org/2000/svg">
<g clip-path="url(#clip0_244_812)">
<path d="M0 20C0 14.4792 1.95312 9.76562 5.85941 5.85937C9.76562 1.95312 14.4792 0 20 0C25.5208 0 30.2343 1.95312 34.1406 5.85937C38.0468 9.76562 40 14.4792 40 20C40 25.5208 38.0469 30.2343 34.1406 34.1406C30.2344 38.0468 25.5208 40 20 40C14.4792 40 9.76562 38.0469 5.85941 34.1406C1.95312 30.2344 0 25.5208 0 20ZM2.1875 20C2.1875 24.8958 3.93229 29.0885 7.42187 32.5781C10.9114 36.0677 15.1042 37.8125 20 37.8125C24.8958 37.8125 29.0886 36.0677 32.5781 32.5781C36.0677 29.0886 37.8125 24.8958 37.8125 20C37.8125 15.1042 36.0678 10.9114 32.5781 7.42187C29.0886 3.93229 24.8958 2.1875 20 2.1875C15.1042 2.1875 10.9115 3.93229 7.42187 7.42187C3.93229 10.9114 2.1875 15.1042 2.1875 20ZM7.81253 24.2969C7.70837 24.1927 7.70837 24.0885 7.81253 23.9844C8.02083 23.776 8.28128 23.6979 8.59374 23.75C8.90624 23.8021 9.08853 23.8541 9.14062 23.9062C9.5052 24.0625 9.90886 24.414 10.3515 24.9609C10.7942 25.5078 11.1458 25.8854 11.4062 26.0937C12.6562 27.1354 13.9322 27.2135 15.2343 26.3281C15.3385 25.9635 15.5078 25.651 15.7421 25.3906C15.9764 25.1301 16.1979 24.9479 16.4062 24.8437C16.6146 24.7395 16.9791 24.5833 17.5 24.3749C15.7812 24.2187 14.388 23.9192 13.3203 23.4765C12.2526 23.0338 11.4062 22.4739 10.7812 21.7968C9.94787 20.8593 9.44003 19.6354 9.25774 18.1249C9.07541 16.6145 9.19262 15.2343 9.60933 13.9843C9.92183 13.2031 10.3645 12.5 10.9374 11.8749C10.5207 10.5729 10.5989 9.08849 11.1718 7.42183C12.8384 7.52599 14.3489 8.09891 15.703 9.14058C18.3072 8.46349 21.0155 8.43745 23.828 9.06245C24.1926 8.80203 24.7525 8.47653 25.5076 8.08587C26.2629 7.69525 27.2134 7.47387 28.3592 7.42179C28.5676 7.9947 28.7108 8.67179 28.7889 9.45304C28.8671 10.2343 28.828 10.9635 28.6718 11.6405C29.8696 12.8905 30.4946 14.5572 30.5467 16.6405C30.5467 18.3072 30.2603 19.6874 29.6874 20.7811C29.1145 21.8749 28.0989 22.7864 26.6405 23.5155C25.6509 23.9843 24.3489 24.2707 22.7343 24.3749C23.4635 24.7394 23.9973 25.1171 24.3359 25.5077C24.6744 25.8983 24.8958 26.5103 25 27.3436V29.8046L25.0781 32.1874C25.2343 32.4478 25.4166 32.6692 25.625 32.8515C25.8333 33.0338 26.0156 33.164 26.1719 33.2421C26.3281 33.3203 26.3802 33.4375 26.3281 33.5937C26.276 33.75 26.0676 33.8281 25.7031 33.8281C24.8176 33.8281 24.1146 33.5156 23.5937 32.8906C23.4375 32.6301 23.3594 32.3177 23.3594 31.9531V28.2031C23.3594 27.7864 23.2552 27.4869 23.0469 27.3046C22.8385 27.1223 22.6302 27.0051 22.4219 26.953V31.8749C22.4219 32.7603 22.526 33.3332 22.7344 33.5936C22.9427 33.8541 23.0729 34.1145 23.125 34.3749C23.1771 34.427 23.138 34.466 23.0078 34.4921C22.8776 34.5181 22.6563 34.4791 22.3437 34.3749C21.6666 34.2186 21.1979 33.8671 20.9375 33.3202C20.6771 32.7733 20.5469 32.1873 20.5469 31.5623V26.7187H19.5312V31.5625C19.5312 32.1875 19.401 32.7865 19.1406 33.3593C18.776 34.0886 18.0989 34.4791 17.1094 34.5312C16.9531 34.4791 16.875 34.427 16.875 34.375C16.9271 34.3229 17.0833 34.0625 17.3437 33.5938C17.3958 33.4896 17.4609 33.2813 17.5391 32.9688C17.6172 32.6563 17.6563 32.2917 17.6563 31.875V26.9531C17.4479 27.0052 17.2526 27.1223 17.0703 27.3047C16.888 27.487 16.7969 27.7865 16.7969 28.2031V31.9531C16.7969 32.3177 16.7187 32.6302 16.5625 32.8906C16.0937 33.5156 15.3906 33.8282 14.4532 33.8282C14.0886 33.8282 13.8802 33.75 13.8282 33.5938C13.776 33.4896 13.7891 33.3985 13.8672 33.3203C13.9454 33.2422 14.0626 33.1511 14.2188 33.0469C14.3751 32.9427 14.4792 32.8646 14.5313 32.8125C14.7396 32.6563 14.8959 32.4479 15.0001 32.1875C15.1563 31.9792 15.1954 31.4323 15.1172 30.5469C15.0391 29.6615 15.0261 29.0886 15.0781 28.8281C13.7239 29.2969 12.3438 29.0625 10.9375 28.125C10.5208 27.7083 10.1042 27.1093 9.68749 26.3281C9.37499 25.7552 8.74999 25.0781 7.81253 24.2969Z" fill="#EEEEEE"/>
</g>
<defs>
<clipPath id="clip0_244_812">
<rect width="40" height="40" fill="white"/>
</clipPath>
</defs>
</svg>
