<svg width="44" height="40" viewBox="0 0 44 40" fill="none" xmlns="http://www.w3.org/2000/svg">
<g clip-path="url(#clip0_244_814)">
<path d="M21.7045 40.0073L29.6871 15.4395H13.7217L21.7045 40.0073Z" fill="#E24329"/>
<path d="M21.7048 40.0071L13.722 15.4392H2.53467L21.7048 40.0071Z" fill="#FC6D26"/>
<path d="M2.53451 15.4392L0.108736 22.9053C0.000878586 23.2372 0.000863707 23.5948 0.108693 23.9267C0.216523 24.2586 0.426662 24.5479 0.708994 24.753L21.7046 40.0072L2.53434 15.4394L2.53451 15.4392Z" fill="#FCA326"/>
<path d="M2.53467 15.4394H13.722L8.91431 0.642292C8.66689 -0.11913 7.58975 -0.118961 7.34249 0.642292L2.53467 15.4394Z" fill="#E24329"/>
<path d="M21.7048 40.0071L29.6874 15.4392H40.8749L21.7048 40.0071Z" fill="#FC6D26"/>
<path d="M40.8747 15.4392L43.3005 22.9053C43.4083 23.2372 43.4083 23.5948 43.3004 23.9267C43.1926 24.2586 42.9824 24.5479 42.7 24.753L21.7046 40.0072L40.8747 15.4394V15.4392Z" fill="#FCA326"/>
<path d="M40.875 15.4394H29.6875L34.4953 0.642292C34.7427 -0.11913 35.8199 -0.118961 36.0671 0.642292L40.875 15.4394Z" fill="#E24329"/>
</g>
<defs>
<clipPath id="clip0_244_814">
<rect width="43.3839" height="40" fill="white"/>
</clipPath>
</defs>
</svg>
