<svg width="36" height="40" viewBox="0 0 36 40" fill="none" xmlns="http://www.w3.org/2000/svg">
<path d="M3.2409 30.4862L1.77246 29.6384L18.131 1.30536L19.5994 2.15316L3.2409 30.4862Z" fill="#E535AB"/>
<path d="M1.43604 27.3749H34.1531V29.0705H1.43604V27.3749Z" fill="#E535AB"/>
<path d="M18.4482 37.776L2.0835 28.3275L2.9313 26.8591L19.296 36.3075L18.4482 37.776ZM32.6641 13.1509L16.2994 3.70251L17.1472 2.23407L33.5119 11.6825L32.6641 13.1509Z" fill="#E535AB"/>
<path d="M2.93569 13.1444L2.08789 11.6761L18.4525 2.22766L19.3004 3.696L2.93569 13.1444Z" fill="#E535AB"/>
<path d="M32.3624 30.4865L16.0039 2.15353L17.4723 1.30573L33.8308 29.6387L32.3624 30.4865ZM2.7334 10.5516H4.42901V29.4484H2.7334V10.5516Z" fill="#E535AB"/>
<path d="M31.1704 10.5516H32.866V29.4484H31.1704V10.5516Z" fill="#E535AB"/>
<path d="M18.1595 37.0582L17.4189 35.7754L31.6518 27.5579L32.3924 28.8405L18.1595 37.0582Z" fill="#E535AB"/>
<path d="M35.1134 30C34.1328 31.7058 31.9469 32.2881 30.2411 31.3075C28.5352 30.3269 27.953 28.141 28.9336 26.4351C29.9142 24.7293 32.1001 24.1471 33.8059 25.1277C35.522 26.1185 36.1042 28.2942 35.1134 30ZM6.65578 13.5649C5.67519 15.2707 3.48928 15.8529 1.78346 14.8723C0.0776371 13.8917 -0.50459 11.7058 0.476003 10C1.4566 8.29418 3.6425 7.71195 5.34832 8.69254C7.05414 9.68335 7.63637 11.859 6.65578 13.5649ZM0.486217 30C-0.494375 28.2942 0.0878514 26.1185 1.79367 25.1277C3.4995 24.1471 5.67519 24.7293 6.66599 26.4351C7.64659 28.141 7.06436 30.3167 5.35854 31.3075C3.6425 32.2881 1.46681 31.7058 0.486217 30ZM28.9438 13.5649C27.9632 11.859 28.5455 9.68335 30.2513 8.69254C31.9571 7.71195 34.1328 8.29418 35.1236 10C36.1042 11.7058 35.522 13.8815 33.8161 14.8723C32.1103 15.8529 29.9244 15.2707 28.9438 13.5649ZM17.7998 40C15.8284 40 14.2349 38.4065 14.2349 36.4351C14.2349 34.4637 15.8284 32.8703 17.7998 32.8703C19.7712 32.8703 21.3647 34.4637 21.3647 36.4351C21.3647 38.3963 19.7712 40 17.7998 40ZM17.7998 7.12972C15.8284 7.12972 14.2349 5.53626 14.2349 3.56486C14.2349 1.59346 15.8284 0 17.7998 0C19.7712 0 21.3647 1.59346 21.3647 3.56486C21.3647 5.53626 19.7712 7.12972 17.7998 7.12972Z" fill="#E535AB"/>
</svg>
