<svg width="40" height="40" viewBox="0 0 40 40" fill="none" xmlns="http://www.w3.org/2000/svg">
<g clip-path="url(#clip0_244_692)">
<path d="M0 0H40V40H0V0Z" fill="#F0DB4F"/>
<path d="M36.7261 30.4601C36.4333 28.635 35.2432 27.1026 31.7185 25.673C30.4942 25.1102 29.1292 24.7072 28.7223 23.7794C28.5778 23.2395 28.5588 22.9353 28.6501 22.6083C28.9124 21.5475 30.1786 21.2167 31.1824 21.5209C31.8288 21.7376 32.4409 22.2358 32.8098 23.0304C34.536 21.9126 34.5322 21.9201 35.7375 21.1521C35.2965 20.4677 35.0607 20.1521 34.7717 19.8593C33.7337 18.6996 32.3193 18.1027 30.0569 18.1483C29.6653 18.1977 29.2699 18.2509 28.8782 18.3004C27.749 18.5856 26.6729 19.1787 26.0417 19.9734C24.1482 22.1217 24.6881 25.8821 26.9923 27.4297C29.2622 29.1331 32.5968 29.5209 33.0227 31.1141C33.4371 33.0647 31.5893 33.6958 29.7527 33.4715C28.3991 33.1901 27.6463 32.5019 26.8326 31.251C25.3345 32.1179 25.3345 32.1179 23.7946 33.0038C24.1596 33.8023 24.5436 34.1635 25.1558 34.8555C28.0531 37.7947 35.3041 37.6502 36.6045 33.2015C36.6577 33.0494 37.0075 32.0304 36.7261 30.4601ZM21.7451 18.384H18.0037C18.0037 21.6159 17.9885 24.8251 17.9885 28.057C17.9885 30.114 18.095 32 17.7604 32.5779C17.2128 33.7148 15.7946 33.5741 15.1482 33.3536C14.4904 33.0304 14.1558 32.5703 13.768 31.9201C13.6615 31.7338 13.5817 31.5893 13.555 31.5779C12.5398 32.1977 11.5284 32.8212 10.5132 33.441C11.0189 34.4791 11.7641 35.3802 12.7185 35.9657C14.1444 36.8212 16.0607 37.0836 18.0646 36.6235C19.3687 36.2433 20.4942 35.4563 21.0835 34.2585C21.9352 32.6882 21.7527 30.7871 21.7451 28.6844C21.7641 25.2547 21.7451 21.8251 21.7451 18.384Z" fill="#323330"/>
</g>
<defs>
<clipPath id="clip0_244_692">
<rect width="40" height="40" fill="white"/>
</clipPath>
</defs>
</svg>
