<svg width="36" height="40" viewBox="0 0 36 40" fill="none" xmlns="http://www.w3.org/2000/svg">
<path d="M33.7518 19.6944C33.7518 17.6382 32.0946 15.9712 30.0505 15.9712C29.9189 15.9712 29.7893 15.9783 29.6614 15.9919L34.7451 0.909424H13.141L18.2177 15.9788C18.1428 15.974 18.0678 15.9716 17.9927 15.9714C15.9486 15.9714 14.2914 17.6381 14.2914 19.6945C14.2914 21.3566 15.3743 22.7638 16.8688 23.2425C16.0795 24.6178 15.0862 25.8567 13.9585 26.927C12.425 28.3821 10.67 29.4856 8.77192 30.1654C6.51198 28.9976 5.44485 26.4005 6.40772 24.1233C6.51649 23.8661 6.62751 23.6055 6.73361 23.346C8.37079 22.9616 9.59093 21.4853 9.59093 19.7212C9.59093 17.6649 7.93374 15.998 5.88951 15.998C3.84529 15.998 2.18823 17.6649 2.18823 19.7212C2.18823 20.9821 2.81183 22.096 3.76526 22.7694C2.84917 24.8676 1.5025 27.0635 1.08292 29.6084C0.580073 32.6584 1.08123 35.896 3.70369 37.7244C9.81115 41.9824 16.4408 35.0847 23.4308 33.3507C25.964 32.7225 28.7449 32.8236 30.9768 31.5234C32.6528 30.547 33.7579 28.9286 34.0714 27.1118C34.3813 25.317 33.9296 23.5299 32.8909 22.0809C33.4482 21.4121 33.753 20.567 33.7518 19.6944Z" fill="#99425B"/>
<path d="M33.1805 26.9561C32.9083 28.5335 31.9398 29.9112 30.5235 30.7365C29.2032 31.5056 27.6211 31.7352 25.9459 31.9781C25.0485 32.1082 24.1206 32.243 23.2141 32.4678C20.8172 33.0624 18.4956 34.2224 16.2506 35.3441C11.7575 37.5891 7.87726 39.5276 4.21854 36.9768C1.53846 35.1085 1.66216 31.6515 1.97438 29.7572C2.26378 28.002 3.04616 26.3856 3.80262 24.8225C3.93149 24.5569 4.05933 24.2907 4.18613 24.024C4.56745 24.1774 4.96757 24.2783 5.3757 24.3242C4.60557 26.8808 5.81669 29.6606 8.35856 30.9742L8.70656 31.154L9.07486 31.0221C11.0844 30.3021 12.9362 29.147 14.5786 27.5882C15.6402 26.5806 16.5531 25.466 17.3033 24.2749C17.5314 24.3095 17.7618 24.3269 17.9924 24.3269C20.3255 24.3269 22.2574 22.5725 22.5564 20.3066C23.5114 20.2714 24.5257 20.2711 25.4862 20.3063C25.7849 22.5725 27.7171 24.327 30.0501 24.327C31.0257 24.327 31.9305 24.0195 32.676 23.4971C33.1935 24.5627 33.3866 25.7617 33.1805 26.9561ZM5.88939 16.9072C7.4319 16.9072 8.6867 18.1696 8.6867 19.7212C8.6867 20.2785 8.52411 20.7982 8.245 21.2359C7.78005 21.9653 6.98963 22.4653 6.08157 22.5277C6.01803 22.5319 5.95392 22.5351 5.88939 22.5351C5.54561 22.5351 5.21634 22.472 4.91187 22.3575C4.29868 22.1255 3.78519 21.6856 3.45996 21.1135C3.21847 20.6897 3.09159 20.2097 3.09195 19.7212C3.09195 18.1696 4.34689 16.9072 5.88939 16.9072ZM15.1953 19.6944C15.1953 18.2847 16.2313 17.1142 17.5774 16.9118C17.7129 16.8912 17.8516 16.8806 17.9926 16.8806C18.8894 16.8806 19.6878 17.3079 20.1998 17.9701C20.3281 18.1352 20.4376 18.3141 20.5264 18.5037C20.7003 18.8762 20.7903 19.2828 20.7899 19.6944C20.7899 19.9194 20.7628 20.138 20.7131 20.3478C20.4405 21.4958 19.4673 22.3733 18.2748 22.4941C18.1821 22.5035 18.088 22.5083 17.9926 22.5083C17.4545 22.5087 16.9279 22.3521 16.4766 22.0574C15.7064 21.5556 15.1953 20.6841 15.1953 19.6944ZM26.8704 16.3483C26.2617 16.9328 25.8236 17.6737 25.6037 18.4908C24.5493 18.4517 23.4938 18.4517 22.4395 18.4908C22.2028 17.6075 21.7122 16.8283 21.0521 16.2365L23.9468 10.3489L26.8704 16.3483ZM14.4016 1.81892H33.4839L28.9768 15.1901C28.7829 15.2368 28.5922 15.2962 28.406 15.368L23.9538 6.23185L19.4889 15.3134C19.2942 15.2462 19.0953 15.1923 18.8935 15.152L14.4016 1.81892ZM32.8474 19.6946C32.8474 19.9766 32.8056 20.249 32.7285 20.5062C32.5457 21.1118 32.166 21.6381 31.6503 22.0007C31.1816 22.3316 30.6227 22.5089 30.0501 22.5084C28.7586 22.5084 27.669 21.623 27.3486 20.424C27.285 20.1862 27.2528 19.9409 27.2528 19.6946C27.2528 19.3099 27.33 18.9431 27.4695 18.609C27.5415 18.438 27.6301 18.2746 27.7341 18.1211C28.2375 17.3737 29.087 16.8807 30.0501 16.8807C30.1385 16.8807 30.2255 16.8853 30.3119 16.8935C31.7321 17.0266 32.8474 18.2317 32.8474 19.6946ZM34.6555 19.6946C34.6555 17.4329 33.0355 15.5458 30.9018 15.1428L36.0059 0H11.8799L16.9918 15.1734C14.9322 15.6344 13.3873 17.4858 13.3873 19.6944C13.3873 21.3529 14.2586 22.8096 15.5644 23.6282C14.9363 24.5695 14.1916 25.4553 13.338 26.2654C11.9843 27.5499 10.4763 28.5241 8.85056 29.1652C7.21295 28.1304 6.52074 26.179 7.23958 24.4791L7.29594 24.3459L7.40161 24.0959C9.20026 23.4648 10.4946 21.7428 10.4946 19.7212C10.4946 17.1667 8.42872 15.0886 5.88939 15.0886C3.35007 15.0886 1.28386 17.1667 1.28386 19.7212C1.28386 21.0105 1.8108 22.1781 2.6587 23.0188C2.50056 23.3558 2.34003 23.6917 2.17713 24.0264C1.40179 25.6281 0.523175 27.4435 0.190807 29.4595C-0.469139 33.4633 0.595454 36.6639 3.1886 38.4716C4.7621 39.5686 6.36012 40 7.96814 40C10.9959 40 14.059 38.4698 17.0548 36.9729C19.2123 35.895 21.4434 34.7804 23.6471 34.2336C24.4671 34.0302 25.3107 33.9077 26.204 33.7782C27.9755 33.5211 29.8071 33.2554 31.4296 32.3102C33.3104 31.2144 34.5978 29.3762 34.9618 27.2673C35.2743 25.4567 34.8983 23.6434 33.9811 22.1053C34.423 21.3798 34.6565 20.5453 34.6555 19.6944V19.6946Z" fill="white"/>
</svg>
