<svg width="40" height="40" viewBox="0 0 40 40" fill="none" xmlns="http://www.w3.org/2000/svg">
<path d="M36.3656 4.28491H19.167C19.167 6.34397 19.985 8.3187 21.4409 9.77468C22.8969 11.2307 24.8716 12.0486 26.9307 12.0486H30.0989V15.1075C30.1017 19.3914 33.5737 22.8636 37.8575 22.8663V5.77689C37.8575 4.95313 37.1897 4.28491 36.3656 4.28491Z" fill="#2684FF"/>
<path d="M27.8557 12.8544H10.6572C10.6599 17.1382 14.1319 20.6104 18.4159 20.6132H21.5841V23.6819C21.5895 27.9658 25.0639 31.4355 29.3478 31.4355V14.3466C29.3478 13.5226 28.6797 12.8544 27.8557 12.8544Z" fill="url(#paint0_linear_244_846)"/>
<path d="M19.3411 21.4188H2.14258C2.14258 25.7066 5.61863 29.1825 9.90628 29.1825H13.0844V32.2413C13.0872 36.5213 16.5532 39.9919 20.8333 40V22.9109C20.8333 22.0869 20.1652 21.4188 19.3411 21.4188Z" fill="url(#paint1_linear_244_846)"/>
<defs>
<linearGradient id="paint0_linear_244_846" x1="4688.84" y1="21.409" x2="2833.46" y2="2189.68" gradientUnits="userSpaceOnUse">
<stop offset="0.18" stop-color="#0052CC"/>
<stop offset="1" stop-color="#2684FF"/>
</linearGradient>
<linearGradient id="paint1_linear_244_846" x1="4806.06" y1="45.5948" x2="2659.87" y2="2410.5" gradientUnits="userSpaceOnUse">
<stop offset="0.18" stop-color="#0052CC"/>
<stop offset="1" stop-color="#2684FF"/>
</linearGradient>
</defs>
</svg>
