<svg width="150" height="39" viewBox="0 0 150 39" fill="none" xmlns="http://www.w3.org/2000/svg">
<path fill-rule="evenodd" clip-rule="evenodd" d="M41.079 5.78547C40.2412 5.13695 38.9045 4.98474 37.7366 5.78163C36.1352 6.87784 35.9625 8.88734 36.8285 10.444C37.6855 11.9841 39.3048 12.5175 41.1557 12.3499C43.2484 12.1606 44.9253 11.0094 45.9013 9.674C46.78 8.47034 47.7253 5.5629 45.8539 2.78848C44.4277 0.677934 42.5692 0 40.5776 0C38.3839 0.00255824 36.872 1.6539 35.8231 2.89721C34.1948 4.82868 33.4541 5.25591 32.0535 5.37359C30.6541 5.48871 29.3546 4.89008 28.7112 4.2275C28.0665 3.56235 27.7083 3.06605 27.7083 3.06605C27.7083 3.06605 28.4886 4.52425 29.5362 5.39789C30.6618 6.33549 32.4014 6.79597 34.26 6.12187C36.469 5.32242 37.6791 3.95632 38.4171 3.53293C39.9227 2.66953 41.9731 3.37176 42.408 4.92206C42.912 6.7205 41.9424 7.93439 41.9424 7.93439C41.9424 7.93439 42.2762 6.71283 41.079 5.78547ZM144.192 23.1726C144.192 17.9947 140.008 13.7979 134.845 13.7979C129.682 13.7979 125.497 17.9934 125.497 23.1726C125.497 28.3492 129.682 32.546 134.845 32.546C140.008 32.546 144.192 28.3504 144.192 23.1726ZM134.845 7.97148C143.216 7.97148 150 14.7764 150 23.1726C150 31.5674 143.216 38.3736 134.845 38.3736C126.474 38.3736 119.687 31.5674 119.687 23.1726C119.687 14.7777 126.474 7.97148 134.845 7.97148ZM2.87291 11.5441V34.8011C2.87291 36.4396 4.11877 37.6829 5.74581 37.6829H9.23526V26.9946L17.2157 35.1387C19.5782 37.4501 21.0211 37.6829 23.0114 37.6829H27.6495L13.0739 23.1726L27.6495 8.66221H19.7061L9.23654 19.3531L9.23526 19.3505L9.20967 11.5454C9.20967 10.1153 8.05207 8.66349 6.33677 8.66349H0C1.56948 8.66349 2.87419 10.0897 2.87419 11.5454M37.6612 34.8023C37.6612 36.4486 38.9672 37.6842 40.5341 37.6842H44.0235V18.3324C44.0235 16.6414 42.7239 15.4505 41.1506 15.4505H37.6612V34.8023ZM87.9869 8.66221C89.6472 8.66221 90.8406 9.99378 90.8406 11.5441C90.8406 13.2069 92.0584 14.4707 93.7135 14.4707H99.5131V34.8011C99.5131 36.5381 100.795 37.6829 102.386 37.6829H105.874V14.4707H114.548V11.5441C114.548 10.0552 113.397 8.66221 111.675 8.66221H87.9869ZM54.3435 8.66221H60.624C62.6232 8.66221 63.8678 9.60236 65.2684 11.4533L75.614 28.1304H75.6958V8.66221H78.7785C80.3953 8.66221 81.6527 9.87354 81.6527 11.5441V37.6829H79.3158C76.5145 37.6829 75.2302 37.0932 73.5022 34.7947L63.2538 18.2556H63.172V37.6829H60.0893C58.5607 37.6829 57.2151 36.5573 57.2151 34.8011V11.5441C57.2151 9.97075 55.9744 8.66221 54.3435 8.66221Z" fill="#202124"/>
</svg>
