<svg width="70" height="70" viewBox="0 0 70 70" fill="none" xmlns="http://www.w3.org/2000/svg">
<path d="M70.0001 -1.47363L5.16802 -3.69549e-05C-3.68417 -2.94735 4.8399e-05 2.25582 4.8399e-05 5.04489V64.9414C4.8399e-05 67.7304 -3.59421 70 -0.736792 70L70.0001 70.7369C72.8575 70.7369 70.0001 67.7304 70.0001 64.955V5.04489C70.0001 2.25582 72.8575 -1.47363 70.0001 -1.47363ZM20.7676 59.6504H10.377V26.2363H20.7676V59.6504ZM15.5723 21.6836C12.2364 21.6836 9.54302 18.9902 9.54302 15.6679C9.54302 12.3457 12.2364 9.65231 15.5723 9.65231C18.8946 9.65231 21.5879 12.3457 21.5879 15.6679C21.5879 18.9765 18.8946 21.6836 15.5723 21.6836ZM59.6504 59.6504H49.2735V43.4082C49.2735 39.539 49.2051 34.5488 43.8731 34.5488C38.4727 34.5488 37.6524 38.7734 37.6524 43.1347V59.6504H27.2891V26.2363H37.2422V30.8027H37.379C38.7598 28.1777 42.1504 25.4023 47.1954 25.4023C57.709 25.4023 59.6504 32.3203 59.6504 41.3164V59.6504Z" fill="#FDFDFD"/>
</svg>
