<svg width="150" height="33" viewBox="0 0 150 33" fill="none" xmlns="http://www.w3.org/2000/svg">
<g clip-path="url(#clip0_170_1014)">
<path d="M66.5323 24.0415V14.6263C66.5323 12.654 66.0818 10.9923 64.0745 10.9923C62.135 10.9923 61.2014 12.7917 61.2014 14.7312V24.0415H55.5252V14.2108C55.5252 12.2386 54.7642 10.9923 53.0675 10.9923C51.268 10.9923 50.2294 12.619 50.2294 14.6963V24.0415H44.5181V6.80499H50.0216V9.19271H50.0916C50.8875 7.73865 52.652 6.31958 55.2497 6.31958C57.7423 6.31958 59.4718 7.39318 60.4427 9.26268C61.5841 7.46315 63.3858 6.31958 65.9462 6.31958C70.6189 6.31958 72.2107 10.1264 72.2107 13.38V24.0415H66.5323Z" fill="#202124"/>
<path d="M93.3372 16.9789H80.8411C81.0138 18.8834 82.9183 20.2325 84.9606 20.2325C86.76 20.2325 88.0064 19.4716 88.7674 18.4329L92.714 20.9256C91.0872 23.2784 88.3869 24.5947 84.8905 24.5947C79.6975 24.5947 75.4053 21.3061 75.4053 15.4921C75.4053 9.85076 79.4898 6.24951 84.7156 6.24951C89.8037 6.24951 93.37 9.74581 93.37 15.6298C93.37 16.0802 93.37 16.5634 93.3372 16.9789ZM88.1442 13.4499C88.1442 11.6503 87.0028 10.1613 84.7528 10.1613C82.5728 10.1613 80.9788 11.6852 80.8411 13.4499H88.1442Z" fill="#202124"/>
<path d="M107.749 11.4427C107.231 11.3049 106.745 11.27 106.295 11.27C103.249 11.27 102.245 13.7626 102.245 15.1816V24.0437H96.5691V6.8072H102.038V9.29986H102.108C102.974 7.56812 104.668 6.32397 106.78 6.32397C107.231 6.32397 107.716 6.35896 107.992 6.46173L107.749 11.4427Z" fill="#202124"/>
<path d="M118.699 32.3483C115.688 32.3483 112.156 31.3796 109.837 29.6478L112.674 25.5984C114.337 27.0524 116.449 27.7783 118.386 27.7783C121.71 27.7783 123.267 25.8389 123.267 22.968V21.9293H123.164C122.091 23.3135 120.221 24.2142 117.938 24.2142C112.712 24.2142 109.699 20.1297 109.699 15.3521C109.699 10.5746 112.71 6.31738 117.903 6.31738C120.05 6.31738 122.195 7.18325 123.406 9.01777H123.476V6.8028H128.842V22.4126C128.84 29.1647 124.826 32.3483 118.699 32.3483ZM119.252 10.9572C116.691 10.9572 115.202 12.9295 115.202 15.3194C115.202 17.6043 116.691 19.7143 119.252 19.7143C121.848 19.7143 123.439 17.6721 123.439 15.3194C123.441 12.9644 121.815 10.9572 119.252 10.9572Z" fill="#202124"/>
<path d="M149.967 16.9789H137.471C137.643 18.8834 139.547 20.2325 141.59 20.2325C143.389 20.2325 144.636 19.4716 145.397 18.4329L149.343 20.9256C147.717 23.2784 145.016 24.5947 141.519 24.5947C136.327 24.5947 132.035 21.3061 132.035 15.4921C132.035 9.85076 136.119 6.24951 141.345 6.24951C146.433 6.24951 149.999 9.74581 149.999 15.6298C150.001 16.0802 150.001 16.5634 149.967 16.9789ZM144.775 13.4499C144.775 11.6503 143.634 10.1613 141.384 10.1613C139.205 10.1613 137.61 11.6852 137.473 13.4499H144.775Z" fill="#202124"/>
<path d="M0 30.9531V1.57687C0 0.343658 1.37534 -0.393203 2.40083 0.291186L24.4762 15.0176C25.3946 15.6298 25.3924 16.9789 24.474 17.5889L2.39864 32.2389C1.37096 32.921 0 32.1864 0 30.9531Z" fill="#202124"/>
<path d="M10.2659 15.2013L32.3763 0.300006C33.533 -0.478405 35.0898 0.348112 35.0898 1.74313V30.7565C35.0898 32.5975 32.6037 33.1791 31.7881 31.5283L25.7248 19.2486C25.4646 18.7217 24.9289 18.3871 24.3407 18.3871H11.2389C9.52032 18.3871 8.8403 16.1612 10.2659 15.2013Z" fill="#202124"/>
</g>
<defs>
<clipPath id="clip0_170_1014">
<rect width="150" height="32.5037" fill="white"/>
</clipPath>
</defs>
</svg>
