<svg width="40" height="40" viewBox="0 0 40 40" fill="none" xmlns="http://www.w3.org/2000/svg">
<g clip-path="url(#clip0_244_753)">
<path fill-rule="evenodd" clip-rule="evenodd" d="M0 0H40V40H0V0Z" fill="white"/>
<path fill-rule="evenodd" clip-rule="evenodd" d="M1.76465 26.6092H2.97758V21.8315L4.84792 25.998C5.06997 26.4977 5.36651 26.6737 5.95897 26.6737C6.55163 26.6737 6.84797 26.4977 7.07001 25.998L8.94035 21.8315V26.6092H10.1439V21.8407C10.1439 21.3779 9.95863 21.1552 9.57909 21.0349C8.66249 20.7479 8.04201 20.9979 7.76436 21.6184L5.93116 25.7202L4.15358 21.6184C3.88505 20.9979 3.25545 20.7479 2.33885 21.0349C1.94996 21.1552 1.76486 21.3777 1.76486 21.8407V26.6092H1.76465ZM11.1531 22.7201H12.3567V25.3498C12.3476 25.4977 12.403 25.8312 13.0697 25.8405C13.403 25.8495 15.6713 25.8405 15.6898 25.8405V22.7108H16.9028C16.9119 22.7108 16.9028 26.979 16.9028 26.9977C16.9119 28.0531 15.5973 28.2751 14.9955 28.2938H11.1809V27.4791C11.1809 27.4791 14.9863 27.4884 14.9955 27.4791C15.7732 27.405 15.6807 27.0163 15.6807 26.8866V26.5716H13.116C11.9215 26.5534 11.1622 26.0346 11.1531 25.4328C11.1531 25.3774 11.1809 22.7481 11.1531 22.7201ZM37.1611 19.6925C36.4207 19.674 35.8556 19.7387 35.3648 19.9516C35.2262 20.0073 35.0131 20.0073 34.9855 20.1832C35.0596 20.2569 35.0779 20.3775 35.1335 20.4796C35.2538 20.6649 35.4485 20.9145 35.6242 21.0442C35.8096 21.1926 36.004 21.3405 36.2076 21.4702C36.578 21.6923 36.9853 21.8126 37.3277 22.0353C37.5409 22.1646 37.7444 22.3316 37.9482 22.4796C38.0406 22.5537 38.1148 22.6649 38.2352 22.711V22.6927C38.1705 22.6093 38.1518 22.4889 38.0962 22.396L37.8185 22.1183C37.5502 21.7666 37.2074 21.4516 36.8461 21.1926C36.5591 20.9888 35.911 20.7018 35.7907 20.3685C35.7813 20.3592 35.772 20.3592 35.772 20.3499C35.9758 20.3219 36.2167 20.2482 36.4018 20.2015C36.7168 20.1185 37.0036 20.1367 37.3275 20.0535C37.4759 20.007 37.6239 19.9701 37.7722 19.9238V19.8404C37.6056 19.6738 37.4946 19.4424 37.3095 19.2942C36.8374 18.8869 36.3186 18.4887 35.7909 18.1554C35.4945 17.9609 35.1335 17.8406 34.8189 17.6833C34.7168 17.637 34.5315 17.6092 34.4578 17.5166C34.2907 17.3129 34.2077 17.0443 34.078 16.8036C33.8064 16.2755 33.5532 15.7382 33.3189 15.1925C33.1616 14.8314 33.0502 14.4703 32.8562 14.1368C31.8931 12.5628 30.8653 11.6093 29.2637 10.674C28.9213 10.4796 28.5139 10.3963 28.0785 10.2945C27.8472 10.2758 27.6158 10.2667 27.3842 10.248C27.2452 10.1924 27.0972 10.0166 26.9582 9.93317C26.4304 9.5999 25.0693 8.86841 24.6803 9.83128C24.4302 10.4331 25.0507 11.0257 25.2727 11.3314C25.4304 11.5443 25.6244 11.7853 25.7359 12.0258C25.8096 12.1831 25.8189 12.3406 25.8838 12.5072C26.0411 12.9239 26.1708 13.3775 26.3653 13.7571C26.467 13.9515 26.578 14.1553 26.7077 14.3313C26.7818 14.4332 26.9208 14.4794 26.9391 14.6461C26.8094 14.8312 26.8004 15.109 26.7264 15.3404C26.4022 16.3867 26.5226 17.6737 27.004 18.4513C27.1524 18.6827 27.4948 19.1919 27.9764 18.9977C28.3931 18.8217 28.3004 18.3031 28.4207 17.831C28.4487 17.7291 28.4301 17.6551 28.4855 17.581V17.5994C28.6058 17.8586 28.7355 18.1087 28.8652 18.3585C29.1429 18.8124 29.643 19.2938 30.069 19.6084C30.2817 19.775 30.4577 20.0622 30.7447 20.1546V20.1359H30.7171C30.6615 20.0529 30.5781 20.0158 30.5133 19.9508C30.3467 19.7842 30.1616 19.5804 30.0225 19.3953C29.6432 18.8767 29.3006 18.3027 28.9858 17.7101C28.8374 17.4231 28.7077 17.1083 28.5878 16.8213C28.5411 16.7102 28.5411 16.5436 28.4394 16.4787C28.3004 16.6916 28.1063 16.8675 27.9947 17.1176C27.8281 17.5158 27.8005 18.0064 27.7451 18.5065C27.7077 18.525 27.717 18.5156 27.6984 18.5343C27.4024 18.4602 27.3003 18.1546 27.1893 17.8954C26.921 17.238 26.8652 16.1825 27.1059 15.4232C27.1707 15.2288 27.4581 14.6176 27.3377 14.4325C27.2817 14.2566 27.1059 14.1455 27.0042 14.0067C26.8745 13.8401 26.7542 13.6178 26.6618 13.4234C26.4398 12.9048 26.3377 12.3308 26.0968 11.8124C25.9764 11.5624 25.7915 11.3123 25.634 11.0994C25.458 10.8494 25.2636 10.6736 25.125 10.3773C25.0787 10.2754 25.0139 10.1087 25.0787 9.9975C25.1063 9.92342 25.1343 9.89561 25.208 9.8678C25.3283 9.77525 25.6711 9.90495 25.8004 9.95102C26.1339 10.0992 26.4209 10.2289 26.7079 10.4233C26.8469 10.5159 26.986 10.6916 27.1526 10.7381H27.3379C27.6342 10.8029 27.9673 10.7566 28.245 10.84C28.7357 10.988 29.18 11.2196 29.5785 11.479C30.8005 12.2474 31.7914 13.34 32.4764 14.6455C32.5875 14.8584 32.6337 15.0528 32.7265 15.2751C32.9211 15.7289 33.1708 16.1917 33.3652 16.6268C33.5505 17.0713 33.745 17.5158 34.0133 17.8767C34.1617 18.0711 34.717 18.173 34.967 18.2747C35.143 18.3488 35.4298 18.432 35.5968 18.5341C35.9208 18.7192 36.2262 18.9508 36.5319 19.1637C36.6797 19.2666 37.1424 19.498 37.1611 19.6925Z" fill="#00678C"/>
<path fill-rule="evenodd" clip-rule="evenodd" d="M27.7172 11.6467C27.5894 11.6467 27.462 11.6623 27.3379 11.6932V11.7116H27.3655C27.4396 11.8598 27.5693 11.9617 27.6618 12.0912C27.7266 12.2393 27.8009 12.3875 27.8656 12.5357L27.8932 12.5079C28.0229 12.4246 28.0785 12.2765 28.0785 12.0451C28.0322 11.9895 28.0229 11.9247 27.9768 11.8598C27.9119 11.767 27.8009 11.7208 27.7172 11.6467Z" fill="#00678C"/>
<path fill-rule="evenodd" clip-rule="evenodd" d="M17.8379 26.6092H21.3098C21.7172 26.6092 22.1152 26.5257 22.43 26.3774C22.9484 26.1371 23.2078 25.8127 23.2078 25.3869V24.4981C23.2078 24.1557 22.9115 23.8224 22.347 23.6093C22.0413 23.489 21.6709 23.4333 21.3098 23.4333H19.8471C19.3563 23.4333 19.1249 23.285 19.0693 22.9612C19.06 22.9243 19.06 22.8872 19.06 22.8502V22.3038C19.06 22.2669 19.06 22.2391 19.0693 22.2021C19.1249 21.9521 19.2544 21.878 19.6804 21.8411C19.7174 21.8411 19.7636 21.8317 19.8008 21.8317H23.2543V21.0264H19.8564C19.3656 21.0264 19.1156 21.0633 18.8842 21.128C18.162 21.3594 17.8472 21.7114 17.8472 22.3318V23.0355C17.8472 23.5819 18.4675 24.0447 19.4953 24.1557C19.6157 24.1557 19.7267 24.165 19.8471 24.165H21.0971C21.1434 24.165 21.1895 24.165 21.2264 24.1744C21.6155 24.2113 21.7728 24.2761 21.8932 24.4147C21.9579 24.4888 21.9859 24.5537 21.9859 24.6371V25.3408C21.9859 25.4242 21.9303 25.5355 21.81 25.6278C21.7079 25.7206 21.5319 25.7762 21.3005 25.7945C21.2542 25.7945 21.2175 25.8038 21.1708 25.8038H17.8379V26.6092ZM30.7446 25.2014C30.7446 26.0348 31.3557 26.4975 32.6058 26.5903C32.7168 26.5996 32.8372 26.609 32.9482 26.609H36.0962V25.8032H32.9295C32.2165 25.8032 31.9482 25.6272 31.9482 25.2014V21.0259H30.7444V25.2014H30.7446ZM23.9764 25.2477V22.3777C23.9764 21.6462 24.4855 21.2019 25.504 21.0629C25.6061 21.0442 25.7264 21.0442 25.8281 21.0442H28.1241C28.2351 21.0442 28.3372 21.0442 28.4575 21.0629C29.4667 21.2019 29.9851 21.6462 29.9851 22.3777V25.2477C29.9851 25.8405 29.763 26.1551 29.2629 26.3589L30.4574 27.433H29.0502L28.0871 26.5718L27.1147 26.6274H25.8279C25.6058 26.6274 25.3743 26.5998 25.1149 26.5257C24.3468 26.3218 23.9764 25.9144 23.9764 25.2477ZM25.2819 25.174C25.2819 25.2203 25.2913 25.257 25.3006 25.3037C25.3747 25.6367 25.6893 25.8221 26.1614 25.8221H27.2635L26.2543 24.9146H27.6615L28.541 25.7017C28.6987 25.6183 28.8097 25.4886 28.8466 25.3219C28.856 25.2757 28.856 25.2389 28.856 25.2016V22.4427C28.856 22.4146 28.856 22.3779 28.8466 22.3406C28.7725 22.026 28.4579 21.8502 27.9948 21.8502H26.1616C25.6245 21.8502 25.2821 22.0816 25.2821 22.4427L25.2819 25.174ZM36.6519 26.6092H36.8279V25.9424H37.0686V25.8034H36.4112V25.9424H36.6519V26.6092ZM38.0037 26.6092H38.161V25.8034H37.9203L37.7076 26.3591L37.4949 25.8034H37.2448V26.6092H37.4114V25.998L37.6428 26.6092H37.7632L37.9946 25.998H38.0039V26.6092H38.0037Z" fill="#CE8B2C"/>
<path fill-rule="evenodd" clip-rule="evenodd" d="M2.4964 19.1185L1.82031 15.9889H2.16292L2.55181 18.0444C2.59808 18.2573 2.63523 18.4702 2.66304 18.6831L2.7834 18.0998L3.27417 15.9887H3.67219L4.0426 17.572C4.13516 17.9609 4.1999 18.3311 4.24618 18.6831C4.27398 18.4795 4.32026 18.2479 4.37587 17.9981L4.77389 15.9889H5.12584L4.41302 19.1185H4.08888L3.5427 16.7389L3.45928 16.3685C3.44081 16.5073 3.413 16.6278 3.38519 16.7389L2.8388 19.1185H2.4964ZM5.33896 17.6001C5.33896 17.063 5.45932 16.6557 5.6907 16.3685C5.92229 16.0815 6.21841 15.9426 6.57036 15.9426C6.7924 15.9426 7.00552 15.9982 7.19063 16.1277C7.37573 16.2572 7.5239 16.4425 7.63513 16.6833C7.73702 16.9331 7.79263 17.2201 7.79263 17.5627C7.79263 18.0257 7.69074 18.3961 7.47762 18.6922C7.24624 19.0164 6.94078 19.1737 6.57036 19.1737C6.1906 19.1737 5.88514 19.007 5.65376 18.6829C5.44064 18.3778 5.33896 18.0168 5.33896 17.6001ZM5.6907 17.6001C5.6907 17.9889 5.77391 18.2853 5.94075 18.4982C6.11673 18.7111 6.3203 18.8223 6.56102 18.8223C6.81108 18.8223 7.02399 18.7111 7.19063 18.4982C7.35726 18.2853 7.44068 17.9705 7.44068 17.5538C7.44068 17.2761 7.40374 17.0445 7.31098 16.8318C7.24624 16.6652 7.14435 16.5355 7.01465 16.4429C6.88671 16.3462 6.73055 16.2942 6.57015 16.2948C6.31076 16.2948 6.09784 16.3965 5.94055 16.6096C5.77391 16.8223 5.6907 17.1556 5.6907 17.6001ZM8.21825 19.1185V15.9889H9.35709C9.58848 15.9889 9.76445 16.0167 9.87568 16.0815C9.99604 16.1371 10.0886 16.2296 10.1533 16.3685C10.2274 16.5073 10.2646 16.6648 10.2646 16.8406C10.2646 17.0815 10.2089 17.2666 10.0795 17.4147C9.95889 17.5629 9.78313 17.6555 9.54241 17.7017C9.6443 17.7574 9.70904 17.813 9.76466 17.8684C9.86655 17.9887 9.94997 18.1184 10.0332 18.2664L10.4775 19.1182H10.0517L9.70904 18.47C9.57021 18.2199 9.47766 18.0441 9.40358 17.9607C9.33883 17.8682 9.27388 17.8032 9.20914 17.7754C9.14439 17.7476 9.06097 17.7291 8.94995 17.7291H8.56106V19.118H8.21825V19.1185ZM8.56085 17.3685H9.28301C9.44031 17.3685 9.56067 17.35 9.64409 17.3129C9.7273 17.2759 9.79205 17.211 9.84766 17.1369C9.89394 17.0535 9.91241 16.9516 9.91241 16.8406C9.91241 16.6833 9.86613 16.5629 9.77358 16.4703C9.68103 16.3778 9.55133 16.3315 9.36623 16.3315H8.56065L8.56085 17.3685ZM10.7923 19.1185V15.9889H11.1349V17.5444L12.4034 15.9889H12.8662L11.783 17.2575L12.9125 19.1185H12.4588L11.5516 17.5444L11.1349 18.0352V19.1185H10.7923ZM13.07 18.1093L13.3941 18.0815C13.4126 18.2481 13.4497 18.387 13.5145 18.4795C13.5701 18.5814 13.6626 18.6555 13.7737 18.7109C13.8849 18.7756 14.0144 18.8034 14.1534 18.8034C14.357 18.8034 14.5052 18.7478 14.6164 18.6555C14.7274 18.5536 14.783 18.4239 14.783 18.2666C14.783 18.1741 14.7646 18.1 14.7274 18.0259C14.6905 17.9611 14.6255 17.9055 14.5421 17.8592C14.4589 17.813 14.2829 17.7482 14.0144 17.6741C13.7737 17.6001 13.5977 17.526 13.4958 17.4519C13.3927 17.3858 13.3095 17.293 13.2551 17.1834C13.1995 17.0721 13.1717 16.9426 13.1717 16.8038C13.1717 16.5444 13.2551 16.3409 13.4124 16.1833C13.579 16.0167 13.8013 15.9426 14.0789 15.9426C14.264 15.9426 14.4307 15.9796 14.5788 16.0536C14.7177 16.1277 14.8289 16.2388 14.9121 16.3778C14.993 16.5319 15.0344 16.7037 15.0325 16.8777L14.7083 16.9055C14.699 16.7019 14.6342 16.5538 14.5323 16.4519C14.4211 16.35 14.2823 16.3037 14.088 16.3037C13.8934 16.3037 13.7454 16.35 13.6527 16.4334C13.6024 16.473 13.5621 16.5237 13.5348 16.5815C13.5075 16.6394 13.494 16.7027 13.4954 16.7667C13.4954 16.8964 13.5325 16.9889 13.6066 17.063C13.6805 17.1278 13.8473 17.2018 14.1065 17.2759C14.3657 17.3407 14.5417 17.4056 14.6436 17.4519C14.8011 17.5351 14.9212 17.637 14.9953 17.7667C15.0787 17.8964 15.1157 18.0537 15.1157 18.2297C15.1168 18.4018 15.072 18.5711 14.986 18.7202C14.9026 18.8684 14.7915 18.9796 14.6434 19.0535C14.5045 19.1367 14.3286 19.1739 14.1248 19.1739C13.81 19.1739 13.5508 19.0813 13.3657 18.8869C13.1806 18.6924 13.0791 18.4332 13.07 18.1093ZM17.1253 19.1185L16.4494 15.9889H16.792L17.1809 18.0444C17.2271 18.2573 17.2641 18.4702 17.2921 18.6831L17.4125 18.0998L17.903 15.9887H18.3013L18.6715 17.572C18.7585 17.9386 18.8265 18.3095 18.8752 18.6831C18.903 18.4795 18.9493 18.2479 18.9956 17.9981L19.403 15.9889H19.7547L19.0419 19.1185H18.7177L18.1713 16.7389L18.0881 16.3685C18.0697 16.5073 18.0419 16.6278 18.014 16.7389L17.4679 19.1185H17.1253ZM20.1251 19.1185V15.9889H20.4677V19.1185H20.1251ZM21.7176 19.1185V16.3593H20.8751V15.9889H22.9027V16.3593H22.0513V19.1185H21.7176ZM23.2364 19.1185V15.9889H23.5788V17.2759H24.9119V15.9889H25.2547V19.1185H24.9119V17.6463H23.5788V19.1185H23.2364Z" fill="#00678C"/>
</g>
<defs>
<clipPath id="clip0_244_753">
<rect width="40" height="40" fill="white"/>
</clipPath>
</defs>
</svg>
