<svg width="52" height="40" viewBox="0 0 52 40" fill="none" xmlns="http://www.w3.org/2000/svg">
<g clip-path="url(#clip0_244_829)">
<path d="M29.393 40C28.7366 40 28.1324 39.7444 27.6852 39.332C27.2204 39.7444 26.6338 39.9709 26.0296 39.9709H26.0006C25.35 39.9593 24.711 39.6805 24.2463 39.1983C23.7758 38.722 23.5144 38.0772 23.5202 37.4325V37.1711L22.8347 38.5536L22.5443 39.1403C22.3003 39.6398 21.7891 39.9593 21.2257 39.9593H15.3877C14.8591 39.9593 14.3712 39.6689 14.1098 39.2158L13.8135 38.6814L13.0235 37.293V37.4673C13.0235 38.8498 11.8966 39.9767 10.5141 39.9767C9.84026 39.9767 9.2129 39.7153 8.73657 39.239L5.02469 35.5271V37.4673C5.02469 38.8498 3.89776 39.9767 2.51525 39.9767C1.13273 39.9767 0 38.8556 0 37.4673V29.451C0 28.4345 0.609933 27.5225 1.55097 27.1275C1.85884 26.9997 2.17833 26.9358 2.50944 26.9358C3.18327 26.9358 3.81063 27.1972 4.28696 27.6735L8.00465 31.3912V29.451C8.00465 28.0685 9.13157 26.9416 10.5141 26.9416C11.8966 26.9416 13.0235 28.0685 13.0235 29.451V29.666L13.8019 28.2544L14.0866 27.7258C14.3421 27.2553 14.8359 26.9532 15.3761 26.9532H21.458C22.0215 26.9532 22.5269 27.2727 22.7708 27.7723L23.0613 28.3648C23.0787 28.388 23.0845 28.4171 23.0961 28.4403L23.5202 29.4568C23.5202 28.8179 23.7816 28.1847 24.2463 27.7142C24.7168 27.232 25.3558 26.9532 26.0006 26.9416H26.0296C26.6396 26.9416 27.2437 27.1798 27.7142 27.6096C28.1557 27.2088 28.7482 26.9648 29.393 26.9648C30.7755 26.9648 31.9024 28.0918 31.9024 29.4743V31.4203L35.6201 27.7026C36.0906 27.232 36.7296 26.9648 37.3976 26.9648C37.7287 26.9648 38.0482 27.0287 38.3561 27.1565C38.6175 27.2611 38.8557 27.4121 39.059 27.598C39.5179 27.1856 40.1046 26.9648 40.7261 26.9648C41.3941 26.9648 42.0215 27.2204 42.5036 27.6968L44.7459 29.9274L46.9881 27.6968C47.4644 27.2262 48.0976 26.9648 48.7656 26.9648C49.4394 26.9648 50.0726 27.2262 50.5431 27.7084C51.5248 28.6901 51.519 30.2875 50.5373 31.2634L48.3067 33.4824L50.5257 35.6956C51.5074 36.6773 51.5132 38.2689 50.5315 39.2506C50.061 39.727 49.422 39.9942 48.754 39.9942C48.0802 39.9942 47.4528 39.7328 46.9765 39.2564L44.7459 37.0316L42.5211 39.2448C42.0505 39.7153 41.4174 39.9767 40.7435 39.9767C40.1394 39.9767 39.5469 39.7502 39.088 39.3552C38.6465 39.756 38.054 40.0058 37.4034 40.0058C36.0209 40.0058 34.894 38.8789 34.894 37.4963V35.5504L31.1763 39.2681C30.7 39.7386 30.0726 40 29.393 40ZM39.9187 34.7371L41.1908 33.4708L39.9187 32.2045V34.7371Z" fill="white"/>
<path d="M10.52 38.5187C10.247 38.5187 9.97975 38.4141 9.77644 38.2108L3.56093 31.9895V37.4673C3.56093 38.0482 3.09041 38.5129 2.51533 38.5129C1.94025 38.5129 1.46973 38.0424 1.46973 37.4673V29.451C1.46973 29.027 1.72532 28.6436 2.12032 28.4809C2.51533 28.3183 2.96261 28.4054 3.26467 28.7075L9.47437 34.923V29.451C9.47437 28.8701 9.94489 28.4054 10.52 28.4054C11.1009 28.4054 11.5656 28.8759 11.5656 29.451V37.4615C11.5714 38.0424 11.1009 38.5187 10.52 38.5187ZM15.3878 28.417L15.0974 28.9573L12.8668 33.0119L12.5763 33.523L12.8668 34.0342L15.0974 37.961L15.3994 38.4955H21.2432L21.5336 37.9029L23.2008 34.5396L23.9501 33.0177H22.2597L17.996 33.0351C17.4384 33.0235 16.9272 33.5347 16.9272 34.0807C16.9272 34.6384 17.4384 35.1379 17.996 35.1263L20.5693 35.1089L19.942 36.381H16.6309L14.987 33.4998L16.6425 30.5082H20.1627L20.9818 32.1928H23.0962L21.766 28.9979L21.4755 28.4054H15.3878M26.0297 28.3996C25.4779 28.4054 24.9841 28.9108 24.9899 29.4626V32.2044H27.0927V29.4626C27.0985 28.905 26.5874 28.388 26.0297 28.3996ZM29.3989 38.5361C28.818 38.5361 28.3533 38.0656 28.3533 37.4905V29.4743C28.3533 28.8934 28.8238 28.4287 29.3989 28.4287C29.9797 28.4287 30.4445 28.8992 30.4445 29.4743V34.952L36.66 28.7365C36.962 28.4345 37.4093 28.3473 37.8043 28.51C38.1993 28.6726 38.4549 29.056 38.4549 29.4801V37.4905C38.4549 38.0714 37.9844 38.5361 37.4093 38.5361C36.8284 38.5361 36.3637 38.0656 36.3637 37.4905V32.0069L30.1424 38.2282C29.9449 38.4257 29.6777 38.5361 29.3989 38.5361ZM46.2446 33.4708L49.5092 30.212C49.9217 29.7995 49.9217 29.1373 49.515 28.7249C49.1026 28.3125 48.4404 28.3125 48.028 28.7191L44.7576 31.9837L41.4872 28.7191C41.0747 28.3067 40.4125 28.3067 40.0001 28.7249C39.5876 29.1373 39.5876 29.7995 40.0001 30.212L43.2647 33.4708L40.0059 36.7179C39.5935 37.1304 39.5935 37.7926 40.0001 38.205C40.1976 38.4025 40.4648 38.5187 40.7436 38.5129C41.0108 38.5129 41.278 38.4083 41.4872 38.205L44.7518 34.952L48.0163 38.205C48.2138 38.4025 48.4811 38.5129 48.7599 38.5129C49.0271 38.5129 49.3001 38.4083 49.5034 38.205C49.9159 37.7926 49.9158 37.1304 49.4976 36.7179L46.2446 33.4708ZM26.0297 38.5071C25.4779 38.5013 24.9841 37.9959 24.9899 37.444V33.0467H27.0927V37.444C27.0985 38.0017 26.5874 38.5129 26.0297 38.5071Z" fill="#009900"/>
<path d="M35.6721 28.3706C34.5859 28.359 33.5635 27.9349 32.8025 27.1682L19.6454 14.0168V24.2637C19.6454 26.5234 17.804 28.3706 15.5385 28.3706C13.2731 28.3706 11.4316 26.5292 11.4316 24.2637V4.10688C11.4316 2.43973 12.425 0.952657 13.9643 0.31368C14.4639 0.10456 14.9925 0 15.5327 0C16.6306 0 17.6646 0.429858 18.4372 1.20244L31.6001 14.3538V4.10688C31.6001 1.84142 33.4415 0 35.7012 0C37.9608 0 39.8081 1.84142 39.8081 4.10688V24.2695C39.8081 26.5292 37.9666 28.3764 35.7012 28.3764H35.6721V28.3706Z" fill="white"/>
<path d="M35.7013 26.9067C35.0158 26.9067 34.3362 26.6395 33.8308 26.1342L18.1875 10.485V24.2637C18.1875 25.7275 17.0024 26.9067 15.5444 26.9067C14.0864 26.9067 12.9014 25.7217 12.9014 24.2637V4.10687C12.9014 3.03222 13.5462 2.07375 14.5337 1.66132C15.5212 1.24889 16.6597 1.47544 17.4149 2.2364L33.0582 17.8855V4.10687C33.0582 2.64303 34.2432 1.46382 35.7013 1.46382C37.1651 1.46382 38.3443 2.64883 38.3443 4.10687V24.2695C38.3443 25.7275 37.1651 26.9067 35.7013 26.9067Z" fill="#009900"/>
</g>
<defs>
<clipPath id="clip0_244_829">
<rect width="51.2751" height="40" fill="white"/>
</clipPath>
</defs>
</svg>
