<svg width="40" height="40" viewBox="0 0 40 40" fill="none" xmlns="http://www.w3.org/2000/svg">
<path d="M35.8294 7.77584C33.4115 4.64488 30.1195 2.30127 26.3696 1.04141C22.6197 -0.218459 18.5804 -0.337986 14.7626 0.697941C10.9448 1.73387 7.5199 3.87872 4.92114 6.86122C2.32237 9.84373 0.666442 13.5299 0.162781 17.4536C-0.34088 21.3773 0.33035 25.3622 2.09158 28.9044C3.85281 32.4465 6.62492 35.3869 10.0573 37.3535C13.4897 39.3201 17.4283 40.2246 21.3748 39.9527C25.3213 39.6808 29.0985 38.2446 32.2288 35.8258C40.9663 29.0733 42.5794 16.5165 35.8294 7.77584Z" fill="#FF6C37"/>
<path d="M27.3514 12.6972L18.9183 21.1972L16.5352 18.7472C24.8352 10.4472 25.6677 11.1972 27.3514 12.6972Z" fill="white"/>
<path d="M18.9181 21.4297C18.8434 21.4279 18.7721 21.3982 18.7181 21.3466L16.3181 18.9466C16.2641 18.8906 16.2339 18.8159 16.2339 18.7381C16.2339 18.6604 16.2641 18.5856 16.3181 18.5297C24.5012 10.3466 25.6181 10.7297 27.5512 12.4797C27.5836 12.5056 27.6095 12.5387 27.6269 12.5763C27.6442 12.614 27.6526 12.6551 27.6512 12.6966C27.6637 12.7778 27.6325 12.8609 27.5681 12.9134L19.135 21.3472C19.0759 21.4014 18.9983 21.4305 18.9181 21.4297ZM16.9512 18.7466L18.9181 20.7134L26.9181 12.7134C26.6419 12.3673 26.2478 12.1351 25.8111 12.0613C25.3744 11.9875 24.9259 12.0773 24.5512 12.3134C23.1012 12.9634 20.7681 14.9466 16.9512 18.7466Z" fill="#FF6C37"/>
<path d="M21.3352 23.5472L19.0352 21.1972L27.4683 12.8634C29.7352 15.0803 26.3683 18.7809 21.3352 23.5472Z" fill="white"/>
<path d="M21.3352 23.8471C21.2614 23.8412 21.1914 23.8121 21.1352 23.764L18.7852 21.464C18.75 21.3785 18.75 21.2826 18.7852 21.1971C18.7602 21.127 18.7602 21.0503 18.7852 20.9802L27.2183 12.5471C27.277 12.492 27.3544 12.4613 27.4349 12.4613C27.5154 12.4613 27.5928 12.492 27.6515 12.5471C27.9246 12.7985 28.1403 13.1057 28.2841 13.4479C28.4279 13.7901 28.4962 14.1592 28.4846 14.5302C28.4846 16.7802 25.9177 19.6133 21.5515 23.7471C21.4931 23.8048 21.417 23.8402 21.3352 23.8471ZM19.4683 21.1971L21.3515 23.0796C24.6846 19.9296 27.8683 16.6796 27.8846 14.4796C27.9027 14.0132 27.7485 13.5565 27.4515 13.1965L19.4683 21.1971Z" fill="#FF6C37"/>
<path d="M16.6015 18.7973L18.2684 20.4642C18.2791 20.4735 18.2876 20.4851 18.2934 20.498C18.2993 20.5109 18.3023 20.525 18.3023 20.5392C18.3023 20.5533 18.2993 20.5674 18.2934 20.5803C18.2876 20.5932 18.2791 20.6048 18.2684 20.6142L14.7515 21.3642C14.6806 21.3795 14.6065 21.3712 14.5407 21.3405C14.4748 21.3099 14.4208 21.2585 14.3868 21.1944C14.3529 21.1302 14.3408 21.0566 14.3525 20.9849C14.3642 20.9133 14.399 20.8474 14.4515 20.7973L16.5015 18.7642C16.5015 18.7642 16.5684 18.7642 16.6015 18.7973Z" fill="white"/>
<path d="M14.6683 21.6972C14.5571 21.6958 14.4482 21.6659 14.3519 21.6104C14.2557 21.5549 14.1752 21.4757 14.1183 21.3803C14.0542 21.2594 14.0309 21.121 14.052 20.9858C14.0731 20.8507 14.1373 20.7259 14.2351 20.6303L16.2683 18.5803C16.3416 18.5147 16.4365 18.4785 16.5348 18.4785C16.6332 18.4785 16.7281 18.5147 16.8014 18.5803L18.4683 20.2472C18.567 20.3409 18.6058 20.4828 18.5683 20.614C18.5308 20.7453 18.4208 20.8497 18.2851 20.8809L14.7683 21.6309L14.6683 21.6972ZM16.5351 19.164L14.652 21.0472L17.7689 20.3803L16.5351 19.164Z" fill="#FF6C37"/>
<path d="M31.8352 8.01343C30.6289 6.84968 28.7339 6.80093 27.4689 7.89905C26.2039 8.99718 25.9877 10.8822 26.9727 12.2384C27.9577 13.5947 29.8145 13.9747 31.252 13.1134L28.9852 10.8466L31.8352 8.01343Z" fill="white"/>
<path d="M29.5854 13.8797C28.8924 13.8708 28.2173 13.6582 27.6443 13.2683C27.0713 12.8784 26.6256 12.3285 26.3629 11.6872C26.1004 11.0463 26.0316 10.3425 26.1649 9.66289C26.2982 8.98328 26.6278 8.35765 27.1129 7.86342C27.7802 7.2084 28.6779 6.84143 29.6129 6.84143C30.548 6.84143 31.4457 7.2084 32.1129 7.86342C32.1767 7.91717 32.2129 7.99655 32.2129 8.0803C32.2128 8.1215 32.2038 8.16219 32.1865 8.19961C32.1693 8.23703 32.1442 8.2703 32.1129 8.29717L29.4129 10.8472L31.4629 12.864C31.4962 12.8958 31.5211 12.9351 31.5356 12.9787C31.5501 13.0223 31.5537 13.0688 31.5461 13.114C31.5411 13.1577 31.5266 13.1998 31.5036 13.2373C31.4806 13.2748 31.4497 13.3067 31.4129 13.3309C30.8622 13.6752 30.2291 13.8651 29.5798 13.8809L29.5854 13.8797ZM29.5854 7.4128C28.3979 7.41905 27.3354 8.13342 26.8898 9.2253C26.4442 10.3172 26.6867 11.574 27.5192 12.4128C27.9333 12.8293 28.4635 13.111 29.0404 13.2211C29.6173 13.3312 30.214 13.2644 30.7523 13.0297L28.7854 11.0628C28.7542 11.0378 28.7289 11.0061 28.7116 10.97C28.6942 10.9339 28.6852 10.8944 28.6852 10.8544C28.6852 10.8143 28.6942 10.7748 28.7116 10.7387C28.7289 10.7026 28.7542 10.6709 28.7854 10.6459L31.3854 8.02905C30.8686 7.63294 30.2366 7.41697 29.5854 7.4128Z" fill="#FF6C37"/>
<path d="M31.8852 8.06348L29.0352 10.8966L31.302 13.1635C31.5302 13.0325 31.7426 12.8759 31.9352 12.6966C32.5293 12.0686 32.8562 11.2344 32.8468 10.3699C32.8375 9.50549 32.4927 8.67849 31.8852 8.06348Z" fill="white"/>
<path d="M31.2517 13.4135C31.2142 13.4156 31.1768 13.4091 31.1422 13.3948C31.1076 13.3804 31.0766 13.3584 31.0517 13.3304L28.7848 11.0635C28.7535 11.0385 28.7283 11.0068 28.7109 10.9707C28.6936 10.9347 28.6846 10.8951 28.6846 10.8551C28.6846 10.8151 28.6936 10.7755 28.7109 10.7395C28.7283 10.7034 28.7535 10.6717 28.7848 10.6467L31.6179 7.86354C31.6453 7.82228 31.6824 7.78844 31.726 7.76503C31.7697 7.74162 31.8184 7.72937 31.8679 7.72937C31.9174 7.72937 31.9662 7.74162 32.0098 7.76503C32.0534 7.78844 32.0905 7.82228 32.1179 7.86354C32.4505 8.18942 32.7147 8.57839 32.8951 9.00766C33.0755 9.43694 33.1684 9.8979 33.1684 10.3635C33.1684 10.8292 33.0755 11.2901 32.8951 11.7194C32.7147 12.1487 32.4505 12.5377 32.1179 12.8635C31.9217 13.0716 31.6972 13.2511 31.451 13.3967C31.389 13.4279 31.318 13.434 31.2517 13.4135ZM29.4185 10.8473L31.3017 12.7304C31.4312 12.6396 31.5538 12.5393 31.6685 12.4304C32.2221 11.8783 32.5339 11.1291 32.5354 10.3473C32.5367 9.64763 32.2817 8.97173 31.8185 8.44729L29.4185 10.8473Z" fill="#FF6C37"/>
<path d="M27.7016 13.0471C27.4759 12.8352 27.1778 12.7172 26.8682 12.7172C26.5585 12.7172 26.2605 12.8352 26.0347 13.0471L18.4854 20.5796L19.7354 21.8465L27.7185 14.8465C27.8402 14.7298 27.9368 14.5895 28.0022 14.4341C28.0677 14.2787 28.1006 14.1115 28.0991 13.9429C28.0975 13.7743 28.0614 13.6077 27.9931 13.4536C27.9247 13.2994 27.8255 13.1615 27.7016 13.0471Z" fill="white"/>
<path d="M19.6683 22.1472C19.5936 22.1454 19.5223 22.1158 19.4683 22.0641L18.2014 20.7972C18.1474 20.7413 18.1172 20.6666 18.1172 20.5888C18.1172 20.511 18.1474 20.4363 18.2014 20.3804L25.7514 12.8635C25.9689 12.6463 26.2466 12.4994 26.5485 12.442C26.8505 12.3845 27.1627 12.4191 27.4447 12.5412C27.7268 12.6633 27.9656 12.8674 28.1303 13.1269C28.295 13.3864 28.3779 13.6894 28.3683 13.9966C28.3596 14.2051 28.3095 14.4098 28.2207 14.5987C28.132 14.7876 28.0064 14.9569 27.8514 15.0966L19.8683 22.0966C19.8102 22.1377 19.7389 22.1562 19.6683 22.1472ZM18.7852 20.5797L19.6183 21.4297L27.4514 14.6129C27.6452 14.4441 27.7608 14.2029 27.7683 13.946C27.7758 13.6891 27.6745 13.4379 27.4852 13.2629C27.3103 13.0887 27.0735 12.9909 26.8267 12.9909C26.5799 12.9909 26.3432 13.0887 26.1683 13.2629L18.7852 20.5797Z" fill="#FF6C37"/>
<path d="M12.6352 29.1635C12.6139 29.1924 12.6024 29.2275 12.6024 29.2635C12.6024 29.2994 12.6139 29.3345 12.6352 29.3635L12.9683 30.8135C12.9817 30.8988 12.969 30.9862 12.932 31.0642C12.895 31.1422 12.8354 31.2073 12.7608 31.251C12.6866 31.2944 12.6005 31.3131 12.5149 31.3045C12.4293 31.2958 12.3487 31.2602 12.2846 31.2028L10.0015 29.0028L17.1183 21.8297H19.5852L21.2521 23.4966C18.6519 25.77 15.7527 27.6766 12.6352 29.1635Z" fill="white"/>
<path d="M12.4855 31.6135C12.2967 31.6097 12.1105 31.5322 11.9855 31.3966L9.80236 29.2135C9.77109 29.1885 9.74585 29.1567 9.7285 29.1207C9.71116 29.0846 9.70215 29.0451 9.70215 29.005C9.70215 28.965 9.71116 28.9255 9.7285 28.8894C9.74585 28.8533 9.77109 28.8216 9.80236 28.7966L16.9686 21.6135C17.0087 21.5708 17.0612 21.5418 17.1186 21.5303H19.6017C19.6664 21.5075 19.737 21.5075 19.8017 21.5303L21.4686 23.1972C21.5003 23.2264 21.5244 23.2629 21.5389 23.3035C21.5534 23.3441 21.5578 23.3877 21.5517 23.4303C21.5529 23.4718 21.5445 23.5129 21.5271 23.5505C21.5098 23.5881 21.484 23.6212 21.4517 23.6472L21.3186 23.7641C18.7079 25.9405 15.8357 27.7825 12.7686 29.2472L13.0855 30.5972C13.11 30.7014 13.1109 30.8097 13.0882 30.9142C13.0655 31.0188 13.0198 31.1169 12.9543 31.2015C12.8889 31.2862 12.8054 31.3551 12.7099 31.4033C12.6144 31.4516 12.5093 31.4779 12.4024 31.4803L12.4855 31.6135ZM10.4524 28.9966L12.4186 30.9797C12.4369 30.9961 12.4606 31.0051 12.4852 31.0051C12.5097 31.0051 12.5334 30.9961 12.5517 30.9797C12.564 30.9627 12.5706 30.9423 12.5706 30.9213C12.5706 30.9003 12.564 30.8799 12.5517 30.8628L12.2186 29.4128C12.1924 29.3088 12.2029 29.1988 12.2485 29.1017C12.294 29.0045 12.3718 28.9261 12.4686 28.8797C15.4533 27.4345 18.2514 25.6324 20.8017 23.5128L19.4349 22.146H17.2017L10.4524 28.9966Z" fill="#FF6C37"/>
<path d="M8.28546 30.7134L9.95234 29.0465L12.5192 31.6134L8.43609 31.3303C8.36598 31.3248 8.2994 31.2973 8.24585 31.2517C8.1923 31.2061 8.15452 31.1448 8.13789 31.0765C8.12126 31.0081 8.12663 30.9363 8.15324 30.8712C8.17986 30.8061 8.22635 30.7511 8.28609 30.714L8.28546 30.7134Z" fill="white"/>
<path d="M12.5686 31.8634L8.50175 31.5803C8.2605 31.5578 8.053 31.3928 7.968 31.1722C7.883 30.9516 7.93488 30.6897 8.10175 30.5134L9.76863 28.8466C9.82456 28.7925 9.89929 28.7623 9.97707 28.7623C10.0548 28.7623 10.1296 28.7925 10.1855 28.8466L12.7355 31.3966C12.7708 31.4449 12.7898 31.5033 12.7898 31.5631C12.7898 31.623 12.7708 31.6813 12.7355 31.7297C12.6969 31.792 12.638 31.8397 12.5686 31.8634ZM8.50175 30.9303L11.8349 31.1472L10.0018 29.4303L8.50175 30.9303Z" fill="#FF6C37"/>
<path d="M19.8185 22.031L16.4517 22.5479L18.4017 20.6147L19.8185 22.031Z" fill="white"/>
<path d="M16.4514 22.8634C16.3954 22.8649 16.3403 22.8498 16.2928 22.8202C16.2454 22.7905 16.2077 22.7475 16.1845 22.6965C16.149 22.6483 16.1299 22.5899 16.1299 22.53C16.1299 22.4701 16.149 22.4117 16.1845 22.3634L18.1176 20.4134C18.1763 20.3583 18.2537 20.3276 18.3342 20.3276C18.4147 20.3276 18.4921 20.3583 18.5508 20.4134L19.9683 21.8297C19.9966 21.8746 20.0116 21.9266 20.0116 21.9797C20.0116 22.0328 19.9966 22.0848 19.9683 22.1297C19.9544 22.1844 19.925 22.234 19.8836 22.2724C19.8423 22.3109 19.7907 22.3366 19.7351 22.3465L16.402 22.8634H16.4514ZM18.4014 21.0465L17.3183 22.1297L19.1851 21.8465L18.4014 21.0465Z" fill="#FF6C37"/>
<path d="M19.8185 22.0297L17.4685 22.3297C17.4056 22.3439 17.3398 22.3376 17.2808 22.3115C17.2218 22.2854 17.1728 22.241 17.141 22.1849C17.1092 22.1288 17.0964 22.064 17.1044 22C17.1123 21.936 17.1407 21.8763 17.1853 21.8297L18.4022 20.6128L19.8185 22.0297Z" fill="white"/>
<path d="M17.4016 22.6472C17.2927 22.6462 17.186 22.6163 17.0924 22.5607C16.9987 22.505 16.9215 22.4256 16.8685 22.3304C16.8049 22.2163 16.7802 22.0845 16.7982 21.9552C16.8163 21.8258 16.8761 21.7058 16.9685 21.6135L18.1854 20.3966C18.244 20.3415 18.3215 20.3108 18.4019 20.3108C18.4824 20.3108 18.5599 20.3415 18.6185 20.3966L20.0354 21.8135C20.0775 21.8534 20.1072 21.9047 20.1207 21.9611C20.1343 22.0176 20.1312 22.0767 20.1118 22.1315C20.0924 22.1862 20.0576 22.2341 20.0115 22.2694C19.9655 22.3047 19.9101 22.3259 19.8523 22.3304L17.5191 22.6304L17.4016 22.6472ZM17.4016 22.0304L19.1685 21.8135L18.3854 21.0304L17.3854 22.0304H17.4016ZM31.9016 9.98037C31.8702 9.92778 31.8206 9.88854 31.7622 9.87011C31.7038 9.85168 31.6407 9.85533 31.5848 9.88037C31.5572 9.89435 31.5327 9.91373 31.5127 9.93734C31.4927 9.96096 31.4777 9.98834 31.4685 10.0179C31.45 10.0775 31.4558 10.142 31.4848 10.1972C31.6016 10.4429 31.5691 10.7335 31.4016 10.9472C31.3808 10.9678 31.3645 10.9925 31.3538 11.0197C31.343 11.047 31.338 11.0761 31.3391 11.1054C31.3397 11.164 31.362 11.2203 31.4016 11.2635C31.4444 11.2804 31.492 11.2804 31.5348 11.2635C31.5736 11.2733 31.6143 11.2722 31.6525 11.2604C31.6908 11.2486 31.7251 11.2265 31.7516 11.1966C31.8889 11.0286 31.9758 10.8252 32.0023 10.6098C32.0289 10.3945 31.994 10.1767 31.9016 9.98037Z" fill="#FF6C37"/>
</svg>
