<svg width="39" height="40" viewBox="0 0 39 40" fill="none" xmlns="http://www.w3.org/2000/svg">
<g clip-path="url(#clip0_244_760)">
<path d="M38.6336 23.95C38.4011 23.2457 37.7919 22.7552 37.0041 22.6375C36.6326 22.582 36.2072 22.6056 35.7037 22.7094C34.8263 22.8905 34.1753 22.9594 33.7002 22.9727C35.4935 19.945 36.9517 16.4923 37.7911 13.2422C39.1486 7.9868 38.4232 5.59264 37.5755 4.50972C35.3323 1.64334 32.0594 0.103494 28.111 0.0563776C26.0047 0.0306226 24.1557 0.44649 23.1911 0.745551C22.293 0.587082 21.3273 0.498606 20.3141 0.482244C18.4147 0.451944 16.7366 0.865994 15.3026 1.71697C14.5087 1.44851 13.2346 1.07006 11.7633 0.828573C8.3027 0.260448 5.51358 0.703131 3.47348 2.14435C1.00312 3.88933 -0.142067 6.92115 0.0697298 11.1556C0.136996 12.5 0.889042 16.5905 2.07317 20.4698C2.7537 22.6996 3.47939 24.5512 4.23007 25.9738C5.29466 27.991 6.43379 29.1789 7.7126 29.6055C8.42935 29.8443 9.73164 30.0116 11.1014 28.8708C11.275 29.081 11.5066 29.29 11.814 29.484C12.2044 29.7302 12.6818 29.9314 13.1586 30.0507C14.8767 30.4802 16.4861 30.3727 17.8592 29.7707C17.8676 30.0149 17.8742 30.2482 17.8796 30.4497C17.8887 30.7765 17.8978 31.0969 17.9098 31.3966C17.9911 33.4227 18.129 34.9982 18.5374 36.1005C18.5599 36.1611 18.59 36.2535 18.6218 36.3515C18.8256 36.9754 19.1663 38.0199 20.0332 38.8378C20.9308 39.6851 22.0166 39.945 23.0111 39.945C23.5098 39.945 23.9857 39.8795 24.4031 39.7901C25.8908 39.4712 27.5805 38.9855 28.8028 37.2451C29.9584 35.5998 30.5202 33.1217 30.6218 29.2171C30.635 29.1067 30.6471 29.0012 30.6588 28.9008L30.683 28.6944L30.9553 28.7184L31.0254 28.7231C32.5407 28.7921 34.3936 28.4708 35.5315 27.9422C36.4306 27.525 39.312 26.0038 38.6336 23.95Z" fill="black"/>
<path d="M36.0427 24.3494C31.537 25.2788 31.2272 23.7534 31.2272 23.7534C35.9843 16.6945 37.9731 7.73438 36.257 5.54141C31.5751 -0.440565 23.4706 2.38855 23.3353 2.46187L23.2918 2.46975C22.4016 2.28492 21.4055 2.17493 20.2857 2.1566C18.2472 2.12327 16.7006 2.69109 15.5271 3.581C15.5271 3.581 1.06948 -2.37507 1.74199 11.0718C1.88501 13.9324 5.84219 32.717 10.562 27.0432C12.2872 24.9684 13.9541 23.2142 13.9541 23.2142C14.7819 23.7641 15.773 24.0447 16.812 23.944L16.8928 23.8755C16.8676 24.133 16.8791 24.385 16.925 24.6833C15.7091 26.0418 16.0665 26.2803 13.6358 26.7807C11.1762 27.2876 12.6211 28.1899 13.5644 28.4259C14.7081 28.7118 17.3539 29.1169 19.1416 26.6143L19.0704 26.8999C19.5467 27.2815 19.8812 29.3819 19.8252 31.2861C19.7691 33.1902 19.7317 34.4975 20.107 35.5186C20.4825 36.5397 20.8566 38.8372 24.052 38.1525C26.7219 37.5803 28.1056 36.0976 28.2981 33.6242C28.4346 31.8659 28.7438 32.1259 28.7632 30.5538L29.0112 29.8096C29.2971 27.426 29.0567 26.657 30.7015 27.0147L31.1015 27.0499C32.312 27.1049 33.8967 26.855 34.8267 26.4228C36.8292 25.4935 38.017 23.9417 36.0424 24.3494H36.0427Z" fill="#336791"/>
<path d="M16.3737 12.351C15.9676 12.2945 15.5999 12.3468 15.4139 12.4877C15.3094 12.5669 15.2769 12.6587 15.2682 12.7219C15.2448 12.8893 15.3621 13.0745 15.4342 13.1699C15.6381 13.4402 15.936 13.6259 16.2308 13.6668C16.2735 13.6729 16.3161 13.6756 16.3584 13.6756C16.85 13.6756 17.297 13.2928 17.3364 13.0102C17.3857 12.6563 16.8719 12.4203 16.3737 12.351ZM29.8244 12.3623C29.7856 12.0849 29.2921 12.0058 28.8236 12.0709C28.3558 12.1361 27.9022 12.3473 27.9401 12.6253C27.9704 12.8414 28.3608 13.2105 28.8229 13.2105C28.8619 13.2105 28.9013 13.2079 28.941 13.2023C29.2495 13.1596 29.4758 12.9637 29.5834 12.8508C29.747 12.6787 29.8419 12.4869 29.8244 12.3623Z" fill="white"/>
<path d="M37.5418 24.2438C37.37 23.7243 36.817 23.5572 35.8983 23.7469C33.1705 24.3099 32.1937 23.9199 31.8729 23.6837C33.9932 20.4537 35.7374 16.5493 36.6784 12.9065C37.1241 11.1809 37.3703 9.57831 37.3904 8.27208C37.4127 6.83844 37.1685 5.78491 36.6649 5.14133C34.6345 2.5469 31.6545 1.15522 28.0473 1.11704C25.5673 1.08916 23.4721 1.7238 23.0659 1.90226C22.2106 1.68956 21.2781 1.55897 20.2629 1.5423C18.4012 1.51215 16.792 1.95787 15.4597 2.86641C14.881 2.65098 13.3854 2.13754 11.5563 1.84288C8.39421 1.33384 5.88143 1.71956 4.08828 2.98988C1.94864 4.50579 0.960864 7.21552 1.15221 11.0436C1.2166 12.3315 1.95046 16.2936 3.10853 20.0879C4.63292 25.0819 6.29003 27.9091 8.03349 28.4907C8.23756 28.5587 8.47284 28.6063 8.73236 28.6063C9.36836 28.6063 10.1481 28.3196 10.9594 27.3443C11.9489 26.1572 12.9726 24.9989 14.029 23.871C14.7143 24.2388 15.4673 24.4443 16.2374 24.4649C16.2389 24.485 16.2409 24.5052 16.2427 24.5252C16.1101 24.6832 15.9803 24.8436 15.8533 25.0062C15.3197 25.6835 15.2087 25.8246 13.4911 26.1782C13.0025 26.2791 11.7049 26.5465 11.6859 27.4561C11.6652 28.4499 13.2198 28.8673 13.3969 28.9115C14.0141 29.0661 14.6087 29.1423 15.1758 29.1423C16.5549 29.1423 17.7686 28.689 18.7385 27.8119C18.7086 31.3549 18.8563 34.8461 19.2818 35.9098C19.6302 36.7806 20.4813 38.9087 23.1699 38.9086C23.5644 38.9086 23.9986 38.8627 24.4762 38.7602C27.2822 38.1588 28.5007 36.9186 28.972 34.1845C29.2243 32.7233 29.6571 29.2341 29.8607 27.3624C30.2904 27.4965 30.8435 27.5579 31.4415 27.5577C32.6886 27.5577 34.1277 27.2928 35.0302 26.8739C36.044 26.403 37.8735 25.2477 37.5418 24.2438ZM30.8597 11.5966C30.8505 12.1491 30.7744 12.6507 30.6938 13.1743C30.607 13.7374 30.5173 14.3197 30.4947 15.0264C30.4725 15.7142 30.5584 16.4293 30.6414 17.1209C30.8092 18.5177 30.9815 19.9558 30.3148 21.3747C30.204 21.1785 30.1053 20.9756 30.0193 20.7673C29.9365 20.5665 29.7565 20.2438 29.5073 19.7971C28.5378 18.0585 26.2676 13.9871 27.4297 12.3258C27.7759 11.8313 28.6545 11.3228 30.8597 11.5966ZM28.1866 2.23587C31.4187 2.30722 33.9754 3.51635 35.7856 5.82945C37.1739 7.60366 35.6451 15.6766 31.2194 22.6413C31.1749 22.5847 31.1301 22.5282 31.0851 22.472L31.0291 22.402C32.1727 20.5133 31.9491 18.6445 31.7501 16.9877C31.6683 16.3078 31.591 15.6656 31.6107 15.0623C31.631 14.423 31.7155 13.8746 31.7973 13.3443C31.8978 12.6909 32 12.0147 31.9719 11.2177C31.9929 11.1341 32.0014 11.0353 31.9903 10.918C31.9184 10.1537 31.0457 7.86621 29.2671 5.79581C28.2942 4.66335 26.8754 3.39605 24.9382 2.54129C25.7714 2.36858 26.9108 2.20754 28.1866 2.23587ZM10.1009 26.6304C9.20701 27.7051 8.5898 27.4991 8.38679 27.4315C7.06419 26.9904 5.5295 24.1949 4.17645 19.762C3.00566 15.9263 2.32149 12.0693 2.26725 10.9877C2.09636 7.56715 2.92552 5.1833 4.73185 3.90222C7.67156 1.81758 12.5047 3.06533 14.4468 3.69815C14.4189 3.72572 14.3898 3.75147 14.3623 3.7795C11.1753 6.99797 11.2509 12.4968 11.2588 12.833C11.2585 12.9627 11.2694 13.1463 11.2842 13.3988C11.3391 14.3237 11.4412 16.0451 11.1685 17.9944C10.9152 19.8059 11.4736 21.5789 12.7003 22.859C12.8262 22.9901 12.9585 23.1149 13.0968 23.2329C12.5508 23.8176 11.3641 25.1108 10.1009 26.6304ZM13.5064 22.0865C12.5177 21.0547 12.0687 19.6197 12.2743 18.149C12.5621 16.0898 12.4559 14.2963 12.3988 13.3328C12.3908 13.198 12.3837 13.0798 12.3796 12.9866C12.8451 12.5738 15.0026 11.4178 16.5413 11.7704C17.2433 11.9311 17.6712 12.4092 17.849 13.2316C18.7695 17.4892 17.9708 19.2637 17.3291 20.6898C17.1968 20.9835 17.0718 21.2612 16.9652 21.5485L16.8825 21.7706C16.6731 22.332 16.4783 22.8541 16.3575 23.3498C15.3064 23.3468 14.2839 22.8977 13.5064 22.0863V22.0865ZM13.6678 27.8283C13.3608 27.7516 13.0848 27.6185 12.9229 27.508C13.0581 27.4444 13.2989 27.3577 13.7164 27.2717C15.737 26.8558 16.0491 26.5622 16.7305 25.697C16.8867 25.4985 17.0638 25.2737 17.3091 24.9998L17.3094 24.9995C17.6746 24.5904 17.8418 24.6598 18.1448 24.7856C18.3903 24.8871 18.6296 25.1949 18.7265 25.5337C18.7724 25.6937 18.8239 25.9973 18.6553 26.2336C17.2318 28.2267 15.1575 28.2011 13.6678 27.8283ZM24.2423 37.6685C21.7705 38.1982 20.8952 36.9369 20.3185 35.4951C19.9462 34.5643 19.7632 30.3668 19.8931 25.7314C19.8947 25.6697 19.8859 25.6102 19.869 25.5541C19.8538 25.4434 19.8307 25.334 19.7999 25.2266C19.6069 24.5521 19.1365 23.9879 18.5721 23.754C18.3479 23.6611 17.9364 23.4907 17.4419 23.6172C17.5474 23.1827 17.7302 22.692 17.9286 22.1607L18.0117 21.9372C18.1054 21.6853 18.2229 21.4242 18.3472 21.1479C19.0188 19.6559 19.9385 17.6124 18.9403 12.9957C18.5664 11.2665 17.3177 10.422 15.4249 10.6182C14.2901 10.7356 13.2519 11.1935 12.7341 11.456C12.6227 11.5124 12.5209 11.5669 12.4258 11.6199C12.5703 9.87768 13.1163 6.62164 15.1588 4.56154C16.4449 3.2647 18.1576 2.62416 20.2444 2.6587C24.3561 2.72597 26.9928 4.83606 28.4808 6.59452C29.7631 8.10967 30.4575 9.63604 30.7346 10.4593C28.6507 10.2473 27.2334 10.6587 26.515 11.6858C24.952 13.9202 27.37 18.2567 28.5322 20.3409C28.7454 20.7228 28.9293 21.0529 28.9872 21.1932C29.3656 22.1104 29.8556 22.7228 30.2132 23.1697C30.3229 23.3066 30.4293 23.4395 30.5102 23.5555C29.879 23.7375 28.7454 24.1579 28.8487 26.2594C28.7654 27.3138 28.1728 32.2506 27.8718 33.9948C27.4744 36.2991 26.6265 37.1574 24.2423 37.6687V37.6685ZM34.5601 25.8612C33.9147 26.1607 32.8347 26.3854 31.8087 26.4337C30.6755 26.4868 30.0986 26.3068 29.9628 26.196C29.8992 24.8865 30.3866 24.7497 30.9024 24.6048C30.9835 24.5821 31.0626 24.5598 31.1389 24.5332C31.1863 24.5718 31.2383 24.6101 31.2953 24.6477C32.2061 25.2489 33.8306 25.3137 36.1242 24.8403L36.1493 24.8353C35.84 25.1245 35.3106 25.5126 34.5601 25.8612Z" fill="white"/>
</g>
<defs>
<clipPath id="clip0_244_760">
<rect width="38.784" height="40" fill="white"/>
</clipPath>
</defs>
</svg>
