<svg width="41" height="40" viewBox="0 0 41 40" fill="none" xmlns="http://www.w3.org/2000/svg">
<g clip-path="url(#clip0_244_746)">
<path d="M19.9086 0.0112915C9.73887 0.0112915 10.3739 4.42149 10.3739 4.42149L10.3851 8.99059H20.0899V10.3624H6.53056C6.53056 10.3624 0.0229492 9.62431 0.0229492 19.8855C0.0229492 30.147 5.70295 29.7831 5.70295 29.7831H9.09275V25.0213C9.09275 25.0213 8.91001 19.3413 14.6821 19.3413H24.3075C24.3075 19.3413 29.7153 19.4287 29.7153 14.1148V5.32863C29.7153 5.32863 30.5367 0.0112915 19.9086 0.0112915ZM14.5574 3.08392C14.7867 3.08371 15.0138 3.12873 15.2257 3.2164C15.4377 3.30406 15.6302 3.43265 15.7924 3.59482C15.9545 3.75698 16.0831 3.94952 16.1708 4.16144C16.2585 4.37335 16.3035 4.60047 16.3033 4.8298C16.3035 5.05913 16.2585 5.28625 16.1708 5.49817C16.0831 5.71008 15.9545 5.90263 15.7924 6.06479C15.6302 6.22695 15.4377 6.35554 15.2257 6.44321C15.0138 6.53087 14.7867 6.57589 14.5574 6.57568C14.328 6.57589 14.1009 6.53087 13.889 6.44321C13.6771 6.35554 13.4846 6.22695 13.3224 6.06479C13.1602 5.90263 13.0316 5.71008 12.944 5.49817C12.8563 5.28625 12.8113 5.05913 12.8115 4.8298C12.8113 4.60047 12.8563 4.37335 12.944 4.16144C13.0316 3.94952 13.1602 3.75698 13.3224 3.59482C13.4846 3.43265 13.6771 3.30406 13.889 3.2164C14.1009 3.12873 14.328 3.08371 14.5574 3.08392Z" fill="url(#paint0_linear_244_746)"/>
<path d="M20.1971 39.8629C30.3668 39.8629 29.7318 35.4527 29.7318 35.4527L29.7206 30.8838H20.0156V29.512H33.575C33.575 29.512 40.0826 30.25 40.0826 19.9885C40.0826 9.72721 34.4026 10.0911 34.4026 10.0911H31.0128V14.8527C31.0128 14.8527 31.1955 20.5327 25.4235 20.5327H15.798C15.798 20.5327 10.3902 20.4453 10.3902 25.7594V34.5457C10.3902 34.5457 9.56902 39.8629 20.1969 39.8629H20.1971ZM25.5483 36.7906C25.319 36.7908 25.0919 36.7458 24.88 36.6581C24.668 36.5704 24.4755 36.4419 24.3133 36.2797C24.1512 36.1175 24.0226 35.925 23.9349 35.7131C23.8472 35.5012 23.8022 35.274 23.8024 35.0447C23.8022 34.8154 23.8472 34.5882 23.9349 34.3763C24.0225 34.1644 24.1511 33.9718 24.3133 33.8096C24.4754 33.6474 24.668 33.5188 24.8799 33.4312C25.0918 33.3435 25.319 33.2985 25.5483 33.2987C25.7776 33.2985 26.0048 33.3435 26.2167 33.4311C26.4286 33.5188 26.6211 33.6474 26.7833 33.8096C26.9455 33.9717 27.0741 34.1643 27.1617 34.3762C27.2494 34.5881 27.2944 34.8152 27.2942 35.0445C27.2944 35.2739 27.2494 35.501 27.1617 35.7129C27.0741 35.9248 26.9455 36.1174 26.7833 36.2795C26.6211 36.4417 26.4286 36.5703 26.2167 36.658C26.0048 36.7456 25.7776 36.7908 25.5483 36.7906Z" fill="url(#paint1_linear_244_746)"/>
</g>
<defs>
<linearGradient id="paint0_linear_244_746" x1="384.997" y1="358.453" x2="2370.25" y2="2323.9" gradientUnits="userSpaceOnUse">
<stop stop-color="#387EB8"/>
<stop offset="1" stop-color="#366994"/>
</linearGradient>
<linearGradient id="paint1_linear_244_746" x1="578.613" y1="622.796" x2="2710.54" y2="2638.18" gradientUnits="userSpaceOnUse">
<stop stop-color="#FFE052"/>
<stop offset="1" stop-color="#FFC331"/>
</linearGradient>
<clipPath id="clip0_244_746">
<rect width="40.1606" height="40" fill="white"/>
</clipPath>
</defs>
</svg>
