<svg width="41" height="40" viewBox="0 0 41 40" fill="none" xmlns="http://www.w3.org/2000/svg">
<path d="M10.4067 19.3526C10.4888 18.9838 10.5865 18.6192 10.6998 18.2586C10.8131 17.8986 10.9416 17.5436 11.0847 17.1941C11.2279 16.8449 11.386 16.5019 11.5585 16.1662C11.7309 15.83 11.9176 15.502 12.118 15.1819C12.3111 14.8746 12.5153 14.5741 12.7299 14.2815C12.945 13.9892 13.1708 13.7049 13.4069 13.4293C13.6427 13.1536 13.889 12.8867 14.1449 12.6289C14.4005 12.3714 14.6656 12.1235 14.9398 11.8859C14.7297 12.068 14.5251 12.256 14.3261 12.45C14.1275 12.6441 13.9339 12.844 13.7463 13.0491C13.5587 13.2541 13.3776 13.4646 13.2019 13.6807C13.0267 13.8962 12.8574 14.1169 12.6951 14.3421C12.8102 14.1815 12.929 14.0237 13.0524 13.8692C13.1757 13.7146 13.3028 13.5632 13.434 13.4151C13.5647 13.2669 13.6995 13.1225 13.8381 12.9816C13.9766 12.8404 14.1188 12.7032 14.2646 12.5693C14.4119 12.4349 14.5623 12.3037 14.7164 12.1771C14.8701 12.0501 15.0274 11.9272 15.1875 11.8084C15.3475 11.6896 15.5108 11.5749 15.6769 11.4644C15.8429 11.3538 16.0117 11.2474 16.1832 11.1456C16.1227 11.2057 16.0612 11.2648 15.9989 11.3231C15.9365 11.3813 15.8732 11.4387 15.8094 11.4951C15.7457 11.5515 15.681 11.607 15.6154 11.662C15.5503 11.7166 15.4838 11.7703 15.4168 11.8235C15.1375 12.0634 14.899 12.3033 14.8618 12.4519C14.4926 12.7855 14.1397 13.1366 13.8041 13.5041C13.4684 13.871 13.1501 14.254 12.8505 14.6517C12.5515 15.0493 12.2713 15.4607 12.0107 15.8846C11.7507 16.3088 11.5108 16.745 11.292 17.1922C11.0723 17.6408 10.876 18.1009 10.703 18.5696C10.5306 19.0384 10.382 19.5159 10.2581 19.9998C10.0107 20.9686 9.8628 21.9602 9.8169 22.9591C9.77424 22.794 9.74305 22.6261 9.72379 22.4564C9.70452 22.2867 9.69718 22.1161 9.70223 21.9454C9.71137 21.6039 9.76849 21.2652 9.87194 20.9396C10.0412 20.3708 10.2788 19.8888 10.4067 19.3526ZM20.2494 9.42419C19.8773 9.54161 19.5094 9.67164 19.1463 9.81406C19.2348 9.77324 19.3247 9.73426 19.415 9.69756C19.5054 9.66087 19.5967 9.62647 19.6889 9.5939C19.7811 9.56134 19.8737 9.53106 19.9673 9.50263C20.0608 9.47419 20.1549 9.44805 20.2494 9.42419ZM24.8961 35.5106C25.3039 35.4661 25.7094 35.4037 26.0951 35.3414C25.997 35.3648 25.8979 35.3854 25.7988 35.4042C25.6993 35.4226 25.5997 35.4391 25.4993 35.4533C25.3993 35.467 25.2989 35.479 25.1984 35.4886C25.098 35.4982 24.9971 35.5056 24.8961 35.5106ZM11.0365 24.503L11.2154 25.169C11.2796 25.6038 11.3649 26.0354 11.4713 26.4624C11.5773 26.889 11.7034 27.3105 11.8502 27.7251C12.1433 28.555 12.5157 29.3547 12.9625 30.113C12.8305 29.9007 12.7036 29.6854 12.5818 29.4672C12.4602 29.2488 12.3433 29.0278 12.2318 28.8039C12.1208 28.5801 12.0144 28.354 11.9139 28.1251C11.813 27.8967 11.7176 27.6655 11.6277 27.4321C11.5378 27.1986 11.458 26.9615 11.3878 26.7211C11.3181 26.4808 11.2585 26.2377 11.209 25.9927C11.1594 25.7474 11.12 25.5001 11.0915 25.2515C11.0626 25.0029 11.0443 24.753 11.0365 24.503ZM11.3158 22.638C11.3181 22.2151 11.3479 21.7927 11.4044 21.3739C11.4608 20.9547 11.5438 20.5396 11.6534 20.1314C11.7626 19.7227 11.8983 19.3218 12.0589 18.9306C12.2194 18.5398 12.4052 18.1591 12.6148 17.7917C12.4153 18.1637 12.2373 18.5467 12.0818 18.9389C11.9268 19.3315 11.7942 19.7324 11.6851 20.1397C11.5754 20.5474 11.4901 20.9607 11.4282 21.3781C11.3667 21.7955 11.3291 22.2161 11.3158 22.638ZM33.3669 28.22C33.3334 28.2081 33.3238 28.171 33.3251 28.1265C33.3283 28.1173 33.3316 28.1072 33.3338 28.0976C33.3361 28.0875 33.3384 28.0779 33.3398 28.0678C33.3412 28.0577 33.3421 28.0476 33.3421 28.037C33.3426 28.0269 33.3426 28.0169 33.3416 28.0068C33.4205 27.8903 33.4976 27.7724 33.5724 27.6527C33.6467 27.5334 33.7191 27.4123 33.7893 27.2903C33.859 27.1683 33.9269 27.0445 33.992 26.9202C34.0576 26.7954 34.1205 26.6693 34.181 26.5422C34.1778 26.5776 34.1737 26.6124 34.1686 26.6473C34.164 26.6826 34.1585 26.7174 34.1526 26.7523C34.1466 26.7872 34.1402 26.8216 34.1329 26.8564C34.1255 26.8908 34.1177 26.9252 34.109 26.9596C34.0806 27.0115 34.0512 27.0628 34.0205 27.1133C33.9593 27.2146 33.8938 27.3134 33.8242 27.4091C33.7893 27.4573 33.7535 27.5045 33.7168 27.5509C33.6806 27.6022 33.6457 27.6545 33.6127 27.7077C33.5797 27.7614 33.549 27.816 33.5196 27.8715C33.4907 27.9274 33.4637 27.9838 33.4384 28.0416C33.4132 28.099 33.3903 28.1577 33.3692 28.2168M24.4467 35.5381L24.4035 35.5565C24.2632 35.5661 24.1237 35.5753 23.9861 35.5803L23.9357 35.5684C24.1059 35.5565 24.2751 35.5455 24.4467 35.5381ZM32.9665 28.8163C32.9518 28.8081 32.9371 28.8012 32.9215 28.7948C32.9064 28.7888 32.8903 28.7838 32.8743 28.7801C32.8582 28.7764 32.8417 28.7737 32.8252 28.7723C32.8087 28.7709 32.7922 28.7709 32.7756 28.7718C32.9733 28.5319 33.1618 28.2756 33.338 28.015L33.3338 28.043C33.3325 28.0522 33.3311 28.0614 33.3302 28.0705C33.3288 28.0802 33.3279 28.0893 33.327 28.0985C33.326 28.1081 33.3256 28.1173 33.3251 28.1265C33.2614 28.3329 33.0288 28.5755 32.9651 28.8163M27.0941 32.4857C26.9097 32.5444 26.7762 32.7146 26.6937 32.771C26.1781 32.8058 25.6695 32.8081 25.0819 32.8035C24.9934 32.8467 24.8026 32.8623 24.6228 32.9366C24.5122 32.8861 24.3962 32.8453 24.2737 32.8035C24.6049 32.8072 24.9365 32.7953 25.2663 32.7678C25.5965 32.7402 25.9254 32.6971 26.2515 32.6389C26.5776 32.5806 26.901 32.5072 27.2202 32.4187C27.5395 32.3302 27.8541 32.227 28.1637 32.1091C28.0779 32.1481 27.9913 32.1857 27.9041 32.221C27.8165 32.2568 27.7284 32.2898 27.6395 32.3215C27.5505 32.3527 27.4606 32.3825 27.3702 32.4095C27.2803 32.4371 27.189 32.4623 27.0978 32.4857" fill="#415870"/>
<path d="M21.1682 11.4286C22.1479 11.1121 23.268 11.0149 24.3578 11.0571C25.448 11.0988 26.5163 11.2584 27.5332 11.3626C26.4278 10.9236 25.0091 10.6769 23.8156 10.6131C22.6226 10.5493 21.6718 10.5961 21.4237 10.3562C21.1755 10.1164 22.0328 9.87647 23.2221 9.83107C23.3808 9.82648 23.5395 9.8251 23.6978 9.82694C23.8565 9.82877 24.0147 9.83382 24.1734 9.84162C24.3316 9.84941 24.4899 9.86042 24.6477 9.87464C24.8054 9.8884 24.9632 9.90583 25.1206 9.92555C25.7572 10.0026 26.3626 10.1223 26.8534 10.2159C26.6053 10.1044 26.6053 10.1044 26.3535 10.0003C26.6062 10.1044 26.8534 10.2122 27.0979 10.1994C26.8599 10.0932 26.6175 9.99728 26.3713 9.91179C26.2892 9.88335 26.2071 9.85583 26.1241 9.82969C25.7719 9.70998 25.4407 9.60311 25.2958 9.49991C25.4623 9.46505 25.6288 9.43753 25.798 9.41001C25.1219 9.11233 24.0821 8.93024 23.0231 8.90042C21.9644 8.87015 20.8934 8.9651 20.1091 8.97702C20.5962 8.92152 21.0847 8.88391 21.5746 8.86465C22.064 8.84492 22.5543 8.84401 23.0442 8.86098C23.5336 8.87795 24.0225 8.91327 24.5096 8.96647C24.9967 9.02014 25.4815 9.09169 25.9636 9.18067C26.4801 9.27883 26.9919 9.40267 27.4965 9.55128C28.001 9.69943 28.4977 9.87326 28.9853 10.0705C29.4724 10.2682 29.9499 10.4902 30.4154 10.7346C30.881 10.9794 31.3341 11.2471 31.7731 11.5369C32.2304 11.8387 32.6703 12.1666 33.09 12.5189C33.5096 12.8711 33.9087 13.2468 34.2857 13.6449C34.6623 14.0426 35.0159 14.4618 35.3448 14.9003C35.6732 15.3388 35.9768 15.7956 36.2534 16.2685C36.5281 16.74 36.7745 17.2276 36.9909 17.7285C37.2074 18.2293 37.3932 18.7426 37.5478 19.2659C37.7028 19.7893 37.8257 20.3213 37.9165 20.8593C38.0074 21.3974 38.0661 21.9404 38.0918 22.4853C38.1729 23.6453 38.1266 24.8099 37.9537 25.9593C37.7803 27.1088 37.4813 28.2357 37.062 29.32C36.6428 30.4038 36.1053 31.4386 35.4599 32.405C34.8146 33.3714 34.0646 34.2644 33.2243 35.0671C33.0982 35.1722 32.9689 35.274 32.8372 35.3721C32.7056 35.4707 32.5717 35.5657 32.435 35.6565C32.1616 35.8393 31.8787 36.0072 31.5873 36.1597C31.4089 36.2555 31.2287 36.3473 31.0461 36.4353C30.8636 36.5229 30.6792 36.6064 30.493 36.6858C30.3063 36.7651 30.1182 36.8399 29.9283 36.9105C29.7389 36.9811 29.5476 37.0477 29.3545 37.1096C26.9373 38.0787 24.25 38.4195 21.6071 38.1806C18.7964 37.821 16.1618 36.5532 14.0524 34.6653C11.9434 32.777 10.3147 30.2584 9.41201 27.3926C9.22579 26.823 9.20561 26.0946 9.32807 25.8799C9.3877 25.7722 9.4776 25.7891 9.59869 26.0001C9.71978 26.2111 9.87572 26.6239 10.1252 27.2858C10.3408 27.8288 10.5839 28.3604 10.8527 28.8792C11.121 29.3975 11.4155 29.9025 11.7347 30.3919C12.0539 30.8808 12.3971 31.3537 12.7631 31.8087C13.1295 32.2637 13.518 32.7004 13.9276 33.1164C13.7694 33.082 13.5116 32.8467 13.2538 32.5683C13.196 32.5018 13.1378 32.4357 13.0782 32.3706C12.9591 32.2404 12.8368 32.1133 12.7112 31.9894C12.6484 31.928 12.5846 31.867 12.52 31.8069C12.6337 31.9784 12.752 32.1477 12.8745 32.3133C12.997 32.4793 13.124 32.6417 13.2547 32.8013C13.3855 32.9609 13.5199 33.1168 13.6588 33.2696C13.7974 33.4219 13.94 33.5709 14.0859 33.7163C14.2313 33.8604 14.3799 34.0007 14.5321 34.1369C14.6844 34.2736 14.8404 34.4062 14.9995 34.5346C15.1582 34.663 15.3206 34.7873 15.4862 34.9075C15.6518 35.0277 15.8201 35.1437 15.9916 35.2552C15.5092 34.9412 15.0454 34.5994 14.6028 34.2314C14.3812 34.0475 14.1652 33.8576 13.9551 33.6613C13.7446 33.465 13.54 33.2622 13.3414 33.054C13.5997 33.326 13.8685 33.5884 14.1464 33.8402C14.4239 34.092 14.711 34.3337 15.0069 34.5644C15.3027 34.7951 15.6068 35.0148 15.9187 35.2231C16.2304 35.4317 16.5498 35.6285 16.8764 35.8129C17.5576 36.1982 18.2703 36.5247 19.0069 36.789C19.3748 36.9211 19.7481 37.038 20.1261 37.1385C20.504 37.2389 20.8861 37.3233 21.2714 37.3917C21.8337 37.4994 22.3447 37.7164 22.9405 37.8618C23.1111 37.9067 23.2845 37.9402 23.4592 37.9613C23.6345 37.9824 23.8106 37.9916 23.9867 37.9884C24.1633 37.9856 24.339 37.9705 24.5133 37.943C24.6871 37.9159 24.8596 37.8765 25.0284 37.8256C24.5114 37.8265 23.9945 37.8008 23.4803 37.749C22.966 37.6967 22.4547 37.6183 21.9484 37.5141C21.4421 37.4095 20.9415 37.279 20.4485 37.1233C19.9555 36.9674 19.4711 36.7862 18.9964 36.5807C18.524 36.3757 18.0616 36.1487 17.6107 35.8996C17.1599 35.651 16.7209 35.3804 16.2962 35.0896C15.8711 34.7988 15.4601 34.4879 15.0647 34.158C14.6693 33.8278 14.29 33.4792 13.9276 33.1132C13.9299 33.1132 13.9317 33.1136 13.9336 33.1136H13.946C13.9478 33.1136 13.9496 33.1132 13.9519 33.1132C13.64 32.8036 13.3433 32.4798 13.0621 32.1426C12.781 31.8054 12.5157 31.4552 12.2672 31.0932C12.0187 30.7311 11.7871 30.3576 11.5733 29.974C11.36 29.5901 11.1641 29.1966 10.9875 28.7948C11.2274 29.2879 11.5201 29.769 11.7379 30.202C10.5821 27.899 9.95599 25.4158 9.97801 22.9055C10.0161 23.3504 10.072 23.7935 10.1454 24.2342C10.2193 24.6746 10.3105 25.1121 10.4188 25.5451C10.5275 25.9786 10.6536 26.4074 10.7963 26.8303C10.9394 27.2537 11.099 27.6706 11.2751 28.0811C11.6326 28.9162 12.0656 29.717 12.5686 30.4735C12.8199 30.8515 13.0883 31.218 13.3726 31.5716C13.657 31.9255 13.9574 32.2662 14.273 32.5926C15.2239 33.5772 16.314 34.4171 17.5085 35.0855C17.9061 35.3079 18.3143 35.5106 18.7317 35.6932C19.5464 36.0482 20.3957 36.3178 21.2659 36.4977C21.7007 36.5881 22.1401 36.6555 22.5818 36.7C23.024 36.7449 23.4675 36.7665 23.912 36.7656C22.9428 36.5963 21.8287 36.4812 20.7604 36.2207C19.6922 35.9606 18.6872 35.5625 18.03 35.0144C18.7335 35.3776 19.4663 35.6812 20.2206 35.9221C20.9748 36.1632 21.7479 36.3404 22.5318 36.4518C23.3157 36.5638 24.1078 36.6092 24.8995 36.5885C25.6907 36.5674 26.4791 36.4803 27.2561 36.3275L26.5741 36.5326C26.8319 36.5124 27.0887 36.4812 27.3442 36.439C27.5996 36.3973 27.8532 36.345 28.1042 36.2821C28.3551 36.2188 28.6037 36.1455 28.8486 36.062C29.0931 35.978 29.3348 35.8845 29.5715 35.7808C29.8095 35.6767 30.0448 35.5671 30.2774 35.4524C30.5099 35.3373 30.7397 35.2166 30.9663 35.0905C31.1933 34.9644 31.4167 34.8332 31.6373 34.6961C31.858 34.5594 32.0754 34.4176 32.2891 34.2704C32.44 34.1709 32.59 34.07 32.7386 33.9636L32.2891 34.2704C31.9075 34.5204 31.514 34.7516 31.1103 34.9635C30.7062 35.1754 30.2925 35.3675 29.8701 35.5395C29.4477 35.7115 29.0174 35.8629 28.5803 35.9932C28.1432 36.1239 27.7001 36.2331 27.2525 36.3202C28.0368 36.0803 28.8619 35.8225 29.827 35.44C29.2669 35.5597 28.4996 35.7877 27.7153 35.9377C27.4634 36.0023 27.2089 36.0597 26.9534 36.1092C26.6979 36.1588 26.4406 36.2005 26.1824 36.2349C25.9246 36.2688 25.6655 36.2954 25.4054 36.3142C25.1458 36.3326 24.8857 36.3436 24.6252 36.3468C25.0082 36.3326 25.3898 36.2982 25.7687 36.2431C26.5274 36.1331 27.2723 35.9423 27.9905 35.6739C28.3491 35.5395 28.7005 35.3864 29.0431 35.2143C27.0236 35.8684 24.8146 36.1427 22.7245 35.8143C23.0116 35.8432 23.2992 35.8624 23.5877 35.8721C23.8757 35.8817 24.1642 35.8813 24.4523 35.8712C24.7408 35.8611 25.0284 35.8414 25.3155 35.812C25.6022 35.7826 25.8879 35.7432 26.1723 35.6941C26.6585 35.6372 27.1415 35.5524 27.6185 35.4396C28.5727 35.2141 29.4978 34.8795 30.3755 34.4424C30.814 34.2236 31.2392 33.9801 31.6497 33.7127L31.4663 33.8484C31.5933 33.7654 31.7158 33.6755 31.8382 33.5879C31.9997 33.4778 32.1589 33.3636 32.3153 33.2457C32.4717 33.1283 32.6253 33.0068 32.7762 32.882C32.9267 32.7568 33.0748 32.6284 33.2193 32.4967C33.3638 32.3646 33.5055 32.2293 33.644 32.0908C34.0014 31.7092 34.318 31.2912 34.5884 30.8437C34.6788 30.6946 34.7636 30.5428 34.843 30.3878L35.0361 30.1025C34.9595 30.3135 34.9453 30.4368 35.2076 30.1025C35.3507 29.914 35.486 29.7195 35.6131 29.52C35.7402 29.3204 35.8589 29.1159 35.9695 28.9063C36.08 28.6971 36.1819 28.4834 36.275 28.2659C36.3676 28.0485 36.452 27.827 36.5268 27.6027C36.8602 26.6767 37.1047 25.6988 37.3661 24.6769C37.5014 24.1384 37.534 23.3862 37.467 22.5876C37.4758 22.5518 37.4817 22.5151 37.484 22.4784C37.4868 22.4418 37.4863 22.4046 37.4826 22.3679C37.479 22.3312 37.4721 22.295 37.4625 22.2592C37.4524 22.2239 37.4395 22.189 37.4235 22.1555C37.4047 21.984 37.3804 21.8115 37.3542 21.64C37.3441 21.535 37.3317 21.4304 37.3171 21.3258C37.3024 21.2212 37.2859 21.1171 37.2666 21.0135C37.2473 20.9098 37.2258 20.8066 37.2019 20.7038C37.1781 20.6011 37.1524 20.4988 37.124 20.3975C37.2065 20.8002 37.2895 21.2176 37.3542 21.64L37.4019 22.1124C37.3822 22.0785 37.3643 22.0436 37.3483 22.0074C37.3322 21.9716 37.318 21.9349 37.3061 21.8973C37.2941 21.8597 37.284 21.8216 37.2762 21.7831C37.2684 21.7446 37.2629 21.7056 37.2593 21.6661C37.2882 22.0326 37.3015 22.3996 37.2992 22.7669C37.2969 23.1339 37.279 23.5013 37.246 23.8668C37.2129 24.2324 37.1639 24.5966 37.1001 24.9585C37.0359 25.3199 36.957 25.6786 36.8625 26.0336C36.7662 26.3946 36.6557 26.7514 36.5304 27.1032C36.4057 27.4555 36.2662 27.8022 36.1135 28.143C35.9608 28.4838 35.7943 28.8182 35.6145 29.1457C35.4347 29.4727 35.2416 29.7929 35.0361 30.1048C35.0962 29.9295 35.1943 29.691 35.2219 29.5851C35.1081 29.8589 34.9824 30.1249 34.843 30.3901C34.7045 30.59 34.5609 30.7863 34.4123 30.979C34.2637 31.1716 34.11 31.3606 33.9523 31.5454C33.794 31.7303 33.6312 31.9115 33.4642 32.088C33.2973 32.2651 33.1253 32.4376 32.9496 32.6054C32.9955 32.5559 33.0395 32.505 33.0822 32.4532C33.1675 32.3489 33.2467 32.2397 33.3193 32.1261C33.3555 32.0697 33.3904 32.0119 33.4234 31.9532C33.1788 32.1954 32.9253 32.4284 32.6634 32.6518C32.4014 32.8748 32.1312 33.0881 31.8534 33.2911C31.5754 33.4939 31.2897 33.6861 30.9975 33.8677C30.705 34.0492 30.4057 34.2196 30.1003 34.3787C29.793 34.5383 29.4793 34.686 29.1601 34.8213C28.8413 34.9566 28.517 35.0795 28.1886 35.19C27.8602 35.3006 27.5272 35.3983 27.1915 35.4827C26.8552 35.5675 26.5163 35.6391 26.1746 35.6978C25.5366 35.7721 24.8944 35.7987 24.2527 35.7776C23.6111 35.7565 22.9717 35.6882 22.3401 35.5721C21.7085 35.4565 21.0864 35.2941 20.4788 35.0864C19.8712 34.8785 19.2799 34.6259 18.7097 34.3305C19.0138 34.5231 19.3275 34.6993 19.6495 34.8589C19.972 35.0185 20.3027 35.1607 20.6398 35.2854C20.9774 35.4097 21.3209 35.5166 21.6695 35.6051C22.0181 35.6932 22.3713 35.7629 22.7272 35.8143C22.2337 35.7649 21.7436 35.6862 21.2595 35.5785C20.7752 35.4714 20.2978 35.3354 19.8298 35.1712C19.3616 35.0076 18.9037 34.8162 18.4584 34.5979C18.0129 34.3799 17.5809 34.1356 17.1645 33.8663C16.7487 33.599 16.35 33.3061 15.9705 32.9893C15.5912 32.6724 15.2321 32.3325 14.895 31.9711C14.5578 31.6097 14.2436 31.2276 13.9538 30.8272C13.6639 30.4267 13.3992 30.0089 13.1616 29.5759C13.6942 30.0832 14.3858 30.7584 14.8665 30.9024C14.9339 30.8038 14.2469 29.836 14.7289 30.3373C15.6389 31.2092 16.4365 31.9028 17.1677 32.3848C17.8992 32.8669 18.5634 33.1141 19.1537 33.0086C19.2734 32.9618 18.8322 32.4894 18.5253 32.0348C18.2185 31.5798 18.0203 31.1684 18.374 31.3367C18.5923 31.4629 18.8143 31.5831 19.04 31.6963C19.2652 31.8092 19.494 31.9156 19.7257 32.0151C20.1895 32.2138 20.6647 32.3846 21.1489 32.5265C21.2347 32.5596 21.3209 32.5912 21.4081 32.621C21.4948 32.6508 21.5824 32.6788 21.6704 32.7054C21.7585 32.7316 21.847 32.7563 21.936 32.7793C22.025 32.8022 22.1144 32.8238 22.2043 32.843C22.2484 32.8669 22.335 32.843 22.4442 32.8155C23.751 33.0361 25.0091 32.9513 25.7035 32.8889C25.9622 32.8705 26.2191 32.8357 26.4745 32.7962C26.5057 32.7976 26.5374 32.7999 26.569 32.8036C26.6002 32.8072 26.6314 32.8123 26.6626 32.8183C26.6933 32.8242 26.7241 32.8316 26.7548 32.8403C26.7851 32.849 26.8153 32.8586 26.8447 32.8696C26.9924 32.7797 27.141 32.6981 27.2896 32.6297C27.457 32.5871 27.6231 32.5398 27.7877 32.4885C27.9524 32.4366 28.1157 32.3807 28.2776 32.3201C28.439 32.2591 28.5991 32.1945 28.7569 32.1247C28.9151 32.0555 29.0711 31.9816 29.2252 31.9041C29.3169 31.8725 29.4082 31.8399 29.4986 31.8055C29.5894 31.7711 29.6793 31.7353 29.7687 31.6977C29.8582 31.6606 29.9471 31.6216 30.0352 31.5812C30.1233 31.5409 30.2104 31.4987 30.2971 31.4551C30.2636 31.4216 30.1774 31.4074 30.2123 31.328C30.3907 31.2092 30.5654 31.084 30.7356 30.9533C30.9058 30.8226 31.0718 30.6868 31.2333 30.5451C31.3947 30.4034 31.5511 30.2566 31.7029 30.1048C31.8548 29.9529 32.0015 29.7961 32.1428 29.6346C32.2061 29.58 32.2703 29.5268 32.3354 29.4745C32.4006 29.4223 32.4666 29.3709 32.5336 29.3209C32.6005 29.2709 32.6684 29.2223 32.7368 29.1746C32.8056 29.1269 32.8748 29.0801 32.945 29.0347C33.0551 28.5288 33.4353 27.8619 33.7844 27.0881C34.1334 26.3143 34.438 25.447 34.5348 24.6998H34.5192C34.554 24.5122 34.5834 24.3237 34.6077 24.1342C34.632 23.9448 34.6513 23.7549 34.6655 23.565C34.6797 23.3747 34.6884 23.1839 34.6925 22.9931C34.6962 22.8023 34.6948 22.6115 34.6884 22.4207C34.7219 22.2922 34.7604 22.1675 34.8081 22.0491C34.7256 21.8629 34.6994 21.6629 34.6526 21.5694C34.626 20.9502 34.5962 20.4176 34.5325 19.8792C34.4715 19.7952 34.2926 19.6595 34.2233 19.4686C34.194 19.3742 34.1628 19.2806 34.1298 19.1875C34.0963 19.0944 34.0614 19.0017 34.0243 18.91C33.9871 18.8183 33.9477 18.7274 33.9068 18.6375C33.866 18.5476 33.8229 18.4582 33.7784 18.3701C33.7326 18.2656 33.6849 18.1614 33.6362 18.0582C33.5872 17.9551 33.5367 17.8527 33.4849 17.7509C33.433 17.6496 33.3798 17.5482 33.3248 17.4482C33.2702 17.3482 33.2138 17.2487 33.156 17.1501C32.9593 16.8136 32.7456 16.4874 32.5157 16.1726C32.2859 15.8578 32.04 15.555 31.7791 15.2654C31.5181 14.9755 31.2424 14.6994 30.9535 14.438C30.6645 14.1765 30.3622 13.9297 30.0476 13.6995C30.0438 13.6665 30.0445 13.6332 30.0499 13.6004C30.0526 13.5839 30.0568 13.5679 30.0618 13.5523C30.0669 13.5367 30.0728 13.5211 30.0802 13.5064C29.8283 13.4472 29.5623 13.2197 29.344 13.1606C29.3908 13.1606 29.4266 13.15 29.4362 13.1165C29.3738 13.0963 29.3119 13.0739 29.2504 13.05C29.1894 13.0262 29.1289 13 29.0697 12.972C29.0101 12.9441 28.9514 12.9147 28.8936 12.8831C28.8362 12.8514 28.7794 12.8179 28.7239 12.7831C28.6734 12.7468 28.6225 12.712 28.5707 12.678C28.5188 12.6441 28.4661 12.6111 28.4129 12.5794C28.3597 12.5478 28.3056 12.517 28.2514 12.4877C28.1969 12.4583 28.1418 12.4299 28.0859 12.4028C28.0501 12.3955 28.0138 12.3886 27.9776 12.3826C27.9409 12.3767 27.9047 12.3712 27.868 12.3661C27.8318 12.3616 27.7951 12.3574 27.7584 12.3538C27.7217 12.3501 27.685 12.3473 27.6483 12.345C27.5813 12.3161 27.5139 12.2923 27.4469 12.2648C26.8112 11.7731 26.0306 11.713 25.2008 11.6373C24.9912 11.6015 24.7802 11.5717 24.5688 11.5479C24.3573 11.524 24.145 11.5061 23.9326 11.4942C23.7202 11.4818 23.5074 11.4759 23.2946 11.4759C23.0818 11.4759 22.8689 11.4818 22.6561 11.4933C21.9787 11.5437 21.6824 11.4227 21.1815 11.4277" fill="#415870"/>
<path d="M34.2649 26.3574C34.3415 26.1879 34.4139 26.0164 34.4818 25.8432C34.5492 25.6698 34.6125 25.4946 34.6717 25.3185C34.789 24.9653 34.8882 24.6063 34.9689 24.2429C34.8611 25.0318 34.7735 25.7767 34.2649 26.3574ZM18.0596 30.8721C18.0206 30.8028 17.9807 30.7336 17.9389 30.6652C17.8977 30.5969 17.855 30.5295 17.811 30.463C17.7669 30.396 17.722 30.3304 17.6757 30.2653C17.6293 30.2001 17.5821 30.1355 17.5335 30.0722C17.8513 30.3758 18.1894 30.6579 18.5448 30.9166C18.9008 31.1748 19.2732 31.4092 19.6603 31.6174C20.0474 31.8261 20.4483 32.0082 20.8598 32.1632C21.2712 32.3178 21.6927 32.4449 22.1211 32.543V32.5577C21.4147 32.4375 20.596 32.1055 19.8823 31.7394C19.1691 31.3739 18.543 30.9909 18.0596 30.8721ZM33.32 28.1265C33.3205 28.1173 33.3214 28.1081 33.3223 28.0985L33.325 28.0705C33.3264 28.0614 33.3273 28.0522 33.3287 28.043C33.3301 28.0338 33.3315 28.0242 33.3333 28.015C33.3347 28.0455 33.3319 28.0761 33.325 28.1058C33.3227 28.1159 33.3195 28.1256 33.3163 28.1352M13.66 29.6883L13.5485 29.5048C13.7047 29.7297 13.8673 29.9502 14.0361 30.1657C14.1201 30.2735 14.2058 30.3799 14.2934 30.4854C14.3806 30.5909 14.4691 30.695 14.5595 30.7978C14.4751 30.7134 14.393 30.6272 14.3132 30.5386C14.2333 30.4501 14.1558 30.3593 14.0811 30.2666C14.006 30.1741 13.9333 30.0796 13.8632 29.9832C13.793 29.8866 13.7253 29.7882 13.66 29.6883ZM11.89 24.1539C11.8556 23.8787 11.8304 23.6026 11.8148 23.326C11.7987 23.049 11.7923 22.772 11.7951 22.4945C11.7983 22.2174 11.8102 21.9404 11.8322 21.6638C11.8538 21.3872 11.8845 21.1116 11.9249 20.8373C11.9904 20.4979 12.0735 20.1621 12.1744 19.8314C12.2748 19.5007 12.3932 19.1755 12.5285 18.8572C12.6633 18.5389 12.8156 18.2284 12.9835 17.9261C13.1513 17.6238 13.3353 17.3308 13.5343 17.0482C13.2257 17.5825 12.9572 18.139 12.7312 18.7132C12.5047 19.2872 12.3211 19.8773 12.1822 20.4786C12.0432 21.0795 11.9487 21.6904 11.9001 22.3055C11.8511 22.9206 11.8477 23.5384 11.89 24.1539ZM15.88 28.243C15.8428 28.1581 15.8075 28.0728 15.7736 27.9871C15.7396 27.9013 15.7071 27.8146 15.6759 27.7279C15.6447 27.6408 15.6153 27.5531 15.5873 27.4651C15.5594 27.377 15.5328 27.2885 15.508 27.1995C15.5451 27.2816 15.5832 27.3637 15.6231 27.4449C15.6626 27.5261 15.7034 27.6068 15.7451 27.6866C15.7869 27.7669 15.83 27.8462 15.8745 27.9247C15.9185 28.0036 15.9639 28.0815 16.0102 28.1591C15.9359 28.1256 15.9144 28.2072 15.88 28.2384M16.8716 32.909L16.6051 32.7109C16.8546 32.8526 17.1078 32.9856 17.3656 33.1058C17.2638 33.0746 17.0367 32.9737 16.8716 32.909ZM14.7801 24.5438C14.809 24.8062 14.8489 25.0672 14.9002 25.3272C14.8342 25.1809 14.7645 25.0378 14.6819 24.8942C14.6943 24.8663 14.7053 24.8383 14.7154 24.8094C14.7255 24.7809 14.7347 24.752 14.7425 24.7227C14.7503 24.6933 14.7567 24.6635 14.7622 24.6337C14.7677 24.6039 14.7723 24.5741 14.7755 24.5438M14.9181 20.491C14.9406 20.4061 14.9645 20.3222 14.9901 20.2387C15.0158 20.1553 15.0434 20.0722 15.0723 19.9897C15.1011 19.9076 15.1314 19.8255 15.1635 19.7443C15.1956 19.6631 15.2296 19.5824 15.2644 19.5026C15.2314 19.6021 15.1998 19.7021 15.1695 19.803C15.1392 19.9034 15.1103 20.0043 15.0833 20.1057C15.0557 20.2071 15.0301 20.3089 15.0057 20.4112C14.9814 20.5135 14.9585 20.6158 14.9374 20.7185C14.9145 20.6158 14.8938 20.5314 14.9181 20.491Z" fill="#415870"/>
<path d="M18.0972 3.90686C18.3655 4.02382 18.6292 4.15225 18.887 4.29169C19.1448 4.43066 19.3966 4.58111 19.6415 4.74164C19.8865 4.90263 20.1245 5.07372 20.3552 5.25443C20.5859 5.43561 20.8084 5.62596 21.023 5.82594C21.2285 6.01858 21.4267 6.21856 21.6175 6.42542C21.8083 6.63274 21.9913 6.84694 22.166 7.06756C22.3408 7.28818 22.5073 7.51568 22.6655 7.74868C22.8233 7.98169 22.9729 8.22066 23.1127 8.46467C23.0045 8.27845 22.8912 8.09544 22.7724 7.91564C22.6536 7.73584 22.5293 7.55971 22.4004 7.38725C22.2715 7.21479 22.1376 7.046 21.9986 6.88134C21.8601 6.71668 21.7166 6.55568 21.5684 6.39928C21.6739 6.51073 21.7762 6.62494 21.8757 6.74144C21.9752 6.85841 22.0716 6.97766 22.1647 7.09921C22.2582 7.22076 22.3481 7.34505 22.4353 7.47119C22.522 7.59732 22.6059 7.72621 22.6862 7.85647C22.7665 7.98857 22.844 8.1225 22.9174 8.25827C22.9912 8.39449 23.0618 8.53209 23.1283 8.67153C23.1953 8.81051 23.2586 8.95178 23.3187 9.09442C23.3783 9.23707 23.4347 9.38109 23.487 9.52649C23.4503 9.47145 23.4146 9.41549 23.3792 9.35953C23.3439 9.30358 23.3095 9.2467 23.276 9.18983C23.2425 9.13249 23.21 9.07516 23.1783 9.01691C23.1462 8.95912 23.1155 8.90041 23.0852 8.84124C22.9449 8.60135 22.7986 8.37706 22.6871 8.32661C22.488 7.99637 22.2734 7.6753 22.044 7.36524C21.8142 7.05521 21.5699 6.75613 21.312 6.46899C20.7952 5.89513 20.2249 5.37173 19.609 4.90585C19.3001 4.67205 18.9794 4.45435 18.648 4.25362C18.3169 4.05226 17.9756 3.86879 17.6252 3.70275C17.2752 3.53671 16.917 3.38856 16.5519 3.25922C16.1864 3.12987 15.8148 3.01933 15.4383 2.92806C15.5704 2.9198 15.7029 2.92072 15.835 2.93081C15.9667 2.94136 16.0978 2.96108 16.2272 2.98998C16.3561 3.01842 16.4831 3.05649 16.607 3.10327C16.7309 3.14975 16.8513 3.20493 16.9675 3.26839C17.3762 3.48213 17.7073 3.73532 18.0972 3.91145M24.2067 12.8812C24.1718 12.573 24.1273 12.2817 24.0737 11.9827C24.0915 12.0565 24.1081 12.1304 24.1227 12.2047C24.1374 12.2794 24.1503 12.3537 24.1613 12.429C24.1723 12.5037 24.1819 12.5789 24.1892 12.6546C24.197 12.7298 24.2025 12.8055 24.2067 12.8812ZM3.6509 12.5551C3.62476 12.8716 3.61146 13.1894 3.60182 13.4967C3.59861 13.4179 3.59678 13.3394 3.59724 13.2605C3.59863 13.0244 3.61656 12.7887 3.6509 12.5551ZM14.0824 3.62845L13.5499 3.6656C13.2091 3.65046 12.8679 3.65184 12.5271 3.66927C12.1863 3.68716 11.8469 3.7211 11.5093 3.77155C11.1717 3.82155 10.8373 3.88806 10.5062 3.97062C10.175 4.05318 9.84846 4.15133 9.52693 4.26554C9.7081 4.19628 9.89065 4.13161 10.075 4.07106C10.2594 4.01052 10.4452 3.95456 10.6319 3.90273C10.819 3.85136 11.0071 3.80412 11.1965 3.761C11.3855 3.71835 11.5758 3.68028 11.7666 3.64634C11.9574 3.61239 12.1501 3.58671 12.3432 3.56882C12.5363 3.55093 12.7298 3.5413 12.9238 3.53992C13.1179 3.53855 13.3114 3.54543 13.505 3.56056C13.6981 3.57524 13.8907 3.59863 14.0824 3.62982M15.4598 4.11785C16.104 4.24648 16.729 4.45752 17.3193 4.74577C17.6142 4.88979 17.8995 5.05262 18.1733 5.23334C18.4472 5.41359 18.7095 5.61174 18.9581 5.82594C18.7045 5.61862 18.4394 5.42644 18.1637 5.24985C17.8878 5.07351 17.6021 4.91317 17.3078 4.76962C17.0138 4.62606 16.7115 4.49946 16.4029 4.39076C16.0942 4.28205 15.7791 4.19124 15.4598 4.11923M7.94635 20.0855C7.96057 20.0626 7.98947 20.0612 8.02295 20.0686C8.02983 20.0722 8.03625 20.0759 8.04359 20.0791C8.05047 20.0823 8.05735 20.0851 8.06469 20.0874C8.07903 20.0928 8.09396 20.0965 8.10918 20.0984C8.18623 20.1759 8.26467 20.2516 8.34448 20.3259C8.42383 20.4002 8.50501 20.4731 8.58757 20.5447C8.67013 20.6158 8.75361 20.6855 8.83846 20.7538C8.92378 20.8222 9.01001 20.8887 9.09761 20.9538C9.04482 20.9374 8.99265 20.919 8.94121 20.8988C8.91552 20.8887 8.89029 20.8786 8.86461 20.8676C8.83938 20.8566 8.81416 20.8456 8.78939 20.8336C8.75407 20.8047 8.71921 20.7745 8.68527 20.7437C8.65133 20.713 8.6183 20.6814 8.58574 20.6493C8.55297 20.617 8.52101 20.584 8.48988 20.5502C8.45858 20.5166 8.42799 20.4823 8.39814 20.4474C8.36466 20.4126 8.3298 20.3786 8.29402 20.3461C8.25825 20.3135 8.22109 20.2819 8.18302 20.252C8.14495 20.2218 8.10551 20.1933 8.06561 20.1658C8.0257 20.1383 7.98442 20.1121 7.94268 20.0878M3.70136 12.2038L3.6931 12.1689C3.70732 12.0606 3.71924 11.9529 3.73713 11.8474L3.75273 11.8102C3.73713 11.9418 3.72062 12.073 3.70136 12.2038ZM7.55052 19.692C7.55923 19.6824 7.56703 19.6723 7.57437 19.6617C7.58833 19.6403 7.59915 19.617 7.60648 19.5925C7.60969 19.5805 7.61244 19.5677 7.61427 19.5553C7.76976 19.7411 7.93305 19.9149 8.10551 20.0952C8.09909 20.0924 8.09221 20.0897 8.08533 20.0874C8.07845 20.0846 8.07157 20.0823 8.06469 20.08C8.05781 20.0782 8.05093 20.0759 8.04405 20.0741L8.02295 20.0686C7.87572 19.9892 7.72573 19.7759 7.55052 19.692ZM5.62731 14.6769C5.61906 14.6462 5.60988 14.6154 5.59888 14.5852C5.58833 14.5549 5.5764 14.5255 5.56356 14.4962C5.55026 14.4673 5.53604 14.4384 5.52044 14.4109C5.50485 14.3829 5.48788 14.3554 5.46999 14.3292C5.51907 13.932 5.59016 13.5435 5.68327 13.0972C5.66447 13.0229 5.68327 12.8752 5.64979 12.7276C5.66355 12.7083 5.67731 12.689 5.69061 12.6693C5.70391 12.6496 5.71675 12.6299 5.7296 12.6097C5.74244 12.59 5.75528 12.5698 5.76721 12.5491C5.77959 12.5289 5.79152 12.5083 5.80344 12.4877C5.75207 12.7386 5.71217 12.9917 5.68465 13.2463C5.65667 13.5009 5.64107 13.7564 5.63695 14.0127C5.63328 14.2687 5.64107 14.5246 5.66125 14.7801C5.68098 15.0351 5.71308 15.2892 5.75666 15.542C5.73969 15.4704 5.72409 15.3988 5.70987 15.3268C5.69611 15.2548 5.68373 15.1828 5.67272 15.1103C5.66217 15.0379 5.653 14.9654 5.6452 14.8925C5.6374 14.8195 5.63144 14.7466 5.62731 14.6732" fill="#189AB6"/>
<path d="M22.535 13.2821C22.5552 13.4898 22.5662 13.6981 22.568 13.9072C22.5699 14.1159 22.563 14.3246 22.5474 14.5329C22.5313 14.7406 22.5066 14.9484 22.4731 15.1544C22.4391 15.3603 22.3969 15.5649 22.3456 15.7671C22.1538 16.596 21.8731 17.383 21.6429 18.1408C22.1405 17.3624 22.5387 16.3175 22.763 15.4241C22.9872 14.5306 23.0941 13.793 23.312 13.6394C23.5303 13.4857 23.5918 14.1756 23.4455 15.0883C23.4253 15.2099 23.4033 15.3309 23.3785 15.4511C23.3537 15.5717 23.3267 15.6919 23.2973 15.8112C23.268 15.9309 23.2358 16.0497 23.2019 16.168C23.168 16.2864 23.1313 16.4038 23.0927 16.5203C22.9391 17.0005 22.7593 17.4381 22.613 17.7981C22.7331 17.6266 22.7331 17.6266 22.8529 17.4491C22.8221 17.4885 22.7932 17.5294 22.7666 17.572C22.7396 17.6147 22.7153 17.6582 22.6937 17.7036C22.6717 17.7486 22.652 17.7949 22.635 17.8422C22.618 17.8894 22.6033 17.9376 22.5914 17.9862C22.6304 17.9311 22.668 17.8752 22.7052 17.8192C22.7423 17.7628 22.7786 17.7059 22.8143 17.6486C22.8496 17.5913 22.8845 17.5335 22.9184 17.4752C22.9519 17.417 22.985 17.3583 23.0171 17.2991C23.0427 17.2473 23.0703 17.1964 23.0987 17.1464C23.1271 17.0964 23.157 17.0468 23.1881 16.9982C23.2193 16.9501 23.2519 16.9023 23.2858 16.8556C23.3198 16.8088 23.3551 16.7634 23.3913 16.7184C23.3913 16.8491 23.3913 16.9812 23.384 17.1143C23.7115 16.6427 24.0018 15.8763 24.1839 15.075C24.366 14.2737 24.4499 13.444 24.5568 12.8454C24.527 13.2243 24.4834 13.6022 24.4256 13.9779C24.3678 14.3535 24.2958 14.7273 24.2105 15.0975C24.1247 15.4681 24.0257 15.835 23.9128 16.1983C23.8 16.5616 23.6734 16.9202 23.534 17.2739C23.3831 17.6532 23.2138 18.0247 23.0262 18.3875C22.8382 18.7499 22.6327 19.1031 22.4102 19.4452C21.9644 20.1297 21.4518 20.7684 20.8801 21.3519C20.2844 21.9585 19.6211 22.4949 18.9032 22.9504C18.1852 23.4057 17.4175 23.7773 16.6149 24.0581C16.2159 24.1975 15.8091 24.3126 15.3958 24.403C14.5694 24.5845 13.724 24.6657 12.8781 24.6447C12.4557 24.6346 12.0342 24.5988 11.6159 24.5378C10.721 24.4278 9.84083 24.2195 8.99137 23.9168C8.142 23.6143 7.32847 23.2193 6.56547 22.7389C5.03465 21.775 3.73538 20.4851 2.76034 18.9613C2.637 18.7379 2.52599 18.5079 2.4278 18.2724C2.37826 18.1545 2.3324 18.0357 2.28928 17.9156C2.24663 17.7954 2.20672 17.6743 2.17003 17.5518C2.1237 17.4018 2.08059 17.2509 2.04068 17.0987C2.00124 16.9464 1.965 16.7936 1.93198 16.64C1.89941 16.4859 1.87006 16.3318 1.84437 16.1763C1.81869 16.0212 1.79667 15.8658 1.77787 15.7098C1.68686 15.2075 1.6253 14.7002 1.59348 14.1907C1.56137 13.6816 1.55954 13.1706 1.58752 12.6606C1.61554 12.151 1.67328 11.6434 1.76044 11.1405C1.84804 10.6378 1.96454 10.1402 2.1104 9.65123C2.28566 9.13294 2.49985 8.62865 2.75116 8.14266C3.00217 7.6568 3.28918 7.19041 3.60979 6.74739C3.93086 6.30431 4.2845 5.886 4.66795 5.49567C5.0514 5.1058 5.46328 4.74483 5.90085 4.41642C6.35219 4.07747 6.82553 3.76924 7.31815 3.49404C7.81069 3.21836 8.32128 2.97624 8.84643 2.76934C9.37115 2.56248 9.90963 2.39048 10.4577 2.25563C11.0054 2.12078 11.5618 2.02262 12.1232 1.96254C12.586 1.90612 13.1423 1.99694 13.2873 2.12307C13.3616 2.18407 13.3354 2.25012 13.1529 2.31158C13.0662 2.33452 12.9791 2.35608 12.8914 2.37672C12.8038 2.3969 12.7158 2.4157 12.6277 2.43313C12.5396 2.45056 12.4511 2.46707 12.3621 2.48175C12.2736 2.49643 12.1846 2.50927 12.0957 2.5212C11.2046 2.69006 10.3326 2.94759 9.4927 3.28993C9.07348 3.46101 8.66251 3.65274 8.26209 3.8651C7.86167 4.07701 7.47226 4.30909 7.09523 4.56045C7.14431 4.44027 7.36126 4.28341 7.61078 4.12746C7.66995 4.09352 7.72911 4.05866 7.78736 4.02288C7.84562 3.98757 7.90341 3.95087 7.9612 3.91372C8.01853 3.87657 8.07541 3.8385 8.13183 3.79997C8.18778 3.76098 8.24374 3.72154 8.29878 3.68117C8.15109 3.74264 8.00523 3.80777 7.86075 3.87657C7.71627 3.94537 7.57362 4.01784 7.43327 4.09398C7.29246 4.17012 7.15348 4.24947 7.0168 4.33249C6.88012 4.41551 6.74527 4.50174 6.61317 4.59163C6.48199 4.68108 6.3531 4.77373 6.22697 4.86959C6.10038 4.96545 5.97653 5.06452 5.85545 5.16635C5.7339 5.26863 5.6151 5.37367 5.49906 5.48191C5.38301 5.59016 5.27018 5.70116 5.15964 5.81491C5.31513 5.65437 5.47475 5.49797 5.63941 5.34615C5.80362 5.19479 5.97241 5.04801 6.14532 4.90582C6.31824 4.7641 6.49529 4.62741 6.67601 4.49577C6.85672 4.36413 7.04111 4.23754 7.22916 4.11645C6.73832 4.42895 6.27134 4.77743 5.83205 5.15901C5.39219 5.53998 4.98145 5.95332 4.60328 6.39559C4.40605 6.62676 4.21891 6.86618 4.04232 7.11341C3.86527 7.36063 3.69924 7.61473 3.5442 7.87617C3.38917 8.13716 3.24515 8.40502 3.1126 8.67839C2.98004 8.95176 2.85941 9.23063 2.75071 9.51409C2.58512 9.92551 2.34386 10.2819 2.1448 10.714C2.08563 10.8369 2.03472 10.9644 1.99252 11.0947C1.95033 11.2249 1.9173 11.3579 1.89345 11.4923C1.8696 11.6272 1.85538 11.7634 1.85033 11.9005C1.84529 12.0372 1.84942 12.1739 1.86318 12.3101C2.01471 11.5224 2.24663 10.7522 2.55531 10.0117C2.70988 9.6416 2.8828 9.27971 3.07453 8.92745C3.26579 8.57519 3.47495 8.23302 3.70153 7.90232C4.15387 7.24218 4.6684 6.6269 5.23807 6.06488C5.52245 5.78418 5.82059 5.51723 6.13111 5.26542C6.44117 5.01315 6.76315 4.77602 7.09615 4.55448C7.09523 4.55586 7.09431 4.55723 7.09386 4.55861C7.09294 4.55999 7.09202 4.56136 7.09156 4.56274C7.09064 4.56411 7.09019 4.56549 7.08973 4.56687C7.08884 4.56827 7.08822 4.56983 7.08789 4.57145C7.36952 4.37973 7.66031 4.20177 7.95845 4.03756C8.25658 3.87336 8.56252 3.72337 8.87487 3.58761C9.18723 3.4523 9.506 3.33121 9.82937 3.22526C10.1532 3.1193 10.4816 3.02849 10.8137 2.95326C10.4009 3.07298 9.99357 3.21471 9.63122 3.31286C10.1018 3.17664 10.5798 3.06839 11.0627 2.98858C11.5462 2.90877 12.0337 2.85786 12.5231 2.83584C13.0121 2.81429 13.5024 2.82117 13.9909 2.8574C14.4794 2.89364 14.9651 2.95877 15.4458 3.0528C15.1013 3.0161 14.7555 2.99317 14.4096 2.98399C14.0634 2.97482 13.7166 2.97941 13.3708 2.99821C13.0249 3.01656 12.68 3.04913 12.3369 3.09499C11.9934 3.14132 11.6521 3.2014 11.3136 3.27479C10.9696 3.34956 10.6288 3.43991 10.2926 3.54541C9.95688 3.65136 9.62572 3.77199 9.30052 3.90776C8.97578 4.04398 8.657 4.19443 8.34557 4.35909C8.03459 4.52375 7.73049 4.70263 7.43556 4.89527C7.14064 5.08792 6.85489 5.29524 6.57969 5.51586C6.30479 5.73656 6.04075 5.97045 5.78848 6.2167C5.53575 6.46301 5.29587 6.72124 5.06837 6.99094C4.84133 7.26064 4.62713 7.54089 4.42715 7.83122C4.23175 8.1156 4.05104 8.40915 3.88637 8.71187C3.72125 9.01459 3.57173 9.32557 3.43917 9.64343C3.1729 10.2798 2.97309 10.942 2.8429 11.6194C3.11627 10.8997 3.36808 10.0746 3.72538 9.29943C4.08268 8.52473 4.53264 7.81838 5.04452 7.39824C4.66381 7.88085 4.32398 8.39435 4.02856 8.93341C3.13924 10.5589 2.67493 12.3828 2.67869 14.2356L2.61723 13.6839C2.59476 13.8834 2.58054 14.0843 2.57412 14.2852C2.56815 14.4865 2.57091 14.6879 2.58146 14.8883C2.59201 15.0892 2.61127 15.2897 2.63879 15.4892C2.66631 15.6882 2.70163 15.8864 2.74566 16.0827C2.78969 16.279 2.83785 16.4744 2.89106 16.6689C2.94426 16.8629 3.00206 17.056 3.06444 17.2473C3.12681 17.4385 3.19378 17.6284 3.26487 17.8169C3.33643 18.005 3.41257 18.1917 3.49283 18.3761C3.54696 18.5068 3.60062 18.6366 3.66071 18.7646L3.49283 18.3761C3.35936 18.0486 3.24148 17.7142 3.14012 17.3752C3.03829 17.0363 2.95344 16.6923 2.8851 16.3451C2.81675 15.9979 2.76538 15.6474 2.73098 15.2952C2.69658 14.9429 2.67915 14.5893 2.67869 14.2356C2.75071 14.8686 2.81996 15.5346 2.96766 16.3263C2.96766 15.8823 2.89931 15.2635 2.90161 14.6471C2.88968 14.4453 2.88372 14.2434 2.88372 14.0412C2.88372 13.8393 2.89014 13.6375 2.90252 13.4357C2.91491 13.2339 2.93326 13.033 2.95757 12.8326C2.98187 12.6321 3.01261 12.4321 3.0493 12.2335C3.00297 12.5271 2.9727 12.8234 2.95802 13.1202C2.94335 13.4169 2.94472 13.7146 2.96215 14.0114C2.97958 14.3081 3.01261 14.604 3.06168 14.897C3.11076 15.1906 3.17543 15.4809 3.25524 15.7671C3.05618 14.1311 3.17635 12.4088 3.73501 10.8635C3.6708 11.0777 3.61346 11.2937 3.56347 11.5111C3.51393 11.729 3.47128 11.9482 3.43596 12.1689C3.40064 12.3895 3.37312 12.6115 3.35294 12.8339C3.3323 13.0564 3.31946 13.2793 3.31395 13.5027C3.28551 13.8815 3.27863 14.2618 3.29377 14.6416C3.30891 15.0213 3.3456 15.3997 3.40431 15.7749C3.46302 16.1506 3.54329 16.5226 3.6442 16.8886C3.74556 17.2546 3.86803 17.6151 4.01067 17.9669L3.94141 17.8064C3.98545 17.9142 4.0359 18.021 4.08498 18.1288C4.14552 18.2683 4.20882 18.4068 4.27533 18.543C4.34183 18.6797 4.41155 18.8145 4.48402 18.948C4.62961 19.2148 4.7874 19.4746 4.95691 19.7268C5.03626 19.836 5.11928 19.9424 5.20551 20.0456C5.2922 20.1493 5.38256 20.2497 5.47567 20.347C5.56923 20.4442 5.66647 20.5378 5.76646 20.6286C5.86645 20.7189 5.96965 20.8056 6.07561 20.8891L6.26412 21.0772C6.11643 20.9873 6.02424 20.9575 6.24119 21.2093C6.36365 21.3464 6.49116 21.4785 6.62418 21.6051C6.75719 21.7322 6.89525 21.8532 7.03836 21.9688C7.18146 22.084 7.32915 22.1936 7.48097 22.2968C7.63279 22.4 7.78874 22.4972 7.94882 22.5876C8.60334 22.9784 9.31107 23.3072 10.0509 23.6572C10.1752 23.7095 10.3018 23.7567 10.4298 23.7989C10.5577 23.8411 10.6875 23.8783 10.8187 23.9108C10.9494 23.9429 11.0815 23.9705 11.2146 23.9925C11.3476 24.0145 11.4815 24.0319 11.6159 24.0438C11.6416 24.0558 11.6686 24.0659 11.6966 24.0732C11.7241 24.0805 11.7526 24.0856 11.781 24.0883C11.8094 24.0911 11.8383 24.0911 11.8668 24.0883C11.8957 24.086 11.9237 24.081 11.9516 24.0737C12.0846 24.0842 12.22 24.0916 12.3543 24.0975C12.436 24.1058 12.5172 24.1117 12.5988 24.1163C12.6805 24.1204 12.7626 24.1232 12.8442 24.1237C12.9258 24.1246 13.0075 24.1232 13.0891 24.1204C13.1712 24.1172 13.2529 24.1126 13.3341 24.1062C13.0153 24.1062 12.6841 24.1062 12.3543 24.0975L11.9874 24.0654C12.0163 24.0549 12.0452 24.0461 12.075 24.0388C12.1048 24.0319 12.1346 24.0264 12.1649 24.0228C12.1952 24.0191 12.2255 24.0168 12.2562 24.0168C12.2865 24.0163 12.3167 24.0177 12.3475 24.0209C12.0645 23.9888 11.7828 23.9448 11.5035 23.8884C11.2246 23.8324 10.9476 23.7645 10.6742 23.6852C10.4009 23.6058 10.1307 23.515 9.86514 23.4123C9.59957 23.31 9.33813 23.1967 9.08219 23.0719C8.82121 22.9453 8.56619 22.8082 8.31667 22.661C8.06715 22.5137 7.8236 22.3564 7.58693 22.1894C7.34979 22.0225 7.12 21.8459 6.89754 21.6606C6.67509 21.4748 6.45997 21.2804 6.25311 21.0772C6.37328 21.1506 6.54483 21.2606 6.62143 21.2969C6.43062 21.1698 6.24715 21.0318 6.06506 20.8891C5.93342 20.7538 5.80545 20.6153 5.68069 20.4736C5.55639 20.3318 5.4353 20.1869 5.31834 20.0392C5.0837 19.7436 4.86418 19.4364 4.66061 19.1186C4.6918 19.1604 4.72391 19.2017 4.75739 19.242C4.79087 19.2819 4.82527 19.3214 4.86059 19.3599C4.89637 19.398 4.93306 19.4351 4.97067 19.4714C5.00828 19.5076 5.04681 19.5429 5.08626 19.5769C4.9381 19.3549 4.79867 19.1269 4.66749 18.8944C4.53631 18.6618 4.41384 18.4242 4.30055 18.1825C4.18726 17.9408 4.08314 17.6945 3.98866 17.445C3.89368 17.1953 3.80831 16.9421 3.73272 16.6859C3.65704 16.4281 3.59145 16.1676 3.53595 15.9047C3.48045 15.6419 3.4355 15.3768 3.40018 15.1103C3.36532 14.8443 3.34056 14.5764 3.32634 14.3081C3.31166 14.0398 3.30799 13.771 3.31395 13.5027C3.35202 13.0055 3.42679 12.512 3.53824 12.0262C3.64924 11.5405 3.79602 11.0635 3.97765 10.5993C4.15974 10.1351 4.37532 9.68517 4.62392 9.2531C4.87206 8.82103 5.1523 8.40777 5.46191 8.01744C5.27018 8.22018 5.08947 8.43254 4.92022 8.65454C4.75097 8.87653 4.59318 9.10679 4.44824 9.34529C4.30376 9.5838 4.17121 9.82965 4.05241 10.0819C3.93362 10.3346 3.82812 10.5929 3.73639 10.8566C3.84693 10.4878 3.97948 10.126 4.13268 9.77278C4.28633 9.4196 4.46063 9.07606 4.65465 8.74352C4.84866 8.41098 5.0624 8.09037 5.29449 7.78306C5.52658 7.47621 5.77655 7.18312 6.0435 6.90563C6.30907 6.62859 6.59207 6.36852 6.88975 6.12635C7.18788 5.88463 7.5007 5.66171 7.82635 5.45852C8.15201 5.25579 8.49005 5.07324 8.83864 4.91225C9.18677 4.75125 9.54499 4.61227 9.91055 4.49577C9.44546 4.82693 8.8313 5.25396 8.64783 5.59933C8.7125 5.66401 9.55095 5.28514 9.0987 5.57778C8.29878 6.14148 7.65389 6.6451 7.18009 7.1368C6.70674 7.62849 6.41732 8.09634 6.41135 8.5573C6.42832 8.65775 6.85397 8.38897 7.25072 8.22247C7.64793 8.05551 7.98459 7.96561 7.80479 8.21054C7.67637 8.35824 7.55207 8.5096 7.43235 8.66463C7.31264 8.81966 7.19752 8.97836 7.08743 9.14027C6.97735 9.30218 6.87186 9.4673 6.77141 9.63563C6.67142 9.80351 6.57602 9.97505 6.48566 10.1489C6.44805 10.2094 6.41181 10.2704 6.37604 10.3319C6.34072 10.3938 6.30632 10.4562 6.27329 10.5195C6.20705 10.6454 6.14555 10.7738 6.08891 10.9043C6.08386 10.919 6.07928 10.9341 6.07607 10.9497C6.07286 10.9649 6.07056 10.9805 6.06964 10.996C6.06827 11.0116 6.06827 11.0272 6.06964 11.0428C6.07056 11.0584 6.0724 11.074 6.07561 11.0892C6.00505 11.2884 5.9408 11.4899 5.88297 11.6932C5.82471 11.8964 5.77334 12.1019 5.72839 12.3083C5.63771 12.7215 5.57352 13.14 5.53621 13.5614C5.51236 13.7618 5.49998 13.9609 5.49401 14.1609C5.48805 14.1847 5.48163 14.2086 5.47383 14.232C5.46603 14.2549 5.45778 14.2778 5.44815 14.3008C5.43897 14.3232 5.42888 14.3457 5.41787 14.3677C5.40687 14.3898 5.3954 14.4113 5.38256 14.4324C5.42934 14.5581 5.46879 14.6828 5.50273 14.8062C5.51007 14.9397 5.52062 15.0723 5.53529 15.2048C5.54997 15.3374 5.56832 15.4695 5.58988 15.6011C5.61189 15.7327 5.63712 15.8635 5.66647 15.9937C5.69537 16.1235 5.72793 16.2529 5.76417 16.3813C5.77426 16.4561 5.78527 16.5304 5.79811 16.6047C5.81095 16.679 5.82471 16.7528 5.83985 16.8267C5.85499 16.9001 5.8715 16.9739 5.88939 17.0468C5.90728 17.1202 5.92608 17.1927 5.94626 17.2652C5.97608 17.245 6.00039 17.1812 6.05405 17.2184C6.11872 17.3725 6.18798 17.5243 6.26229 17.6734C6.33705 17.8229 6.41594 17.9697 6.50034 18.1142C6.58427 18.2582 6.6728 18.3995 6.76591 18.538C6.85948 18.676 6.95717 18.8113 7.059 18.9434C7.0911 18.9999 7.12229 19.0567 7.15257 19.1141C7.18284 19.1714 7.21173 19.2292 7.23971 19.2879C7.26815 19.3461 7.29521 19.4053 7.3209 19.4645C7.34704 19.5237 7.37227 19.5837 7.39612 19.6438C7.76535 19.8021 8.2176 20.1919 8.7547 20.5676C8.88496 20.6644 9.01889 20.7561 9.15604 20.8437C9.29272 20.9309 9.43307 21.013 9.57572 21.0905C9.71837 21.168 9.86377 21.24 10.0119 21.307C10.1596 21.3739 10.3101 21.4358 10.4623 21.4923V21.4826C10.5995 21.5363 10.7385 21.5868 10.8788 21.6331C11.0187 21.6794 11.16 21.7221 11.3026 21.7606C11.5872 21.8387 11.8758 21.9013 12.1672 21.9482C12.1901 21.9587 12.2131 21.9697 12.2356 21.9807C12.258 21.9922 12.2805 22.0037 12.3025 22.0156C12.325 22.0275 12.347 22.0399 12.3686 22.0523C12.3906 22.0647 12.4121 22.0775 12.4337 22.0908C12.5883 22.0551 12.7428 22.0647 12.8199 22.0418C13.2992 22.1138 13.7033 22.1702 14.123 22.2C14.1505 22.1803 14.1785 22.1619 14.2069 22.1445C14.2645 22.1101 14.325 22.0808 14.3876 22.0569C14.4188 22.045 14.4509 22.034 14.483 22.0248C14.6356 22.0081 14.7874 21.985 14.938 21.9555C15.0133 21.9408 15.0885 21.9248 15.1632 21.9069C15.2375 21.889 15.3119 21.8698 15.3857 21.8487C15.4724 21.8289 15.5582 21.8083 15.6439 21.7867C15.7297 21.7647 15.8155 21.7413 15.9003 21.717C15.9856 21.6927 16.07 21.667 16.1544 21.64C16.2388 21.6134 16.3228 21.5854 16.4062 21.556C16.6915 21.456 16.9718 21.3414 17.2451 21.2129C17.7927 20.9553 18.3126 20.6426 18.7968 20.2795C19.0386 20.0979 19.2711 19.9043 19.4931 19.6993C19.5059 19.7002 19.5188 19.7016 19.5312 19.7044C19.544 19.7071 19.5564 19.7108 19.5688 19.7154C19.5807 19.72 19.5926 19.725 19.6041 19.731C19.6156 19.7374 19.6266 19.7443 19.6367 19.7521C19.7183 19.5681 19.932 19.4003 20.0086 19.242C20.0013 19.2783 20.0086 19.3067 20.0288 19.3191C20.0536 19.2741 20.0793 19.2301 20.1068 19.187C20.1343 19.1443 20.1628 19.1021 20.193 19.0609C20.2228 19.0196 20.2545 18.9792 20.2871 18.9402C20.3196 18.9008 20.3536 18.8627 20.3889 18.826C20.4233 18.7925 20.4572 18.759 20.4907 18.7242C20.5242 18.6898 20.5568 18.6545 20.5884 18.6187C20.62 18.5825 20.6512 18.5462 20.6815 18.5086C20.7118 18.4715 20.7411 18.4339 20.77 18.3953C20.7815 18.3692 20.792 18.3426 20.8021 18.316C20.8127 18.2894 20.8223 18.2628 20.8315 18.2357C20.8402 18.2086 20.8489 18.1816 20.8567 18.1541C20.865 18.1265 20.8723 18.099 20.8792 18.0715C20.9113 18.0247 20.9416 17.9766 20.9714 17.9298C21.4392 17.5183 21.6011 16.9331 21.7809 16.3116C21.8392 16.157 21.8933 16.0006 21.9433 15.8433C21.9928 15.6855 22.0383 15.5263 22.0786 15.3658C22.1194 15.2057 22.1557 15.0443 22.1869 14.8819C22.2185 14.7195 22.2456 14.5563 22.2676 14.3925C22.3291 13.8696 22.4657 13.6623 22.5364 13.2793" fill="#189AB6"/>
<path d="M9.23084 21.046C9.34872 21.1299 9.46843 21.2106 9.59044 21.2882C9.71245 21.3657 9.83629 21.44 9.96196 21.5115C10.0876 21.5826 10.2151 21.6505 10.3445 21.7152C10.4738 21.7799 10.6046 21.8409 10.7367 21.8991C10.1519 21.7001 9.59778 21.5235 9.23084 21.0497M8.19471 8.03396C8.25342 8.01516 8.31213 7.99498 8.36992 7.97342C8.42817 7.95232 8.48596 7.92985 8.54284 7.90599C8.60017 7.8826 8.65705 7.85829 8.71346 7.83261C8.76942 7.80692 8.82538 7.77986 8.88042 7.75234C8.60246 7.94957 8.33781 8.16514 8.08829 8.39769C7.83878 8.63024 7.60531 8.87929 7.38928 9.14349C7.17325 9.40722 6.9751 9.68564 6.79668 9.97597C6.6178 10.2668 6.45864 10.5686 6.32058 10.8805H6.30957C6.37057 10.7383 6.43616 10.5979 6.5068 10.4603C6.57743 10.3223 6.65266 10.187 6.73292 10.0549C6.81319 9.92231 6.89804 9.79296 6.98749 9.66637C7.07693 9.54024 7.17095 9.41686 7.26911 9.29714C7.64889 8.8004 8.03738 8.38668 8.19929 8.03672M8.01858 20.0686L8.03922 20.0741C8.0461 20.0759 8.05344 20.0777 8.06032 20.08C8.0672 20.0823 8.07408 20.0842 8.08096 20.0864C8.08738 20.0887 8.09426 20.0915 8.10114 20.0938C8.0938 20.0924 8.086 20.091 8.07866 20.0892C8.07132 20.0874 8.06398 20.0851 8.05665 20.0828C8.04224 20.0777 8.02828 20.0714 8.01491 20.064M9.74639 4.85905L9.90325 4.80171C9.70909 4.88712 9.51744 4.97813 9.32854 5.07462C9.23405 5.12278 9.14048 5.17232 9.04737 5.22323C8.95426 5.27414 8.86207 5.32597 8.77034 5.37964C8.84694 5.32781 8.92445 5.27827 9.0038 5.23057C9.08269 5.18287 9.16342 5.13746 9.2446 5.09389C9.32625 5.05031 9.40881 5.00903 9.49228 4.97005C9.57622 4.9306 9.66062 4.89391 9.74639 4.85905ZM14.2216 4.3302C14.4358 4.34488 14.65 4.36644 14.8629 4.39533C15.0757 4.42423 15.2876 4.46046 15.4981 4.50404C15.7086 4.54715 15.9178 4.59761 16.1247 4.65494C16.332 4.71273 16.537 4.77695 16.7397 4.8485C16.9886 4.94837 17.2319 5.06152 17.4686 5.18746C17.7052 5.31313 17.935 5.45119 18.1575 5.60163C18.3795 5.75162 18.5937 5.91307 18.7987 6.08599C19.0037 6.25891 19.1996 6.44192 19.3849 6.63548C19.0239 6.32129 18.64 6.03462 18.2364 5.77731C17.8332 5.51999 17.4108 5.29249 16.9741 5.09756C16.537 4.90262 16.0861 4.74025 15.6252 4.61182C15.1637 4.4834 14.6941 4.38937 14.2193 4.3302M10.5188 6.76253C10.5885 6.74739 10.6587 6.73317 10.7293 6.71987C10.7995 6.70703 10.8701 6.6951 10.9408 6.68456C11.0826 6.66369 11.225 6.64732 11.3678 6.63548C11.299 6.65153 11.2311 6.6685 11.1632 6.68639C11.0949 6.70474 11.0275 6.72354 10.96 6.74372C10.8926 6.76345 10.8256 6.78455 10.7587 6.80656C10.6922 6.82858 10.6257 6.85151 10.5596 6.87536C10.5968 6.82399 10.5367 6.7951 10.5188 6.76391M6.81915 6.82766L7.00858 6.65337C6.86502 6.82399 6.72558 6.99553 6.59486 7.17396C6.63477 7.10103 6.74485 6.9437 6.81915 6.82766ZM13.4974 6.47357C13.2933 6.4566 13.0883 6.44972 12.8846 6.45339C13.0043 6.42449 13.1245 6.39192 13.2442 6.35019C13.2635 6.36349 13.2832 6.37587 13.3034 6.38734C13.3236 6.39926 13.3442 6.41027 13.3653 6.4199C13.3864 6.42999 13.408 6.43917 13.4295 6.44742C13.4515 6.45614 13.4735 6.46348 13.496 6.4699M16.5622 7.179C16.6232 7.20836 16.6838 7.23909 16.7439 7.27119C16.8035 7.3033 16.8627 7.33633 16.9214 7.37073C16.9796 7.40513 17.0374 7.44044 17.0947 7.47714C17.1516 7.51383 17.208 7.55144 17.264 7.59043C17.1929 7.55007 17.1214 7.51108 17.0493 7.47301C16.9773 7.43494 16.9044 7.39825 16.8315 7.36247C16.7581 7.32669 16.6842 7.29184 16.6104 7.25835C16.5361 7.22487 16.4613 7.1923 16.3861 7.16111C16.4677 7.16111 16.5361 7.16111 16.5622 7.179Z" fill="#189AB6"/>
</svg>
