<svg width="51" height="23" viewBox="0 0 51 23" fill="none" xmlns="http://www.w3.org/2000/svg">
<g clip-path="url(#clip0_244_765)">
<path d="M12.2398 8.04468C17.0281 8.04468 20.9098 6.56162 20.9098 4.73218C20.9098 2.90273 17.0281 1.41968 12.2398 1.41968C7.45152 1.41968 3.56982 2.90273 3.56982 4.73218C3.56982 6.56162 7.45152 8.04468 12.2398 8.04468Z" stroke="#DF6C20" stroke-width="2.08373"/>
<path d="M3.56982 4.73218V18.9286C3.60989 19.3643 3.87383 19.7956 4.34655 20.1981C4.81928 20.6006 5.49154 20.9663 6.32496 21.2744C7.15838 21.5824 8.13663 21.8268 9.20385 21.9935C10.2711 22.1602 11.4064 22.246 12.5449 22.246C13.6835 22.246 14.803 22.1602 15.8396 21.9935C16.8761 21.8268 17.8094 21.5824 18.5862 21.2744C19.3629 20.9663 19.9679 20.6006 20.3666 20.1981C20.7653 19.7956 20.9499 19.3643 20.9098 18.9286V4.73218M3.56982 9.46432C3.60989 9.89997 3.87383 10.3314 4.34655 10.7339C4.81928 11.1363 5.49154 11.5021 6.32496 11.8101C7.15838 12.1182 8.13663 12.3625 9.20385 12.5292C10.2711 12.696 11.4064 12.7818 12.5449 12.7818C13.6835 12.7818 14.803 12.696 15.8396 12.5292C16.8761 12.3625 17.8094 12.1182 18.5862 11.8101C19.3629 11.5021 19.9679 11.1363 20.3666 10.7339C20.7653 10.3314 20.9499 9.89997 20.9098 9.46432M3.56982 14.1965C3.60989 14.6321 3.87383 15.0635 4.34655 15.466C4.81928 15.8685 5.49154 16.2342 6.32496 16.5422C7.15838 16.8503 8.13663 17.0947 9.20385 17.2614C10.2711 17.4281 11.4064 17.5139 12.5449 17.5139C13.6835 17.5139 14.803 17.4281 15.8396 17.2614C16.8761 17.0947 17.8094 16.8503 18.5862 16.5422C19.3629 16.2342 19.9679 15.8685 20.3666 15.466C20.7653 15.0635 20.9499 14.6321 20.9098 14.1965" stroke="#DF6C20" stroke-width="2.08373"/>
<path d="M30.5998 9.46434C30.5998 9.15362 30.5338 8.84595 30.4057 8.55888C30.2775 8.27182 30.0897 8.01098 29.8529 7.79127C29.6161 7.57156 29.335 7.39728 29.0256 7.27837C28.7162 7.15947 28.3846 7.09827 28.0498 7.09827C27.7149 7.09827 27.3833 7.15947 27.0739 7.27837C26.7646 7.39728 26.4834 7.57156 26.2467 7.79127C26.0099 8.01098 25.822 8.27182 25.6939 8.55888C25.5657 8.84595 25.4998 9.15362 25.4998 9.46434C25.4864 9.83373 25.5479 10.2009 25.6792 10.5365C25.8105 10.8721 26.0081 11.1667 26.256 11.3967C26.5039 11.6267 26.7953 11.7858 27.1068 11.8611C27.4183 11.9364 27.7412 11.9259 28.0498 11.8304C28.319 11.828 28.5857 11.8874 28.8342 12.0052C29.0828 12.123 29.3084 12.2969 29.498 12.5169C29.6877 12.7368 29.8376 12.9985 29.9392 13.2868C30.0407 13.575 30.0919 13.8842 30.0898 14.1965C30.0221 14.824 29.6886 15.4009 29.1626 15.8002C28.6365 16.1996 27.9611 16.3887 27.2848 16.3259C26.6085 16.2632 25.9867 15.9537 25.5563 15.4656C25.1259 14.9775 24.9221 14.3508 24.9898 13.7233" stroke="#DF6C20" stroke-width="2.08373"/>
<path d="M38.2498 16.5625C36.9842 16.7556 35.6866 16.4991 34.6157 15.8442C33.5448 15.1893 32.7791 14.184 32.4713 13.0287C32.1635 11.8734 32.3361 10.6529 32.9548 9.61045C33.5735 8.56798 34.5927 7.78006 35.8095 7.40373C37.0263 7.02739 38.3512 7.09027 39.5202 7.57983C40.6893 8.06938 41.6166 8.94968 42.1174 10.0453C42.6182 11.1409 42.6558 12.3714 42.2225 13.4915C41.7893 14.6116 40.9171 15.5391 39.7798 16.0893M38.2498 14.1964L41.3098 17.9821" stroke="#DF6C20" stroke-width="2.08373"/>
<path d="M44.8799 6.625V14.1964C44.8799 14.8239 45.1485 15.4258 45.6268 15.8695C46.105 16.3132 46.7536 16.5625 47.4299 16.5625H49.4699" stroke="#DF6C20" stroke-width="2.08373"/>
</g>
<defs>
<clipPath id="clip0_244_765">
<rect width="51" height="22.7143" fill="white"/>
</clipPath>
</defs>
</svg>
