<svg width="51" height="18" viewBox="0 0 51 18" fill="none" xmlns="http://www.w3.org/2000/svg">
<path d="M3.74274 12.389C3.4406 12.3408 2.66657 12.1472 2.02582 11.972L0.858249 11.6451L1.45712 10.5446L2.05554 9.44416L1.57194 8.84529C0.888418 7.99877 0.00587002 6.14271 1.63832e-05 5.54474C-0.00628753 4.14753 1.80744 2.12217 4.03272 1.03384C5.56232 0.284127 6.77762 0.266116 8.30137 0.979809L9.45003 1.51744L9.78279 1.04015C9.9638 0.779885 10.1151 0.435421 10.1151 0.284127C10.1151 0.132833 10.2664 0 10.4479 0C10.6293 0 10.7802 0.0481802 10.7802 0.102664C10.7802 0.235947 9.44418 3.60944 9.35953 3.69409C9.32305 3.73012 8.96013 3.56126 8.54902 3.31946C7.3882 2.63594 5.9311 2.18251 4.80045 2.15234C2.17036 2.0857 1.2572 4.65589 3.1137 6.90459L3.76661 7.69708L5.55016 6.25168C7.55166 4.63743 7.7813 4.60096 9.34152 5.67757C11.0945 6.88658 11.1246 8.72462 9.43157 10.6473C7.93214 12.3584 6.39083 12.8303 3.74229 12.3885L3.74274 12.389ZM8.22933 10.5451C9.09972 9.86202 9.03938 8.59809 8.09604 7.59441C6.91091 6.33678 6.54258 6.39127 4.45643 8.1325C2.38245 9.86157 2.37029 9.79538 4.84953 10.5874C6.48765 11.1192 7.51563 11.1012 8.22933 10.5451ZM25.0743 17.2079C24.4813 16.9904 22.885 16.3312 21.5189 15.7386C17.8306 14.1302 17.3106 14.1001 16.2101 15.4365C15.9561 15.7449 15.6783 15.9381 15.5995 15.8597C15.3636 15.6238 16.0651 14.4931 16.9116 13.7497C17.6005 13.145 17.8302 13.0604 18.5925 13.145C19.0761 13.199 20.6845 13.7619 22.1655 14.3905C25.5093 15.8111 26.4886 16.1137 27.7647 16.1137C29.3182 16.1137 30.1165 15.0254 29.6266 13.5804C29.5059 13.2175 29.542 13.0964 29.7842 13.0964C30.2372 13.0964 30.4673 14.7894 30.1408 15.7629C30.0012 16.1799 29.5964 16.7725 29.2398 17.0687C28.7076 17.5163 28.369 17.6131 27.3712 17.6068C26.7002 17.601 25.6669 17.4258 25.0743 17.2079ZM16.4582 12.0387C15.0857 11.3975 13.8461 10.1763 13.1324 8.74938C11.9901 6.46376 12.3404 5.0008 14.5053 3.02363C16.3249 1.36074 17.8126 0.713694 19.8141 0.713694C21.2586 0.713694 21.5671 0.792492 22.5041 1.3666C24.7231 2.7395 25.2733 5.35743 23.9373 8.21085C22.3713 11.5609 19.064 13.2481 16.4582 12.0387ZM21.0533 10.4483C22.0808 9.94037 22.7887 7.59441 22.4982 5.64741C22.1353 3.24742 18.8888 1.6084 16.5064 2.62468C14.0577 3.67068 14.0213 6.45791 16.428 8.96687C18.1085 10.7266 19.5539 11.1858 21.0533 10.4483ZM25.715 12.4799C25.715 12.3768 26.0955 12.1958 26.5674 12.0805L27.4198 11.8689L27.6013 8.79801C27.8007 5.39975 27.6553 2.05598 27.287 1.60885C27.1537 1.45125 26.7489 1.25763 26.3801 1.17343C24.8807 0.840673 25.878 0.61103 28.7864 0.61103C31.6947 0.61103 32.6196 0.822662 31.235 1.17343C30.044 1.46971 30.0377 1.48772 30.0377 6.33678C30.0377 9.0272 30.1345 11.053 30.2737 11.3128C30.4673 11.6757 30.7573 11.7541 31.8699 11.7541C34.1672 11.7541 34.9593 11.2102 35.5825 9.19651C35.7698 8.59223 36.2534 8.7012 36.0841 9.31178C36.0053 9.59546 35.8787 10.46 35.7999 11.2462L35.655 12.6673H30.6848C27.9516 12.6673 25.715 12.5826 25.715 12.4799Z" fill="#EEEEEE"/>
<path d="M37.0029 12.3345C37.0029 12.1535 37.1785 11.972 37.4685 11.8329C37.8558 11.6514 38.1093 11.2705 39.0283 9.47474C40.4854 6.63348 42.7832 1.7538 43.0007 1.0221C43.17 0.466003 43.2064 0.435836 43.835 0.363341C44.1979 0.321014 44.5001 0.296698 44.5059 0.308856C44.5122 0.321013 45.0143 1.42105 45.6249 2.75748C46.2296 4.09345 47.4449 6.63303 48.3275 8.39858C49.803 11.3673 49.9665 11.6334 50.4618 11.8747C50.7644 12.0202 50.9999 12.244 50.9999 12.3768C50.9999 12.5884 50.7401 12.6127 48.5031 12.6127C46.2598 12.6127 46.0058 12.5884 46.0058 12.3709C46.0058 12.226 46.1994 12.0688 46.5074 11.9657C46.792 11.8752 47.0095 11.7059 47.0095 11.5789C47.0095 11.4578 46.7132 10.6599 46.3503 9.8075L45.6915 8.25359H40.697L40.2197 9.30544C39.3246 11.2768 39.3066 11.7424 40.1409 11.9657C40.5583 12.0805 40.6732 12.1715 40.6245 12.3588C40.5705 12.5767 40.3526 12.6064 38.7806 12.6064C37.0934 12.619 37.0029 12.6064 37.0029 12.3345ZM45.1895 7.44308C45.2741 7.29224 43.3937 3.18659 43.2186 3.14427C43.0916 3.10824 41.1446 7.12294 41.1446 7.42507C41.1446 7.57637 45.099 7.59438 45.1895 7.44308Z" fill="#CA2727"/>
</svg>
