<svg width="50" height="30" viewBox="0 0 50 30" fill="none" xmlns="http://www.w3.org/2000/svg">
<path d="M25 0C18.3331 0 14.1666 3.3325 12.4997 9.99687C15 6.66437 17.9167 5.41516 21.2498 6.24797C23.1518 6.72315 24.5111 8.10304 26.016 9.62986C28.4669 12.117 31.3036 14.9956 37.5003 14.9956C44.1666 14.9956 48.3337 11.6631 50 4.99812C47.5003 8.33062 44.5836 9.58047 41.2498 8.74765C39.3485 8.27248 37.9892 6.89258 36.4843 5.36576C34.0334 2.87858 31.1961 0 25 0ZM12.4997 14.9956C5.83344 14.9956 1.66625 18.3281 0 24.9931C2.49969 21.6606 5.41641 20.4108 8.75016 21.2442C10.6515 21.72 12.0108 23.0993 13.5157 24.6255C15.9666 27.1127 18.8039 29.9919 25 29.9919C31.6669 29.9919 35.8334 26.6594 37.5003 19.9944C35 23.3269 32.0833 24.5767 28.7502 23.7433C26.8482 23.2687 25.4889 21.8882 23.984 20.362C21.5331 17.8748 18.6964 14.9956 12.4997 14.9956Z" fill="#06B6D4"/>
</svg>
