<svg width="150" height="25" viewBox="0 0 150 25" fill="none" xmlns="http://www.w3.org/2000/svg">
<path fill-rule="evenodd" clip-rule="evenodd" d="M17.7525 23.4201C15.7669 22.1762 14.3034 17.8836 14.3034 12.7822C14.3034 12.595 14.3042 12.4102 14.3089 12.2262L14.3105 12.2286C8.7866 11.3606 4.7957 8.98246 4.69303 6.16917L4.67723 6.20235C3.32587 7.88226 2.55423 9.8244 2.55423 11.8937C2.55423 17.9831 9.23837 22.9723 17.7169 23.4138L17.7525 23.4201ZM0 12.3376C0 5.52469 8.47936 0 18.9388 0C29.399 0 37.8783 5.52469 37.8783 12.3376C37.8783 19.1512 29.399 24.6759 18.9388 24.6759C8.47936 24.6759 0 19.1512 0 12.3376ZM18.9396 1.78022C20.9591 1.78022 22.6769 4.84388 23.3135 9.11831L23.3151 9.1112C27.2444 8.49989 29.9945 7.0893 29.9945 5.44729C29.9945 3.24452 25.0448 1.46035 18.9396 1.46035C12.8351 1.46035 7.88543 3.24452 7.88543 5.44729C7.88543 7.0893 10.6355 8.4991 14.564 9.1112L14.5664 9.11831C15.203 4.84388 16.9208 1.78022 18.9396 1.78022ZM20.1622 23.413C28.6407 22.9715 35.3257 17.9823 35.3257 11.8929C35.3257 9.82361 34.5532 7.88147 33.2027 6.20156L33.1861 6.16839C33.0842 8.98168 29.0933 11.3598 23.5686 12.2278L23.571 12.2254C23.5749 12.4094 23.5765 12.5943 23.5765 12.7814C23.5765 17.8828 22.1122 22.1754 20.1274 23.4193L20.1622 23.413ZM18.9396 9.43503C19.8161 9.43607 20.6924 9.39865 21.5657 9.32287L21.5649 9.32366C21.1463 6.58461 20.129 4.65037 18.9403 4.65037C17.7517 4.65037 16.7352 6.58461 16.3158 9.32366L16.315 9.32287C17.1878 9.39827 18.0635 9.43569 18.9396 9.43503ZM18.9396 19.5809C20.4599 19.5809 21.7007 16.4169 21.7663 12.4497L21.7742 12.4521C19.8887 12.6258 17.9912 12.6258 16.1057 12.4521L16.1136 12.4497C16.1792 16.4169 17.4192 19.5809 18.9396 19.5809ZM96.6423 12.3376C96.6423 7.13037 100.865 2.90807 106.072 2.90807C111.281 2.90807 115.503 7.13037 115.503 12.3376C115.503 17.5463 111.281 21.7671 106.072 21.7671C100.865 21.7671 96.6423 17.5463 96.6423 12.3376ZM106.072 18.3093C108.98 18.3093 111.338 15.635 111.338 12.3368C111.338 9.03933 108.98 6.36505 106.072 6.36505C103.164 6.36505 100.807 9.03933 100.807 12.3368C100.807 15.6358 103.164 18.3093 106.072 18.3093ZM126.203 6.83656V21.339H122.229V6.83656H122.243H116.687V3.55808H131.745V6.83656H126.203ZM136.552 17.3386L136.549 17.3426L135.024 21.3398H130.383L137.719 3.55808H142.665L150 21.3398H145.36L143.836 17.3426L143.831 17.3386H136.552ZM140.192 14.3374H142.693L142.691 14.3381L140.209 7.83013H140.175L137.692 14.3381L137.691 14.3374H140.192ZM52.962 6.83656V21.339H48.9885V6.83656H49.0027H43.4457V3.55808H58.5049V6.83656H52.962ZM59.5214 12.3376C59.5214 7.13037 63.7437 2.90807 68.9525 2.90807C74.1604 2.90807 78.3827 7.13037 78.3827 12.3376C78.3827 17.5463 74.1604 21.7671 68.9525 21.7671C63.7437 21.7671 59.5214 17.5463 59.5214 12.3376ZM68.9525 18.3093C71.8597 18.3093 74.2181 15.635 74.2181 12.3368C74.2181 9.03933 71.8597 6.36505 68.9525 6.36505C66.0444 6.36505 63.6868 9.03933 63.6868 12.3368C63.6868 15.6358 66.0444 18.3093 68.9525 18.3093ZM87.5113 21.339H89.5261V14.5877L96.4583 3.55808H91.8181L87.5113 11.032L83.2061 3.55808H78.566L85.4973 14.5877V21.339H87.5113Z" fill="#202124"/>
</svg>
