<svg width="150" height="34" viewBox="0 0 150 34" fill="none" xmlns="http://www.w3.org/2000/svg">
<mask id="mask0_170_1032" style="mask-type:luminance" maskUnits="userSpaceOnUse" x="0" y="0" width="150" height="34">
<path d="M150 0H0V33.6134H150V0Z" fill="white"/>
</mask>
<g mask="url(#mask0_170_1032)">
<path d="M25.907 12.7714C22.9565 12.7714 21.3879 13.8539 21.3879 16.9911V27.0732H15.2261V6.9832H21.1628V10.7933C22.0968 8.44165 23.778 6.94728 26.6517 6.83472C26.9511 6.83472 27.2864 6.83472 27.5857 6.87064V12.884C26.9128 12.8098 26.4649 12.7714 25.9046 12.7714" fill="#1A1A1A"/>
<path d="M30.0142 27.0756H36.2143V6.98324H30.0142V27.0756ZM30.0142 4.93088H36.176V0H30.0142V4.93088Z" fill="#1A1A1A"/>
<path d="M49.405 22.7794C51.8693 22.7794 53.8856 20.7629 53.8856 17.0294C53.8856 13.2959 51.8693 11.3154 49.405 11.3154C46.9407 11.3154 44.96 12.884 44.96 17.0294C44.96 21.1748 46.9764 22.7794 49.405 22.7794ZM51.4214 6.5354C56.5751 6.5354 60.2726 10.4557 60.2726 17.0294C60.2726 23.6031 56.5751 27.5617 51.4214 27.5617C49.218 27.5617 46.5672 26.5895 45.2596 24.3886V33.6134H39.0977V6.98322H45.2596V9.70851C46.5672 7.50527 49.218 6.5354 51.4214 6.5354Z" fill="#1A1A1A"/>
<path d="M68.3383 0H62.1765V27.0756H68.3383V0Z" fill="#1A1A1A"/>
<path d="M85.0373 14.8622C84.9629 12.3596 83.1335 11.0904 80.8175 11.0904C78.6528 11.0904 76.6722 12.2111 76.3369 14.8622H85.0373ZM81.0789 27.5594C74.5432 27.5594 70.0625 23.5625 70.0625 16.9169C70.0625 10.2713 74.9549 6.38696 80.8175 6.38696C87.4654 6.38696 91.5726 11.4663 91.1633 18.5981H76.2629C76.4495 21.4359 78.6528 22.7818 80.8944 22.7818C83.136 22.7818 84.702 21.9604 85.4133 20.7654H91.089C89.2978 25.507 85.1138 27.5618 81.081 27.5618" fill="#1A1A1A"/>
<path d="M122.131 14.8622C122.056 12.3596 120.227 11.0904 117.911 11.0904C115.746 11.0904 113.766 12.2111 113.43 14.8622H122.131ZM118.172 27.5594C111.637 27.5594 107.156 23.5625 107.156 16.9169C107.156 10.2713 112.048 6.38696 117.911 6.38696C124.559 6.38696 128.666 11.4663 128.254 18.5981H113.354C113.54 21.4359 115.744 22.7818 117.985 22.7818C120.227 22.7818 121.793 21.9604 122.504 20.7654H128.18C126.386 25.507 122.205 27.5618 118.172 27.5618" fill="#1A1A1A"/>
<path d="M142.858 6.5354C148.011 6.5354 149.616 9.56002 149.616 15.013V27.0756H143.454V16.5457C143.454 13.6695 143.342 11.3178 140.355 11.3178C137.743 11.3178 136.622 13.0732 136.622 16.7708V27.078H130.46V6.98322H136.622V9.63427C137.517 8.1399 139.721 6.5354 142.858 6.5354Z" fill="#1A1A1A"/>
<path d="M99.5358 21.9077L99.5286 11.3514H105.664V6.98326H99.5286V1.49438H93.3665V16.0236C93.3665 18.5382 93.5438 21.9077 98.3669 21.9077C98.3669 22.7818 99.3488 27.4732 106.361 27.0469V21.9077H99.5358Z" fill="#1A1A1A"/>
<path d="M6.16903 21.9077L6.16185 11.3514H12.2974V6.98326H6.16185V1.49438H0V16.0236C0 18.5382 0.177216 21.9077 5.00038 21.9077C5.00038 22.7818 5.98223 27.4732 12.9942 27.0469V21.9077H6.16903Z" fill="#1A1A1A"/>
</g>
</svg>
