<svg width="150" height="58" viewBox="0 0 150 58" fill="none" xmlns="http://www.w3.org/2000/svg">
<g clip-path="url(#clip0_151_285)">
<path d="M35.2525 40.1976C27.4815 45.2395 19.4105 44.9637 19.4105 44.9637C19.2557 44.0376 19.211 43.0963 19.2775 42.1597C19.3549 40.3839 20.3347 40.8871 21.0484 39.4815C21.4033 38.826 21.6949 38.1382 21.9194 37.4274C21.9363 37.3766 21.4525 28.8726 21.3315 25.2629C21.2662 23.3274 20.8984 20.0734 20.4702 16.9185C20.2283 15.0484 19.65 13.5653 19.3863 11.7919C19.0065 9.22742 18.5662 6.33629 18.5662 6.33629C18.2492 7.15161 17.7968 10.2073 17.342 13.6548C17.1242 15.3073 16.9041 17.0419 16.7008 18.6823C16.2702 22.1371 15.1912 31.3839 15.0266 31.8847C14.7847 32.6444 14.7557 31.6839 14.7557 31.6839C14.7557 31.6839 15.3944 21.9871 15.5855 17.7315C15.6799 15.6532 15.8275 13.3766 16.096 11.175C16.2726 9.61013 16.531 8.05558 16.8702 6.51774C16.8702 6.51774 17.9831 3.1621 18.3363 3.09677C18.6896 3.03145 19.9718 5.21129 20.4049 7.15161C21.3726 11.5355 21.9484 12.0968 22.696 16.6935C23.4073 21.0677 24.0557 24.7282 24.1476 25.3258C24.4645 27.5032 24.3073 34.2774 23.7605 36.9653C23.6299 37.6911 23.5912 37.9718 23.1121 38.4581C21.9847 39.5976 21.1766 40.9548 21.1766 41.8452C21.1766 42.7355 21.0266 42.7161 21.2395 43.2315C21.2395 43.2315 22.725 45.4548 31.2605 40.3645C31.2605 40.3645 33.9218 38.9685 33.9218 35.8815V4.67177C33.9218 4.67177 25.4541 1.80968 18.9363 1.80968C12.4186 1.80968 4.25084 4.66694 4.25084 4.66694V35.7315C4.25084 37.6427 4.53149 41.2306 7.26052 42.4524C7.26052 42.4524 -0.00964355 39.9653 -0.00964355 35.6927V2.04194C-0.00964355 2.04194 11.1 0 18.9508 0C26.8016 0 38.1 2.04194 38.1 2.04194V35.7484C38.1 38.6516 35.2525 40.1976 35.2525 40.1976Z" fill="#202124"/>
<path d="M140.731 14.1217C139.957 14.5524 138.914 14.7685 137.603 14.7701C136.285 14.7701 135.256 14.3709 134.526 13.5604C133.795 12.75 133.427 11.6443 133.427 10.2121C133.427 8.7798 133.79 7.63303 134.516 6.77416C134.865 6.36927 135.301 6.04827 135.791 5.83507C136.281 5.62186 136.813 5.52192 137.347 5.54271C137.802 5.53379 138.256 5.59167 138.694 5.71448V2.08545H140.719L140.731 14.1217ZM138.706 13.2677V6.81045C138.414 6.72958 138.112 6.69048 137.809 6.69432C136.231 6.69432 135.444 7.83142 135.445 10.1056C135.445 12.3492 136.183 13.4709 137.659 13.4709C138.02 13.4981 138.381 13.4288 138.706 13.2701V13.2677Z" fill="#202124"/>
<path d="M150 10.0572L144.503 10.8556C144.664 12.5185 145.481 13.3499 146.952 13.3499C147.733 13.3698 148.508 13.204 149.214 12.866L149.698 14.1459C148.931 14.5669 147.944 14.7773 146.736 14.7773C145.446 14.7773 144.431 14.3741 143.69 13.5677C142.95 12.7612 142.577 11.6072 142.573 10.1056C142.573 8.65395 142.914 7.51927 143.596 6.70153C144.278 5.88379 145.213 5.47653 146.4 5.47976C147.6 5.47976 148.51 5.87088 149.131 6.65314C149.752 7.4354 150.042 8.57008 150 10.0572ZM148.101 9.26121C148.101 7.56443 147.51 6.71605 146.33 6.71605C146.046 6.70478 145.765 6.76812 145.513 6.89974C145.262 7.03135 145.05 7.22662 144.898 7.46605C144.532 8.00798 144.358 8.79669 144.382 9.82734L148.101 9.26121Z" fill="#202124"/>
<path d="M47.8766 38.5427H44.6927V18.854H47.879L47.8766 38.5427Z" fill="#202124"/>
<path d="M62.5693 31.5218C62.5693 33.6944 62.0903 35.4242 61.1322 36.7113C60.087 38.1016 58.6169 38.7968 56.7217 38.7968C54.8266 38.7968 53.3564 38.1016 52.3112 36.7113C51.3532 35.421 50.8741 33.6911 50.8741 31.5218C50.8741 29.3524 51.3532 27.6129 52.3112 26.3032C53.3532 24.9129 54.8233 24.2169 56.7217 24.2153C58.6201 24.2137 60.0903 24.9097 61.1322 26.3032C62.0887 27.5903 62.5677 29.3298 62.5693 31.5218ZM59.4096 31.4952C59.4096 27.9823 58.5137 26.225 56.7217 26.2234C54.9298 26.2218 54.0346 27.979 54.0362 31.4952C54.0362 34.921 54.9314 36.6347 56.7217 36.6363C58.512 36.6379 59.408 34.925 59.4096 31.4976V31.4952Z" fill="#202124"/>
<path d="M73.4855 34.4952C73.4893 35.0705 73.3669 35.6397 73.1269 36.1626C72.887 36.6855 72.5354 37.1495 72.0968 37.5218C71.1742 38.3573 69.9645 38.7742 68.4677 38.7726C66.8661 38.7726 65.5702 38.4347 64.5798 37.7589L65.4145 35.7242C66.0952 36.2645 66.9742 36.5339 68.0516 36.5323C68.6274 36.5569 69.19 36.3554 69.6194 35.971C69.8152 35.7905 69.9702 35.5702 70.0737 35.3248C70.1772 35.0794 70.2268 34.8146 70.2193 34.5484C70.2482 34.0408 70.0801 33.5416 69.75 33.1549C69.2957 32.7298 68.7516 32.4123 68.1581 32.2258C66.0177 31.4097 64.9484 30.0968 64.95 28.2871C64.9388 27.743 65.0434 27.2028 65.257 26.7022C65.4706 26.2017 65.7882 25.7523 66.1887 25.3839C67.0145 24.6016 68.0879 24.2097 69.4089 24.2081C70.6998 24.1722 71.9722 24.5208 73.0645 25.2097L72.2831 27.0629C71.6524 26.5431 70.8575 26.2644 70.0403 26.2766C69.7721 26.2618 69.5037 26.3016 69.2512 26.3935C68.9988 26.4854 68.7677 26.6275 68.5718 26.8113C68.3974 26.983 68.26 27.1885 68.168 27.4153C68.0761 27.642 68.0315 27.8852 68.0371 28.1299C68.0371 29.0508 68.7323 29.7895 70.1226 30.346C72.3629 31.2444 73.4839 32.6274 73.4855 34.4952Z" fill="#202124"/>
<path d="M96.9774 38.5428H93.2589L91.754 33.5251H85.4637L83.9032 38.5428H80.6661L87.1355 19.0259H90.5371L96.9774 38.5428ZM91.246 31.4251L89.2331 24.5517C88.9907 23.7836 88.8198 22.9948 88.7226 22.1952H88.6669C88.5726 22.7057 88.3911 23.4896 88.125 24.5517L86.0274 31.4251H91.246Z" fill="#202124"/>
<path d="M110.081 38.5428H106.885V28.575C106.885 27.0073 106.043 26.2242 104.359 26.2258C103.61 26.2167 102.866 26.3497 102.167 26.6178V38.5428H98.9806V25.2363C100.432 24.5589 102.267 24.2194 104.485 24.2178C106.454 24.2178 107.906 24.6525 108.839 25.5218C109.667 26.2492 110.081 27.25 110.081 28.5242V38.5428Z" fill="#202124"/>
<path d="M124.425 37.7831C123.207 38.4605 121.572 38.7992 119.519 38.7992C117.465 38.7992 115.852 38.1734 114.68 36.9218C113.533 35.6686 112.96 33.9202 112.96 31.6767C112.96 29.4331 113.532 27.6331 114.677 26.2767C115.794 24.9863 117.273 24.3412 119.117 24.3412C119.832 24.3275 120.544 24.4163 121.234 24.6049V18.917H124.418L124.425 37.7831ZM121.241 36.4525V26.3323C120.782 26.2042 120.307 26.1423 119.831 26.1484C117.358 26.1484 116.123 27.9307 116.124 31.4952C116.127 35.0146 117.286 36.7743 119.598 36.7743C120.363 36.7743 120.91 36.663 121.241 36.4525Z" fill="#202124"/>
<path d="M138.917 31.4178L130.304 32.6734C130.564 35.2815 131.842 36.5855 134.139 36.5855C135.368 36.6157 136.587 36.3485 137.69 35.8065L138.448 37.8097C137.248 38.4726 135.699 38.8033 133.802 38.8016C131.785 38.8016 130.193 38.167 129.027 36.8976C127.861 35.6283 127.277 33.8202 127.277 31.4734C127.277 29.1944 127.812 27.4154 128.881 26.1363C129.951 24.8573 131.416 24.2178 133.277 24.2178C135.16 24.2178 136.587 24.8315 137.56 26.0589C138.532 27.2863 138.985 29.0726 138.917 31.4178ZM135.936 30.1645C135.936 27.5033 135.015 26.1726 133.171 26.1726C132.727 26.1549 132.286 26.2539 131.892 26.4598C131.498 26.6657 131.165 26.9712 130.926 27.346C130.352 28.1992 130.082 29.4339 130.118 31.05L135.936 30.1645Z" fill="#202124"/>
<path d="M149.862 34.4952C149.866 35.0701 149.745 35.639 149.506 36.1618C149.266 36.6847 148.916 37.1489 148.478 37.5218C147.557 38.3573 146.348 38.7742 144.849 38.7726C143.249 38.7726 141.953 38.4347 140.961 37.7589L141.794 35.7242C142.473 36.2629 143.353 36.5323 144.435 36.5323C145.01 36.5571 145.571 36.3556 145.998 35.971C146.195 35.7912 146.351 35.571 146.455 35.3255C146.559 35.08 146.609 34.8149 146.601 34.5484C146.631 34.0372 146.462 33.5342 146.129 33.1452C145.675 32.7203 145.131 32.4028 144.537 32.2162C142.397 31.4 141.327 30.0871 141.327 28.2774C141.315 27.7333 141.42 27.193 141.633 26.6924C141.847 26.1918 142.165 25.7424 142.565 25.3742C143.393 24.592 144.467 24.2 145.788 24.1984C147.076 24.1603 148.347 24.5055 149.439 25.1903L148.657 27.0436C148.027 26.5241 147.233 26.2454 146.417 26.2573C146.148 26.2426 145.88 26.2823 145.627 26.3742C145.374 26.4661 145.142 26.6082 144.946 26.792C144.772 26.964 144.635 27.1697 144.544 27.3964C144.452 27.6231 144.408 27.8661 144.414 28.1105C144.414 29.0315 145.109 29.7702 146.499 30.3266C148.74 31.2379 149.86 32.6274 149.862 34.4952Z" fill="#202124"/>
<path d="M61.4928 14.6371H59.4654V8.27422C59.4654 7.27584 58.9275 6.77584 57.8517 6.77422C57.3744 6.76525 56.8998 6.84736 56.4533 7.01616V14.6371H54.4355V6.14519C55.3549 5.71293 56.5251 5.496 57.946 5.49438C59.1993 5.49438 60.1243 5.7718 60.721 6.32664C60.9836 6.56883 61.1897 6.8658 61.3248 7.19651C61.4598 7.52722 61.5205 7.88359 61.5025 8.24035L61.4928 14.6371Z" fill="#202124"/>
<path d="M65.8645 3.10889C65.8659 3.24361 65.8375 3.37697 65.7815 3.49949C65.7255 3.62201 65.6431 3.73068 65.5403 3.81776C65.3205 4.00777 65.0397 4.11233 64.7492 4.11233C64.4587 4.11233 64.1778 4.00777 63.9581 3.81776C63.8545 3.73103 63.7713 3.62255 63.7145 3.50003C63.6576 3.37751 63.6284 3.24397 63.629 3.10889C63.6268 2.97159 63.6547 2.83547 63.7107 2.71008C63.7667 2.5847 63.8495 2.47309 63.9532 2.38309C64.1677 2.18373 64.4516 2.07608 64.7443 2.08309C65.0353 2.07619 65.318 2.17995 65.5355 2.37341C65.6417 2.46367 65.7265 2.57657 65.7834 2.70384C65.8403 2.83111 65.868 2.96951 65.8645 3.10889ZM65.7581 14.6371H63.7306V5.66131H65.7581V14.6371Z" fill="#202124"/>
<path d="M75 5.66138L72.121 14.6372H70.1855L67.2581 5.66138H69.4355L71.0177 11.4533C71.1346 11.8547 71.2076 12.2676 71.2355 12.6848H71.2669C71.3234 12.3622 71.404 11.9517 71.5089 11.4533L73.125 5.66138H75Z" fill="#202124"/>
<path d="M83.5064 10.0862L78.012 10.887C78.1733 12.5515 78.9887 13.383 80.458 13.3814C81.2405 13.4015 82.0166 13.2357 82.7225 12.8975L83.2064 14.1749C82.4403 14.5975 81.4524 14.808 80.2427 14.8064C78.9524 14.8064 77.9362 14.4031 77.1943 13.5967C76.4524 12.7902 76.0806 11.637 76.079 10.137C76.079 8.68541 76.4209 7.55073 77.1048 6.73299C77.7887 5.91525 78.7233 5.50718 79.9088 5.50879C81.1072 5.50879 82.0177 5.89992 82.6403 6.68218C83.2628 7.46444 83.5516 8.59912 83.5064 10.0862ZM81.6096 9.29025C81.6096 7.59186 81.0201 6.74266 79.8411 6.74266C79.5565 6.73198 79.2742 6.79632 79.0224 6.92924C78.7706 7.06215 78.5581 7.25897 78.4064 7.49992C78.0403 8.04508 77.8677 8.83379 77.8887 9.86605L81.6096 9.29025Z" fill="#202124"/>
<path d="M89.6758 5.50652L89.2742 6.99201C88.9721 6.89274 88.6559 6.8429 88.3379 6.84443C88.0019 6.83171 87.6684 6.90675 87.3702 7.06217V14.6372H85.3428V6.14039C86.3363 5.66297 87.7807 5.45168 89.6758 5.50652Z" fill="#202124"/>
<path d="M96.1476 12.0558C96.1505 12.4233 96.073 12.787 95.9204 13.1213C95.7679 13.4557 95.544 13.7526 95.2645 13.9913C94.6228 14.543 93.7945 14.8286 92.9492 14.7896C91.9266 14.7896 91.0992 14.5727 90.4669 14.1388L90.9992 12.8396C91.4862 13.2044 92.0849 13.3883 92.6927 13.3598C93.0598 13.3756 93.4185 13.2471 93.6919 13.0017C93.8141 12.8854 93.9105 12.7448 93.9751 12.589C94.0397 12.4331 94.071 12.2655 94.0669 12.0969C94.0846 11.7731 93.9781 11.4547 93.7693 11.2066C93.4788 10.9365 93.1317 10.7349 92.7532 10.6163C91.3871 10.0937 90.704 9.25496 90.704 8.10013C90.6977 7.75361 90.7649 7.40969 90.9013 7.09107C91.0377 6.77245 91.2401 6.48638 91.4951 6.25174C92.0537 5.73996 92.7923 5.47029 93.5492 5.50174C94.3711 5.47755 95.1818 5.69727 95.879 6.13319L95.3806 7.31384C94.9775 6.98265 94.47 6.80519 93.9484 6.81303C93.7768 6.80383 93.6051 6.82953 93.4438 6.88858C93.2825 6.94763 93.1348 7.0388 93.0097 7.15658C92.899 7.26406 92.8112 7.39271 92.7513 7.53486C92.6915 7.67701 92.6608 7.82976 92.6613 7.984C92.6613 8.57432 93.1056 9.04609 93.9943 9.39932C95.4298 9.98158 96.1476 10.8671 96.1476 12.0558Z" fill="#202124"/>
<path d="M100.118 3.10894C100.119 3.24339 100.091 3.37648 100.035 3.49891C99.9796 3.62134 99.898 3.73017 99.796 3.81781C99.5762 4.00781 99.2954 4.11237 99.0049 4.11237C98.7144 4.11237 98.4335 4.00781 98.2138 3.81781C98.1108 3.73084 98.0284 3.62219 97.9724 3.49965C97.9163 3.3771 97.888 3.24368 97.8896 3.10894C97.887 2.97158 97.9148 2.83536 97.9708 2.70992C98.0268 2.58449 98.1098 2.47292 98.2138 2.38313C98.428 2.18333 98.7121 2.0756 99.0049 2.08313C99.295 2.07685 99.5768 2.18057 99.7936 2.37346C99.8986 2.46451 99.9821 2.57768 100.038 2.70485C100.094 2.83201 100.121 2.97002 100.118 3.10894ZM100.014 14.6372H97.9839V5.66136H100.009L100.014 14.6372Z" fill="#202124"/>
<path d="M109.231 14.1483C108.454 14.5822 107.411 14.7983 106.103 14.7967C104.795 14.7951 103.769 14.3918 103.023 13.587C102.291 12.7886 101.925 11.6733 101.925 10.241C101.925 8.80877 102.291 7.65957 103.023 6.79345C103.373 6.38908 103.809 6.06863 104.3 5.85587C104.79 5.64311 105.322 5.54349 105.857 5.56441C106.312 5.55544 106.765 5.61248 107.204 5.73377V2.10474H109.229L109.231 14.1483ZM107.206 13.3063V6.83941C106.913 6.75892 106.61 6.71983 106.306 6.72328C104.729 6.72328 103.941 7.86119 103.943 10.137C103.943 12.3789 104.681 13.4999 106.156 13.4999C106.517 13.5284 106.879 13.4616 107.206 13.3063Z" fill="#202124"/>
<path d="M117.873 14.1484C117.067 14.5822 115.985 14.7984 114.627 14.7967C112.185 14.7967 110.965 13.8871 110.969 12.0677C110.953 11.5606 111.084 11.0597 111.347 10.6257C111.61 10.1916 111.993 9.84296 112.449 9.62175C113.225 9.20078 114.401 8.91288 115.977 8.75804V8.27417C115.977 7.28707 115.383 6.79352 114.196 6.79352C113.416 6.80188 112.648 6.98805 111.951 7.33788L111.484 6.17175C112.444 5.71047 113.498 5.477 114.564 5.48949C116.77 5.48949 117.874 6.52175 117.876 8.58626L117.873 14.1484ZM115.977 13.4226V9.72336C114.912 9.85884 114.159 10.0645 113.717 10.3403C113.164 10.6838 112.887 11.2387 112.887 12.0048C112.887 13.1161 113.513 13.6709 114.765 13.6693C115.182 13.6819 115.598 13.5966 115.977 13.4201V13.4226Z" fill="#202124"/>
<path d="M127.016 14.1483C126.237 14.5822 125.194 14.7983 123.885 14.7967C122.565 14.7967 121.539 14.3951 120.803 13.587C120.068 12.7789 119.707 11.6757 119.707 10.241C119.707 8.80635 120.075 7.64748 120.806 6.79345C121.154 6.39025 121.589 6.07048 122.078 5.85776C122.566 5.64504 123.096 5.54479 123.629 5.56441C124.085 5.55517 124.54 5.61222 124.979 5.73377V2.10474H127.016V14.1483ZM124.989 13.3063V6.83941C124.696 6.7587 124.393 6.71961 124.089 6.72328C122.513 6.72328 121.725 7.86119 121.725 10.137C121.725 12.3789 122.463 13.4999 123.939 13.4999C124.3 13.5287 124.662 13.462 124.989 13.3063Z" fill="#202124"/>
<path d="M44.6662 2.13867H46.8266V11.7895C46.8266 12.8492 47.3984 13.3798 48.542 13.3814C49.0487 13.3878 49.5521 13.2974 50.025 13.1153V2.13867H52.1855V14.054C51.2065 14.5137 49.9621 14.7435 48.4525 14.7435C47.1202 14.7435 46.1355 14.4492 45.4984 13.8604C45.2188 13.6033 44.9992 13.2876 44.8554 12.9359C44.7115 12.5843 44.6469 12.2052 44.6662 11.8258V2.13867Z" fill="#202124"/>
<path d="M114.193 54.1935C114.231 55.0259 114.013 55.8498 113.569 56.5548C113.321 56.8808 113.001 57.145 112.634 57.3268C112.266 57.5087 111.862 57.6033 111.452 57.6033C111.043 57.6033 110.638 57.5087 110.271 57.3268C109.904 57.145 109.584 56.8808 109.335 56.5548C108.891 55.8501 108.673 55.0259 108.711 54.1935C108.711 53.2145 108.919 52.4234 109.335 51.8201C109.81 51.1185 110.515 50.7677 111.452 50.7677C111.866 50.7443 112.279 50.8291 112.65 51.0136C113.021 51.1981 113.338 51.4761 113.569 51.8201C113.985 52.4185 114.193 53.2097 114.193 54.1935ZM112.713 54.1742C112.713 52.5306 112.293 51.7089 111.452 51.7089C110.612 51.7089 110.192 52.5306 110.192 54.1742C110.192 55.7774 110.612 56.579 111.452 56.579C112.293 56.579 112.713 55.7774 112.713 54.1742Z" fill="#202124"/>
<path d="M116.877 57.5371H115.369V48.2734H116.877V57.5371Z" fill="#202124"/>
<path d="M108.102 57.1814C107.659 57.525 107.025 57.6968 106.193 57.6968C105.638 57.7178 105.087 57.5861 104.602 57.3161C104.116 57.046 103.714 56.648 103.439 56.1653C102.917 55.3169 102.656 54.2484 102.656 52.9597C102.619 51.8403 102.899 50.7334 103.464 49.7661C103.737 49.2825 104.137 48.8829 104.621 48.6107C105.105 48.3386 105.655 48.2044 106.21 48.2226C106.881 48.1908 107.546 48.3711 108.109 48.7379L107.739 49.7516C107.372 49.5368 106.954 49.4271 106.529 49.4347C105.737 49.4347 105.161 49.8508 104.802 50.6831C104.518 51.4033 104.385 52.1739 104.41 52.9476C104.39 53.7116 104.532 54.4711 104.828 55.1758C105.198 55.9919 105.762 56.4 106.522 56.4C106.932 56.4082 107.335 56.2973 107.683 56.0806L108.089 57.1839L108.102 57.1814Z" fill="#202124"/>
<path d="M118.05 54.1524C118.05 53.175 118.259 52.3847 118.677 51.7814C119.149 51.0782 119.855 50.7274 120.794 50.729C121.732 50.7306 122.435 51.079 122.903 51.7742C123.318 52.3774 123.525 53.1677 123.525 54.1451C123.565 54.9804 123.348 55.8078 122.903 56.5161C122.655 56.8421 122.335 57.1063 121.967 57.2881C121.6 57.47 121.196 57.5646 120.786 57.5646C120.377 57.5646 119.972 57.47 119.605 57.2881C119.238 57.1063 118.918 56.8421 118.669 56.5161C118.223 55.811 118.004 54.9859 118.043 54.1524H118.05ZM119.533 54.1355C119.533 55.7387 119.953 56.5403 120.794 56.5403C121.634 56.5403 122.054 55.7387 122.054 54.1355C122.054 52.4903 121.634 51.6685 120.794 51.6701C119.953 51.6718 119.533 52.4935 119.533 54.1355Z" fill="#202124"/>
<path d="M115.369 57.5056H116.877V48.2395H115.369V57.5056Z" fill="#202124"/>
<path d="M133.618 57.5806H132.126V52.9015C132.126 52.1822 131.755 51.8233 131.013 51.8249C130.808 51.8209 130.605 51.859 130.415 51.9369C130.226 52.0147 130.055 52.1306 129.912 52.2773V57.5999H128.419V52.8725C128.419 52.1741 128.007 51.8249 127.183 51.8249C126.852 51.8216 126.523 51.8832 126.215 52.0064V57.5806H124.723V51.3386C125.5 50.9951 126.345 50.8298 127.195 50.8547C128.126 50.8547 128.81 51.0967 129.249 51.5806C129.772 51.0967 130.478 50.8547 131.368 50.8547C131.954 50.8336 132.528 51.0195 132.989 51.3797C133.205 51.5624 133.375 51.7925 133.486 52.0519C133.597 52.3113 133.647 52.5931 133.631 52.8749V57.5806H133.618Z" fill="#202124"/>
<path d="M140.381 54.0436C140.381 55.1291 140.123 55.9815 139.609 56.6008C139.052 57.2783 138.247 57.617 137.19 57.617C136.222 57.617 135.496 57.4557 135.012 57.1331V48.2444H136.493V51.0823C136.901 50.8984 137.344 50.8059 137.792 50.8113C138.182 50.7952 138.569 50.8803 138.917 51.0584C139.264 51.2364 139.559 51.5014 139.773 51.8274C140.201 52.4843 140.415 53.2577 140.385 54.0412L140.381 54.0436ZM138.898 54.1379C138.898 52.5008 138.392 51.6831 137.381 51.6847C137.071 51.6729 136.764 51.7403 136.488 51.8807V56.5791C136.729 56.6762 136.988 56.7223 137.248 56.7145C138.349 56.7145 138.9 55.8557 138.9 54.1379H138.898Z" fill="#202124"/>
<path d="M143.342 49.0257C143.344 49.1262 143.323 49.2259 143.282 49.3172C143.24 49.4086 143.178 49.4892 143.1 49.5532C142.94 49.6899 142.735 49.7638 142.524 49.7612C142.313 49.7647 142.108 49.6907 141.948 49.5532C141.871 49.4895 141.808 49.4088 141.766 49.3174C141.725 49.226 141.704 49.1263 141.707 49.0257C141.704 48.9246 141.725 48.8242 141.767 48.7321C141.809 48.6399 141.871 48.5584 141.948 48.4935C142.107 48.3521 142.312 48.2753 142.524 48.2782C142.735 48.2758 142.94 48.3497 143.1 48.4862C143.179 48.5519 143.241 48.6346 143.283 48.7281C143.325 48.8216 143.345 48.9233 143.342 49.0257ZM143.269 57.4935H141.774V50.8983H143.279V57.4959L143.269 57.4935Z" fill="#202124"/>
<path d="M149.802 57.063C149.206 57.3856 148.41 57.5469 147.414 57.5469C145.62 57.5469 144.723 56.8775 144.723 55.5388C144.723 54.6839 145.152 54.0517 146.008 53.642C146.539 53.3888 147.339 53.209 148.408 53.1025V52.742C148.408 52.0162 147.972 51.6533 147.099 51.6533C146.524 51.6602 145.959 51.7993 145.447 52.0598L145.103 51.2033C145.81 50.8647 146.584 50.6933 147.368 50.7025C148.992 50.7025 149.804 51.4614 149.804 52.9791V57.0654L149.802 57.063ZM148.406 56.5235V53.809C147.871 53.8491 147.346 53.9792 146.855 54.1936C146.621 54.3156 146.427 54.5032 146.298 54.7336C146.169 54.964 146.111 55.227 146.129 55.4904C146.129 56.3049 146.592 56.7122 147.518 56.7122C147.828 56.7217 148.136 56.6587 148.418 56.5283L148.406 56.5235Z" fill="#202124"/>
</g>
<defs>
<clipPath id="clip0_151_285">
<rect width="150" height="57.8226" fill="white"/>
</clipPath>
</defs>
</svg>
