<svg width="40" height="40" viewBox="0 0 40 40" fill="none" xmlns="http://www.w3.org/2000/svg">
<g clip-path="url(#clip0_244_717)">
<path d="M39.4263 6.10554L20.9796 39.0914C20.5988 39.7724 19.6202 39.7764 19.2337 39.0987L0.421281 6.10861C5.71311e-05 5.37016 0.631586 4.47556 1.46851 4.62527L19.935 7.92588C20.0528 7.94693 20.1735 7.94673 20.2912 7.92527L38.3715 4.62987C39.2056 4.47786 39.8401 5.36556 39.4263 6.10554Z" fill="url(#paint0_linear_244_717)"/>
<path d="M28.7315 0.295691L15.0805 2.9706C14.9715 2.99197 14.8726 3.04898 14.7995 3.13267C14.7263 3.21636 14.6831 3.32198 14.6765 3.43293L13.8368 17.6153C13.8322 17.693 13.8458 17.7708 13.8765 17.8424C13.9072 17.9141 13.9541 17.9775 14.0137 18.0278C14.0732 18.0781 14.1436 18.1139 14.2193 18.1322C14.2951 18.1505 14.374 18.1509 14.4499 18.1334L18.2506 17.2563C18.6062 17.1742 18.9276 17.4875 18.8544 17.845L17.7252 23.3745C17.6493 23.7466 17.9986 24.0648 18.362 23.9543L20.7095 23.2412C21.0734 23.1307 21.4231 23.4498 21.3461 23.8222L19.5517 32.5076C19.4394 33.051 20.1621 33.3472 20.4633 32.8815L20.6648 32.5704L31.7884 10.371C31.9747 9.99933 31.6534 9.5755 31.2454 9.65434L27.333 10.4094C26.9655 10.4802 26.6527 10.1378 26.7564 9.77829L29.3098 0.926606C29.4137 0.566127 29.0995 0.223595 28.7315 0.295691Z" fill="url(#paint1_linear_244_717)"/>
</g>
<defs>
<linearGradient id="paint0_linear_244_717" x1="8.13014" y1="10.8943" x2="35.2846" y2="30.2439" gradientUnits="userSpaceOnUse">
<stop stop-color="#41D1FF"/>
<stop offset="1" stop-color="#BD34FE"/>
</linearGradient>
<linearGradient id="paint1_linear_244_717" x1="22.8393" y1="0.286011" x2="22.8393" y2="33.1126" gradientUnits="userSpaceOnUse">
<stop stop-color="#FFEA83"/>
<stop offset="0.08" stop-color="#FFE45C"/>
<stop offset="1" stop-color="#FFA800"/>
</linearGradient>
<clipPath id="clip0_244_717">
<rect width="39.84" height="40" fill="white"/>
</clipPath>
</defs>
</svg>
